{
.appVersion = "3217";
DisplayStrings = (

glyphs = (
{
glyphname = "A-vit";
lastChange = "2021-11-04 06:35:00 +0000";
layers = (
{
layerId = UUID0;
paths = (
{
closed = 1;
nodes = (
"540 -10 OFFCURVE",
"619 235 OFFCURVE",
"619 448 CURVE SMOOTH",
"619 648 OFFCURVE",
"554 726 OFFCURVE",
"461 726 CURVE SMOOTH",
"398 726 OFFCURVE",
"349 681 OFFCURVE",
"349 593 CURVE SMOOTH",
"349 479 OFFCURVE",
"400 408 OFFCURVE",
"487 368 CURVE SMOOTH",
"604 315 LINE SMOOTH",
"666 287 OFFCURVE",
"725 249 OFFCURVE",
"725 166 CURVE SMOOTH",
"725 106 OFFCURVE",
"700 72 OFFCURVE",
"653 72 CURVE SMOOTH",
"626 72 OFFCURVE",
"610 77 OFFCURVE",
"581 89 CURVE",
"576 75 OFFCURVE",
"572 66 OFFCURVE",
"572 46 CURVE SMOOTH",
"572 14 OFFCURVE",
"597 -10 OFFCURVE",
"645 -10 CURVE SMOOTH",
"703 -10 OFFCURVE",
"785 51 OFFCURVE",
"785 186 CURVE SMOOTH",
"785 317 OFFCURVE",
"733 370 OFFCURVE",
"642 411 CURVE SMOOTH",
"525 464 LINE SMOOTH",
"469 489 OFFCURVE",
"409 537 OFFCURVE",
"409 608 CURVE SMOOTH",
"409 662 OFFCURVE",
"439 671 OFFCURVE",
"461 671 CURVE SMOOTH",
"520 671 OFFCURVE",
"558 573 OFFCURVE",
"558 448 CURVE SMOOTH",
"558 231 OFFCURVE",
"472 56 OFFCURVE",
"344 56 CURVE SMOOTH",
"229 56 OFFCURVE",
"186 155 OFFCURVE",
"186 356 CURVE SMOOTH",
"186 547 OFFCURVE",
"222 660 OFFCURVE",
"323 671 CURVE",
"323 724 LINE",
"178 721 OFFCURVE",
"75 609 OFFCURVE",
"75 357 CURVE SMOOTH",
"75 95 OFFCURVE",
"160 -10 OFFCURVE",
"322 -10 CURVE SMOOTH"
);
}
);
width = 810;
},
{
layerId = "58AAA307-6DE9-4107-B80A-C255AE991657";
paths = (
{
closed = 1;
nodes = (
"569 -10 OFFCURVE",
"652 265 OFFCURVE",
"652 448 CURVE SMOOTH",
"652 648 OFFCURVE",
"583 726 OFFCURVE",
"490 726 CURVE SMOOTH",
"427 726 OFFCURVE",
"363 681 OFFCURVE",
"363 583 CURVE SMOOTH",
"363 439 OFFCURVE",
"429 378 OFFCURVE",
"516 338 CURVE SMOOTH",
"633 285 LINE SMOOTH",
"695 257 OFFCURVE",
"754 249 OFFCURVE",
"754 175 CURVE SMOOTH",
"754 126 OFFCURVE",
"729 102 OFFCURVE",
"682 102 CURVE SMOOTH",
"645 102 OFFCURVE",
"629 107 OFFCURVE",
"600 119 CURVE",
"595 105 OFFCURVE",
"591 96 OFFCURVE",
"591 76 CURVE SMOOTH",
"591 34 OFFCURVE",
"616 -10 OFFCURVE",
"685 -10 CURVE SMOOTH",
"752 -10 OFFCURVE",
"824 51 OFFCURVE",
"824 186 CURVE SMOOTH",
"824 327 OFFCURVE",
"762 403 OFFCURVE",
"671 444 CURVE SMOOTH",
"554 497 LINE SMOOTH",
"498 522 OFFCURVE",
"438 547 OFFCURVE",
"438 608 CURVE SMOOTH",
"438 652 OFFCURVE",
"468 661 OFFCURVE",
"490 661 CURVE SMOOTH",
"549 661 OFFCURVE",
"582 573 OFFCURVE",
"582 448 CURVE SMOOTH",
"582 262 OFFCURVE",
"497 70 OFFCURVE",
"373 70 CURVE SMOOTH",
"279 70 OFFCURVE",
"243 163 OFFCURVE",
"243 356 CURVE SMOOTH",
"243 551 OFFCURVE",
"290 652 OFFCURVE",
"352 668 CURVE",
"352 722 LINE",
"191 715 OFFCURVE",
"75 573 OFFCURVE",
"75 357 CURVE SMOOTH",
"75 112 OFFCURVE",
"155 -10 OFFCURVE",
"341 -10 CURVE SMOOTH"
);
}
);
width = 834;
}
);
leftKerningGroup = "Ka-vit";
leftMetricsKey = "Ka-vit";
rightKerningGroup = "A-vit";
unicode = 10570;
script = vithkuqi;
category = Letter;
subCategory = Uppercase;
},
{
glyphname = "Bbe-vit";
lastChange = "2021-11-04 06:35:00 +0000";
layers = (
{
layerId = UUID0;
paths = (
{
closed = 1;
nodes = (
"582 -254 OFFCURVE",
"600 -253 OFFCURVE",
"619 -251 CURVE",
"619 -207 LINE",
"605 -207 LINE SMOOTH",
"561 -207 OFFCURVE",
"518 -174 OFFCURVE",
"518 -114 CURVE SMOOTH",
"518 246 LINE SMOOTH",
"518 396 OFFCURVE",
"424 437 OFFCURVE",
"302 437 CURVE SMOOTH",
"137 437 OFFCURVE",
"30 330 OFFCURVE",
"30 184 CURVE SMOOTH",
"30 111 OFFCURVE",
"61 70 OFFCURVE",
"120 70 CURVE SMOOTH",
"175 70 OFFCURVE",
"203 104 OFFCURVE",
"203 152 CURVE SMOOTH",
"203 565 LINE SMOOTH",
"203 641 OFFCURVE",
"243 673 OFFCURVE",
"279 673 CURVE SMOOTH",
"322 673 OFFCURVE",
"346 637 OFFCURVE",
"370 589 CURVE",
"419 600 OFFCURVE",
"434 630 OFFCURVE",
"434 653 CURVE SMOOTH",
"434 698 OFFCURVE",
"381 725 OFFCURVE",
"296 725 CURVE SMOOTH",
"206 725 OFFCURVE",
"143 673 OFFCURVE",
"143 573 CURVE SMOOTH",
"143 154 LINE SMOOTH",
"143 131 OFFCURVE",
"132 123 OFFCURVE",
"120 123 CURVE SMOOTH",
"102 123 OFFCURVE",
"90 143 OFFCURVE",
"90 184 CURVE SMOOTH",
"90 307 OFFCURVE",
"164 384 OFFCURVE",
"302 384 CURVE SMOOTH",
"377 384 OFFCURVE",
"417 331 OFFCURVE",
"417 239 CURVE SMOOTH",
"417 -113 LINE SMOOTH",
"417 -206 OFFCURVE",
"450 -254 OFFCURVE",
"569 -254 CURVE SMOOTH"
);
}
);
width = 604;
},
{
layerId = "58AAA307-6DE9-4107-B80A-C255AE991657";
paths = (
{
closed = 1;
nodes = (
"610 -254 OFFCURVE",
"628 -253 OFFCURVE",
"647 -251 CURVE",
"647 -198 LINE",
"633 -198 LINE SMOOTH",
"594 -198 OFFCURVE",
"577 -165 OFFCURVE",
"577 -105 CURVE SMOOTH",
"577 275 LINE SMOOTH",
"577 400 OFFCURVE",
"471 443 OFFCURVE",
"322 443 CURVE SMOOTH",
"138 443 OFFCURVE",
"40 341 OFFCURVE",
"40 184 CURVE SMOOTH",
"40 111 OFFCURVE",
"65 58 OFFCURVE",
"140 58 CURVE SMOOTH",
"199 58 OFFCURVE",
"233 94 OFFCURVE",
"233 152 CURVE SMOOTH",
"233 565 LINE SMOOTH",
"233 631 OFFCURVE",
"263 663 OFFCURVE",
"299 663 CURVE SMOOTH",
"332 663 OFFCURVE",
"366 627 OFFCURVE",
"390 574 CURVE",
"444 580 OFFCURVE",
"464 610 OFFCURVE",
"464 643 CURVE SMOOTH",
"464 698 OFFCURVE",
"411 725 OFFCURVE",
"316 725 CURVE SMOOTH",
"226 725 OFFCURVE",
"163 673 OFFCURVE",
"163 573 CURVE SMOOTH",
"163 154 LINE SMOOTH",
"163 131 OFFCURVE",
"152 123 OFFCURVE",
"140 123 CURVE SMOOTH",
"122 123 OFFCURVE",
"110 143 OFFCURVE",
"110 184 CURVE SMOOTH",
"110 297 OFFCURVE",
"149 378 OFFCURVE",
"322 378 CURVE SMOOTH",
"397 378 OFFCURVE",
"419 338 OFFCURVE",
"419 268 CURVE SMOOTH",
"419 -113 LINE SMOOTH",
"419 -206 OFFCURVE",
"460 -254 OFFCURVE",
"577 -254 CURVE SMOOTH"
);
}
);
width = 657;
}
);
leftKerningGroup = "Bbe-vit";
rightKerningGroup = "Bbe-vit";
unicode = 10571;
script = vithkuqi;
category = Letter;
subCategory = Uppercase;
},
{
glyphname = "Be-vit";
lastChange = "2021-11-04 06:35:00 +0000";
layers = (
{
layerId = UUID0;
paths = (
{
closed = 1;
nodes = (
"289 -11 OFFCURVE",
"329 -3 OFFCURVE",
"346 5 CURVE",
"346 49 LINE",
"325 45 OFFCURVE",
"306 43 OFFCURVE",
"282 43 CURVE SMOOTH",
"236 43 OFFCURVE",
"206 74 OFFCURVE",
"206 141 CURVE SMOOTH",
"206 205 LINE SMOOTH",
"206 242 OFFCURVE",
"206 274 OFFCURVE",
"200 304 CURVE",
"207 304 LINE",
"234 278 OFFCURVE",
"268 257 OFFCURVE",
"310 256 CURVE SMOOTH",
"378 257 OFFCURVE",
"424 306 OFFCURVE",
"423 385 CURVE SMOOTH",
"424 495 OFFCURVE",
"360 546 OFFCURVE",
"282 545 CURVE SMOOTH",
"236 545 OFFCURVE",
"206 534 OFFCURVE",
"186 529 CURVE",
"204 518 LINE",
"204 536 LINE SMOOTH",
"204 614 OFFCURVE",
"223 671 OFFCURVE",
"282 671 CURVE SMOOTH",
"325 671 OFFCURVE",
"349 637 OFFCURVE",
"373 589 CURVE",
"422 600 OFFCURVE",
"437 630 OFFCURVE",
"437 653 CURVE SMOOTH",
"437 698 OFFCURVE",
"384 725 OFFCURVE",
"299 725 CURVE SMOOTH",
"144 725 OFFCURVE",
"105 621 OFFCURVE",
"105 479 CURVE SMOOTH",
"105 145 LINE SMOOTH",
"105 34 OFFCURVE",
"154 -11 OFFCURVE",
"248 -11 CURVE SMOOTH"
);
},
{
closed = 1;
nodes = (
"236 319 OFFCURVE",
"207 347 OFFCURVE",
"206 391 CURVE SMOOTH",
"207 439 OFFCURVE",
"233 482 OFFCURVE",
"297 482 CURVE SMOOTH",
"338 482 OFFCURVE",
"369 455 OFFCURVE",
"368 410 CURVE SMOOTH",
"369 364 OFFCURVE",
"341 319 OFFCURVE",
"277 319 CURVE SMOOTH"
);
}
);
width = 492;
},
{
layerId = "58AAA307-6DE9-4107-B80A-C255AE991657";
paths = (
{
closed = 1;
nodes = (
"316 -11 OFFCURVE",
"346 -4 OFFCURVE",
"363 1 CURVE",
"363 55 LINE",
"342 54 OFFCURVE",
"333 52 OFFCURVE",
"309 52 CURVE SMOOTH",
"273 52 OFFCURVE",
"243 74 OFFCURVE",
"243 141 CURVE SMOOTH",
"243 161 LINE SMOOTH",
"243 201 OFFCURVE",
"243 223 OFFCURVE",
"237 282 CURVE",
"244 282 LINE",
"271 217 OFFCURVE",
"305 194 OFFCURVE",
"357 194 CURVE SMOOTH",
"445 194 OFFCURVE",
"492 269 OFFCURVE",
"492 378 CURVE SMOOTH",
"492 515 OFFCURVE",
"399 556 OFFCURVE",
"289 555 CURVE SMOOTH",
"259 555 OFFCURVE",
"229 551 OFFCURVE",
"199 543 CURVE",
"245 533 LINE",
"245 558 LINE SMOOTH",
"245 614 OFFCURVE",
"259 660 OFFCURVE",
"313 660 CURVE SMOOTH",
"350 660 OFFCURVE",
"388 627 OFFCURVE",
"412 574 CURVE",
"466 580 OFFCURVE",
"486 610 OFFCURVE",
"486 643 CURVE SMOOTH",
"486 698 OFFCURVE",
"423 725 OFFCURVE",
"328 725 CURVE SMOOTH",
"176 725 OFFCURVE",
"85 633 OFFCURVE",
"85 479 CURVE SMOOTH",
"85 145 LINE SMOOTH",
"85 34 OFFCURVE",
"193 -11 OFFCURVE",
"285 -11 CURVE SMOOTH"
);
},
{
closed = 1;
nodes = (
"283 317 OFFCURVE",
"243 337 OFFCURVE",
"243 379 CURVE SMOOTH",
"243 421 OFFCURVE",
"284 450 OFFCURVE",
"339 450 CURVE SMOOTH",
"388 450 OFFCURVE",
"426 429 OFFCURVE",
"426 385 CURVE SMOOTH",
"426 347 OFFCURVE",
"399 317 OFFCURVE",
"333 317 CURVE SMOOTH"
);
}
);
width = 537;
}
);
unicode = 10572;
script = vithkuqi;
category = Letter;
subCategory = Uppercase;
},
{
glyphname = "Ce-vit";
lastChange = "2021-11-04 06:35:00 +0000";
layers = (
{
layerId = UUID0;
paths = (
{
closed = 1;
nodes = (
"313 -250 OFFCURVE",
"331 -247 OFFCURVE",
"354 -239 CURVE",
"354 -192 LINE",
"343 -195 OFFCURVE",
"324 -197 OFFCURVE",
"311 -197 CURVE SMOOTH",
"258 -197 OFFCURVE",
"220 -160 OFFCURVE",
"220 -83 CURVE SMOOTH",
"220 -5 OFFCURVE",
"234 108 OFFCURVE",
"376 251 CURVE",
"376 298 LINE",
"252 298 LINE SMOOTH",
"229 298 OFFCURVE",
"207 298 OFFCURVE",
"179 292 CURVE",
"161 277 LINE",
"295 336 OFFCURVE",
"416 453 OFFCURVE",
"416 564 CURVE SMOOTH",
"416 668 OFFCURVE",
"350 726 OFFCURVE",
"234 726 CURVE SMOOTH",
"110 726 OFFCURVE",
"60 661 OFFCURVE",
"60 585 CURVE SMOOTH",
"60 504 OFFCURVE",
"115 448 OFFCURVE",
"182 448 CURVE SMOOTH",
"221 448 OFFCURVE",
"244 471 OFFCURVE",
"244 496 CURVE SMOOTH",
"244 516 OFFCURVE",
"238 530 OFFCURVE",
"227 540 CURVE",
"218 537 OFFCURVE",
"212 529 OFFCURVE",
"185 529 CURVE SMOOTH",
"149 529 OFFCURVE",
"120 550 OFFCURVE",
"120 585 CURVE SMOOTH",
"120 631 OFFCURVE",
"148 661 OFFCURVE",
"209 661 CURVE SMOOTH",
"267 661 OFFCURVE",
"314 632 OFFCURVE",
"314 564 CURVE SMOOTH",
"314 432 OFFCURVE",
"203 342 OFFCURVE",
"121 297 CURVE",
"121 248 LINE",
"260 248 LINE SMOOTH",
"292 248 OFFCURVE",
"314 250 OFFCURVE",
"326 254 CURVE",
"335 270 LINE",
"179 131 OFFCURVE",
"109 18 OFFCURVE",
"109 -84 CURVE SMOOTH",
"109 -198 OFFCURVE",
"187 -250 OFFCURVE",
"285 -250 CURVE SMOOTH"
);
}
);
width = 471;
},
{
layerId = "58AAA307-6DE9-4107-B80A-C255AE991657";
paths = (
{
closed = 1;
nodes = (
"325 -249 OFFCURVE",
"351 -243 OFFCURVE",
"371 -236 CURVE",
"371 -181 LINE",
"358 -185 OFFCURVE",
"341 -187 OFFCURVE",
"325 -187 CURVE SMOOTH",
"294 -187 OFFCURVE",
"261 -159 OFFCURVE",
"261 -82 CURVE SMOOTH",
"261 75 OFFCURVE",
"323 156 OFFCURVE",
"403 256 CURVE",
"403 308 LINE",
"328 308 LINE SMOOTH",
"244 308 OFFCURVE",
"187 300 OFFCURVE",
"146 292 CURVE",
"142 286 LINE",
"370 333 OFFCURVE",
"444 431 OFFCURVE",
"444 559 CURVE SMOOTH",
"444 667 OFFCURVE",
"365 726 OFFCURVE",
"232 726 CURVE SMOOTH",
"105 726 OFFCURVE",
"45 664 OFFCURVE",
"45 589 CURVE SMOOTH",
"45 507 OFFCURVE",
"93 451 OFFCURVE",
"168 451 CURVE SMOOTH",
"217 451 OFFCURVE",
"244 472 OFFCURVE",
"244 503 CURVE SMOOTH",
"244 520 OFFCURVE",
"235 537 OFFCURVE",
"218 553 CURVE",
"198 542 OFFCURVE",
"176 537 OFFCURVE",
"160 537 CURVE SMOOTH",
"135 537 OFFCURVE",
"105 554 OFFCURVE",
"105 589 CURVE SMOOTH",
"105 634 OFFCURVE",
"141 657 OFFCURVE",
"181 657 CURVE SMOOTH",
"245 657 OFFCURVE",
"276 621 OFFCURVE",
"276 532 CURVE SMOOTH",
"276 451 OFFCURVE",
"237 346 OFFCURVE",
"102 303 CURVE",
"102 247 LINE",
"242 247 LINE SMOOTH",
"269 247 OFFCURVE",
"329 250 OFFCURVE",
"344 261 CURVE",
"356 278 LINE",
"144 139 OFFCURVE",
"93 15 OFFCURVE",
"93 -83 CURVE SMOOTH",
"93 -212 OFFCURVE",
"172 -249 OFFCURVE",
"303 -249 CURVE SMOOTH"
);
}
);
width = 469;
}
);
unicode = 10573;
script = vithkuqi;
category = Letter;
subCategory = Uppercase;
},
{
glyphname = "Che-cit";
lastChange = "2021-11-04 06:35:00 +0000";
layers = (
{
guideLines = (
{
position = "{624, 856}";
}
);
layerId = UUID0;
paths = (
{
closed = 1;
nodes = (
"509 -9 OFFCURVE",
"635 70 OFFCURVE",
"635 321 CURVE SMOOTH",
"635 489 OFFCURVE",
"589 536 OFFCURVE",
"511 536 CURVE SMOOTH",
"421 536 OFFCURVE",
"363 466 OFFCURVE",
"363 299 CURVE SMOOTH",
"363 64 OFFCURVE",
"492 -11 OFFCURVE",
"625 -11 CURVE SMOOTH",
"807 -11 OFFCURVE",
"859 137 OFFCURVE",
"860 299 CURVE SMOOTH",
"861 467 OFFCURVE",
"793 557 OFFCURVE",
"661 621 CURVE SMOOTH",
"575 663 OFFCURVE",
"548 689 OFFCURVE",
"548 739 CURVE SMOOTH",
"548 772 OFFCURVE",
"568 802 OFFCURVE",
"607 802 CURVE SMOOTH",
"650 802 OFFCURVE",
"674 768 OFFCURVE",
"698 720 CURVE",
"747 731 OFFCURVE",
"762 761 OFFCURVE",
"762 784 CURVE SMOOTH",
"762 829 OFFCURVE",
"712 856 OFFCURVE",
"624 856 CURVE SMOOTH",
"535 856 OFFCURVE",
"482 804 OFFCURVE",
"482 739 CURVE SMOOTH",
"482 662 OFFCURVE",
"534 616 OFFCURVE",
"637 567 CURVE SMOOTH",
"744 516 OFFCURVE",
"800 443 OFFCURVE",
"800 299 CURVE SMOOTH",
"800 178 OFFCURVE",
"769 44 OFFCURVE",
"628 44 CURVE SMOOTH",
"533 44 OFFCURVE",
"474 92 OFFCURVE",
"474 299 CURVE SMOOTH",
"474 439 OFFCURVE",
"497 472 OFFCURVE",
"526 472 CURVE SMOOTH",
"554 472 OFFCURVE",
"575 436 OFFCURVE",
"575 319 CURVE SMOOTH",
"575 70 OFFCURVE",
"466 45 OFFCURVE",
"374 45 CURVE SMOOTH",
"222 45 OFFCURVE",
"186 180 OFFCURVE",
"186 358 CURVE SMOOTH",
"186 558 OFFCURVE",
"238 658 OFFCURVE",
"325 682 CURVE",
"325 725 LINE",
"196 725 OFFCURVE",
"75 573 OFFCURVE",
"75 358 CURVE SMOOTH",
"75 138 OFFCURVE",
"150 -9 OFFCURVE",
"374 -9 CURVE SMOOTH"
);
}
);
width = 905;
},
{
layerId = "58AAA307-6DE9-4107-B80A-C255AE991657";
paths = (
{
closed = 1;
nodes = (
"558 -9 OFFCURVE",
"677 95 OFFCURVE",
"677 328 CURVE SMOOTH",
"677 488 OFFCURVE",
"628 536 OFFCURVE",
"522 536 CURVE SMOOTH",
"403 536 OFFCURVE",
"346 456 OFFCURVE",
"346 308 CURVE SMOOTH",
"346 89 OFFCURVE",
"480 -8 OFFCURVE",
"643 -8 CURVE SMOOTH",
"792 -8 OFFCURVE",
"891 106 OFFCURVE",
"891 295 CURVE SMOOTH",
"891 497 OFFCURVE",
"785 564 OFFCURVE",
"658 630 CURVE SMOOTH",
"584 668 OFFCURVE",
"551 685 OFFCURVE",
"551 735 CURVE SMOOTH",
"551 769 OFFCURVE",
"576 790 OFFCURVE",
"609 790 CURVE SMOOTH",
"650 790 OFFCURVE",
"685 761 OFFCURVE",
"730 704 CURVE",
"759 707 OFFCURVE",
"787 738 OFFCURVE",
"787 771 CURVE SMOOTH",
"787 813 OFFCURVE",
"750 857 OFFCURVE",
"640 857 CURVE SMOOTH",
"531 857 OFFCURVE",
"481 799 OFFCURVE",
"481 735 CURVE SMOOTH",
"481 635 OFFCURVE",
"541 616 OFFCURVE",
"644 562 CURVE SMOOTH",
"753 505 OFFCURVE",
"821 436 OFFCURVE",
"821 295 CURVE SMOOTH",
"821 156 OFFCURVE",
"745 67 OFFCURVE",
"647 67 CURVE SMOOTH",
"562 67 OFFCURVE",
"514 122 OFFCURVE",
"514 308 CURVE SMOOTH",
"514 424 OFFCURVE",
"538 466 OFFCURVE",
"562 466 CURVE SMOOTH",
"588 466 OFFCURVE",
"607 431 OFFCURVE",
"607 325 CURVE SMOOTH",
"607 135 OFFCURVE",
"524 64 OFFCURVE",
"398 64 CURVE SMOOTH",
"292 64 OFFCURVE",
"243 153 OFFCURVE",
"243 372 CURVE SMOOTH",
"243 576 OFFCURVE",
"288 647 OFFCURVE",
"345 666 CURVE",
"345 725 LINE",
"186 725 OFFCURVE",
"75 623 OFFCURVE",
"75 363 CURVE SMOOTH",
"75 98 OFFCURVE",
"178 -9 OFFCURVE",
"398 -9 CURVE SMOOTH"
);
}
);
width = 936;
}
);
leftKerningGroup = "Ka-vit";
leftMetricsKey = "Ka-vit";
unicode = 10574;
script = vithkuqi;
category = Letter;
subCategory = Uppercase;
},
{
glyphname = "De-vit";
lastChange = "2021-11-04 06:35:00 +0000";
layers = (
{
components = (
{
name = "Dhe-vit";
transform = "{1, 0, 0, 1, 10, 0}";
}
);
layerId = UUID0;
paths = (
{
closed = 1;
nodes = (
"10 486 LINE",
"381 486 LINE",
"381 536 LINE",
"10 536 LINE"
);
}
);
width = 670;
},
{
components = (
{
name = "Dhe-vit";
transform = "{1, 0, 0, 1, 20, 0}";
}
);
layerId = "58AAA307-6DE9-4107-B80A-C255AE991657";
paths = (
{
closed = 1;
nodes = (
"15 467 LINE",
"433 467 LINE",
"433 536 LINE",
"15 536 LINE"
);
}
);
width = 689;
}
);
rightKerningGroup = "Dhe-vit";
rightMetricsKey = "=Dhe-vit";
unicode = 10575;
script = vithkuqi;
category = Letter;
subCategory = Uppercase;
},
{
glyphname = "Dhe-vit";
lastChange = "2021-11-04 06:35:00 +0000";
layers = (
{
layerId = UUID0;
paths = (
{
closed = 1;
nodes = (
"110 714 LINE",
"110 155 LINE SMOOTH",
"110 50 OFFCURVE",
"166 -10 OFFCURVE",
"303 -10 CURVE SMOOTH",
"373 -10 OFFCURVE",
"422 15 OFFCURVE",
"452 35 CURVE",
"456 35 LINE",
"492 14 OFFCURVE",
"534 -7 OFFCURVE",
"610 -7 CURVE SMOOTH",
"624 -7 OFFCURVE",
"653 -5 OFFCURVE",
"670 -3 CURVE",
"670 47 LINE",
"577 47 OFFCURVE",
"512 75 OFFCURVE",
"483 94 CURVE",
"506 158 OFFCURVE",
"523 224 OFFCURVE",
"523 265 CURVE SMOOTH",
"523 351 OFFCURVE",
"496 382 OFFCURVE",
"460 382 CURVE SMOOTH",
"424 382 OFFCURVE",
"395 351 OFFCURVE",
"395 265 CURVE SMOOTH",
"395 224 OFFCURVE",
"407 158 OFFCURVE",
"428 83 CURVE",
"402 66 OFFCURVE",
"371 54 OFFCURVE",
"318 54 CURVE SMOOTH",
"245 54 OFFCURVE",
"211 96 OFFCURVE",
"211 163 CURVE SMOOTH",
"211 714 LINE"
);
}
);
width = 660;
},
{
layerId = "58AAA307-6DE9-4107-B80A-C255AE991657";
paths = (
{
closed = 1;
nodes = (
"105 714 LINE",
"105 155 LINE SMOOTH",
"105 47 OFFCURVE",
"173 -10 OFFCURVE",
"315 -10 CURVE SMOOTH",
"392 -10 OFFCURVE",
"440 17 OFFCURVE",
"468 40 CURVE",
"477 40 LINE",
"528 8 OFFCURVE",
"571 -7 OFFCURVE",
"635 -7 CURVE SMOOTH",
"677 -7 OFFCURVE",
"688 -6 OFFCURVE",
"699 -3 CURVE",
"699 55 LINE",
"635 55 OFFCURVE",
"553 69 OFFCURVE",
"504 113 CURVE",
"529 175 OFFCURVE",
"545 239 OFFCURVE",
"545 304 CURVE SMOOTH",
"545 397 OFFCURVE",
"516 430 OFFCURVE",
"476 430 CURVE SMOOTH",
"437 430 OFFCURVE",
"405 397 OFFCURVE",
"405 304 CURVE SMOOTH",
"405 239 OFFCURVE",
"425 175 OFFCURVE",
"449 101 CURVE",
"435 87 OFFCURVE",
"401 67 OFFCURVE",
"350 67 CURVE SMOOTH",
"290 67 OFFCURVE",
"263 106 OFFCURVE",
"263 163 CURVE SMOOTH",
"263 714 LINE"
);
}
);
width = 669;
}
);
leftKerningGroup = "Dhe-vit";
rightKerningGroup = "Dhe-vit";
unicode = 10576;
script = vithkuqi;
category = Letter;
subCategory = Uppercase;
},
{
glyphname = "E-vit";
lastChange = "2021-11-04 06:35:00 +0000";
layers = (
{
layerId = UUID0;
paths = (
{
closed = 1;
nodes = (
"543 -10 OFFCURVE",
"650 58 OFFCURVE",
"650 126 CURVE SMOOTH",
"650 149 OFFCURVE",
"641 163 OFFCURVE",
"629 168 CURVE",
"598 125 OFFCURVE",
"554 56 OFFCURVE",
"452 56 CURVE SMOOTH",
"343 56 OFFCURVE",
"281 153 OFFCURVE",
"281 311 CURVE SMOOTH",
"281 527 OFFCURVE",
"399 672 OFFCURVE",
"507 672 CURVE SMOOTH",
"560 672 OFFCURVE",
"576 643 OFFCURVE",
"576 615 CURVE SMOOTH",
"576 519 OFFCURVE",
"422 507 OFFCURVE",
"333 507 CURVE SMOOTH",
"250 507 OFFCURVE",
"196 533 OFFCURVE",
"140 597 CURVE",
"87 597 LINE",
"63 555 OFFCURVE",
"42 515 OFFCURVE",
"-15 465 CURVE",
"19 423 LINE",
"67 452 OFFCURVE",
"126 514 OFFCURVE",
"126 555 CURVE",
"87 497 LINE",
"157 446 OFFCURVE",
"187 428 OFFCURVE",
"320 428 CURVE SMOOTH",
"439 428 OFFCURVE",
"636 472 OFFCURVE",
"636 617 CURVE SMOOTH",
"636 687 OFFCURVE",
"589 726 OFFCURVE",
"509 726 CURVE SMOOTH",
"338 726 OFFCURVE",
"170 527 OFFCURVE",
"170 307 CURVE SMOOTH",
"170 94 OFFCURVE",
"259 -10 OFFCURVE",
"433 -10 CURVE SMOOTH"
);
}
);
width = 686;
},
{
layerId = "58AAA307-6DE9-4107-B80A-C255AE991657";
paths = (
{
closed = 1;
nodes = (
"527 -10 OFFCURVE",
"634 58 OFFCURVE",
"634 126 CURVE SMOOTH",
"634 149 OFFCURVE",
"625 163 OFFCURVE",
"613 168 CURVE",
"582 125 OFFCURVE",
"538 65 OFFCURVE",
"432 65 CURVE SMOOTH",
"333 65 OFFCURVE",
"290 153 OFFCURVE",
"290 311 CURVE SMOOTH",
"290 527 OFFCURVE",
"379 661 OFFCURVE",
"487 661 CURVE SMOOTH",
"530 661 OFFCURVE",
"551 643 OFFCURVE",
"551 615 CURVE SMOOTH",
"551 519 OFFCURVE",
"402 507 OFFCURVE",
"313 507 CURVE SMOOTH",
"230 507 OFFCURVE",
"176 553 OFFCURVE",
"120 607 CURVE",
"57 607 LINE",
"33 565 OFFCURVE",
"12 515 OFFCURVE",
"-45 465 CURVE",
"-7 423 LINE",
"41 452 OFFCURVE",
"90 514 OFFCURVE",
"100 555 CURVE",
"19 472 LINE",
"109 421 OFFCURVE",
"167 398 OFFCURVE",
"300 398 CURVE SMOOTH",
"449 398 OFFCURVE",
"621 472 OFFCURVE",
"621 617 CURVE SMOOTH",
"621 687 OFFCURVE",
"577 726 OFFCURVE",
"489 726 CURVE SMOOTH",
"298 726 OFFCURVE",
"122 527 OFFCURVE",
"122 307 CURVE SMOOTH",
"122 81 OFFCURVE",
"226 -10 OFFCURVE",
"413 -10 CURVE SMOOTH"
);
}
);
width = 669;
}
);
unicode = 10578;
script = vithkuqi;
category = Letter;
subCategory = Uppercase;
},
{
glyphname = "Ei-vit";
lastChange = "2021-11-04 06:35:00 +0000";
layers = (
{
layerId = UUID0;
paths = (
{
closed = 1;
nodes = (
"379 -10 OFFCURVE",
"441 72 OFFCURVE",
"441 273 CURVE SMOOTH",
"441 536 OFFCURVE",
"366 721 OFFCURVE",
"175 721 CURVE SMOOTH",
"116 721 OFFCURVE",
"57 697 OFFCURVE",
"15 660 CURVE",
"41 620 LINE",
"63 635 OFFCURVE",
"107 663 OFFCURVE",
"171 661 CURVE SMOOTH",
"294 658 OFFCURVE",
"330 521 OFFCURVE",
"330 274 CURVE SMOOTH",
"330 109 OFFCURVE",
"292 44 OFFCURVE",
"250 44 CURVE SMOOTH",
"209 44 OFFCURVE",
"165 111 OFFCURVE",
"165 240 CURVE SMOOTH",
"165 556 OFFCURVE",
"298 658 OFFCURVE",
"444 660 CURVE SMOOTH",
"542 661 OFFCURVE",
"589 610 OFFCURVE",
"589 507 CURVE SMOOTH",
"589 177 LINE SMOOTH",
"589 54 OFFCURVE",
"628 -10 OFFCURVE",
"743 -10 CURVE SMOOTH",
"762 -10 OFFCURVE",
"776 -9 OFFCURVE",
"802 -6 CURVE",
"802 44 LINE",
"783 44 LINE SMOOTH",
"711 44 OFFCURVE",
"700 104 OFFCURVE",
"700 184 CURVE SMOOTH",
"700 517 LINE SMOOTH",
"700 673 OFFCURVE",
"617 725 OFFCURVE",
"470 725 CURVE SMOOTH",
"244 725 OFFCURVE",
"105 537 OFFCURVE",
"105 237 CURVE SMOOTH",
"105 58 OFFCURVE",
"171 -10 OFFCURVE",
"260 -10 CURVE SMOOTH"
);
}
);
width = 837;
},
{
layerId = "58AAA307-6DE9-4107-B80A-C255AE991657";
paths = (
{
closed = 1;
nodes = (
"410 -10 OFFCURVE",
"474 72 OFFCURVE",
"474 286 CURVE SMOOTH",
"474 536 OFFCURVE",
"394 721 OFFCURVE",
"172 721 CURVE SMOOTH",
"113 721 OFFCURVE",
"47 697 OFFCURVE",
"5 660 CURVE",
"38 610 LINE",
"60 625 OFFCURVE",
"104 651 OFFCURVE",
"168 651 CURVE SMOOTH",
"276 651 OFFCURVE",
"306 521 OFFCURVE",
"306 287 CURVE SMOOTH",
"306 109 OFFCURVE",
"285 55 OFFCURVE",
"243 55 CURVE SMOOTH",
"202 55 OFFCURVE",
"174 111 OFFCURVE",
"174 240 CURVE SMOOTH",
"174 536 OFFCURVE",
"302 658 OFFCURVE",
"448 660 CURVE SMOOTH",
"546 661 OFFCURVE",
"578 610 OFFCURVE",
"578 507 CURVE SMOOTH",
"578 132 LINE SMOOTH",
"578 40 OFFCURVE",
"621 -9 OFFCURVE",
"738 -9 CURVE SMOOTH",
"757 -9 OFFCURVE",
"789 -8 OFFCURVE",
"808 -6 CURVE",
"808 47 LINE",
"794 47 LINE SMOOTH",
"755 47 OFFCURVE",
"736 104 OFFCURVE",
"736 139 CURVE SMOOTH",
"736 517 LINE SMOOTH",
"736 673 OFFCURVE",
"621 725 OFFCURVE",
"474 725 CURVE SMOOTH",
"248 725 OFFCURVE",
"104 537 OFFCURVE",
"104 237 CURVE SMOOTH",
"104 58 OFFCURVE",
"162 -10 OFFCURVE",
"272 -10 CURVE SMOOTH"
);
}
);
width = 848;
}
);
unicode = 10577;
script = vithkuqi;
category = Letter;
subCategory = Uppercase;
},
{
glyphname = "Fe-vit";
lastChange = "2021-11-04 06:35:00 +0000";
layers = (
{
layerId = UUID0;
paths = (
{
closed = 1;
nodes = (
"535 -10 OFFCURVE",
"616 276 OFFCURVE",
"616 481 CURVE SMOOTH",
"616 667 OFFCURVE",
"561 726 OFFCURVE",
"478 726 CURVE SMOOTH",
"386 726 OFFCURVE",
"328 657 OFFCURVE",
"328 555 CURVE SMOOTH",
"328 435 OFFCURVE",
"394 348 OFFCURVE",
"556 348 CURVE SMOOTH",
"627 348 OFFCURVE",
"678 385 OFFCURVE",
"756 469 CURVE",
"754 477 LINE",
"719 425 OFFCURVE",
"659 279 OFFCURVE",
"659 156 CURVE SMOOTH",
"659 30 OFFCURVE",
"724 -9 OFFCURVE",
"815 -9 CURVE SMOOTH",
"845 -9 OFFCURVE",
"867 -3 OFFCURVE",
"894 8 CURVE",
"894 61 LINE",
"877 58 OFFCURVE",
"858 57 OFFCURVE",
"845 57 CURVE SMOOTH",
"779 57 OFFCURVE",
"756 110 OFFCURVE",
"756 156 CURVE SMOOTH",
"756 342 OFFCURVE",
"809 472 OFFCURVE",
"829 518 CURVE",
"771 546 LINE",
"690 453 OFFCURVE",
"639 402 OFFCURVE",
"557 402 CURVE SMOOTH",
"456 402 OFFCURVE",
"439 488 OFFCURVE",
"439 555 CURVE SMOOTH",
"439 633 OFFCURVE",
"460 672 OFFCURVE",
"491 672 CURVE SMOOTH",
"517 672 OFFCURVE",
"556 629 OFFCURVE",
"556 488 CURVE SMOOTH",
"556 279 OFFCURVE",
"501 54 OFFCURVE",
"338 54 CURVE SMOOTH",
"252 54 OFFCURVE",
"230 134 OFFCURVE",
"230 226 CURVE SMOOTH",
"230 605 LINE SMOOTH",
"230 676 OFFCURVE",
"200 726 OFFCURVE",
"132 726 CURVE SMOOTH",
"104 726 OFFCURVE",
"63 711 OFFCURVE",
"25 670 CURVE",
"53 633 LINE",
"81 654 OFFCURVE",
"89 655 OFFCURVE",
"100 655 CURVE SMOOTH",
"121 655 OFFCURVE",
"129 633 OFFCURVE",
"129 597 CURVE SMOOTH",
"129 218 LINE SMOOTH",
"129 72 OFFCURVE",
"184 -10 OFFCURVE",
"334 -10 CURVE SMOOTH"
);
}
);
width = 914;
},
{
layerId = "58AAA307-6DE9-4107-B80A-C255AE991657";
paths = (
{
closed = 1;
nodes = (
"599 -10 OFFCURVE",
"680 282 OFFCURVE",
"680 481 CURVE SMOOTH",
"680 682 OFFCURVE",
"615 726 OFFCURVE",
"515 726 CURVE SMOOTH",
"398 726 OFFCURVE",
"340 651 OFFCURVE",
"340 551 CURVE SMOOTH",
"340 368 OFFCURVE",
"450 336 OFFCURVE",
"605 336 CURVE SMOOTH",
"686 336 OFFCURVE",
"767 374 OFFCURVE",
"824 444 CURVE",
"829 477 LINE",
"794 425 OFFCURVE",
"709 279 OFFCURVE",
"709 156 CURVE SMOOTH",
"709 30 OFFCURVE",
"779 -9 OFFCURVE",
"880 -9 CURVE SMOOTH",
"930 -9 OFFCURVE",
"950 -2 OFFCURVE",
"977 8 CURVE",
"977 67 LINE",
"960 64 OFFCURVE",
"951 63 OFFCURVE",
"938 63 CURVE SMOOTH",
"882 63 OFFCURVE",
"877 110 OFFCURVE",
"877 156 CURVE SMOOTH",
"877 322 OFFCURVE",
"912 472 OFFCURVE",
"924 518 CURVE",
"856 546 LINE",
"775 453 OFFCURVE",
"698 402 OFFCURVE",
"612 402 CURVE SMOOTH",
"524 402 OFFCURVE",
"495 457 OFFCURVE",
"495 551 CURVE SMOOTH",
"495 629 OFFCURVE",
"517 663 OFFCURVE",
"549 663 CURVE SMOOTH",
"581 663 OFFCURVE",
"610 619 OFFCURVE",
"610 488 CURVE SMOOTH",
"610 282 OFFCURVE",
"527 65 OFFCURVE",
"371 65 CURVE SMOOTH",
"293 65 OFFCURVE",
"269 133 OFFCURVE",
"269 193 CURVE SMOOTH",
"268 610 LINE SMOOTH",
"268 693 OFFCURVE",
"219 725 OFFCURVE",
"150 725 CURVE SMOOTH",
"87 725 OFFCURVE",
"41 702 OFFCURVE",
"10 670 CURVE",
"34 631 LINE",
"46 639 OFFCURVE",
"61 650 OFFCURVE",
"78 650 CURVE SMOOTH",
"95 650 OFFCURVE",
"110 643 OFFCURVE",
"110 603 CURVE SMOOTH",
"111 186 LINE SMOOTH",
"111 77 OFFCURVE",
"164 -10 OFFCURVE",
"336 -10 CURVE SMOOTH"
);
}
);
width = 1007;
}
);
leftMetricsKey = "Se-vit";
unicode = 10579;
script = vithkuqi;
category = Letter;
subCategory = Uppercase;
},
{
glyphname = "Ga-vit";
lastChange = "2021-11-04 06:35:00 +0000";
layers = (
{
anchors = (
{
name = topright;
position = "{491, 617}";
}
);
layerId = UUID0;
paths = (
{
closed = 1;
nodes = (
"519 -9 OFFCURVE",
"582 60 OFFCURVE",
"583 158 CURVE SMOOTH",
"584 330 OFFCURVE",
"414 402 OFFCURVE",
"321 441 CURVE SMOOTH",
"202 491 OFFCURVE",
"168 543 OFFCURVE",
"168 595 CURVE SMOOTH",
"168 641 OFFCURVE",
"192 671 OFFCURVE",
"232 671 CURVE SMOOTH",
"278 671 OFFCURVE",
"313 624 OFFCURVE",
"313 546 CURVE SMOOTH",
"313 439 OFFCURVE",
"275 389 OFFCURVE",
"195 389 CURVE SMOOTH",
"119 389 OFFCURVE",
"83 414 OFFCURVE",
"64 432 CURVE",
"35 391 LINE",
"63 361 OFFCURVE",
"111 336 OFFCURVE",
"195 336 CURVE SMOOTH",
"358 336 OFFCURVE",
"424 444 OFFCURVE",
"424 546 CURVE SMOOTH",
"424 662 OFFCURVE",
"347 725 OFFCURVE",
"247 725 CURVE SMOOTH",
"150 725 OFFCURVE",
"108 660 OFFCURVE",
"108 595 CURVE SMOOTH",
"108 531 OFFCURVE",
"133 460 OFFCURVE",
"298 392 CURVE SMOOTH",
"401 350 OFFCURVE",
"523 274 OFFCURVE",
"523 158 CURVE SMOOTH",
"523 100 OFFCURVE",
"491 85 OFFCURVE",
"458 85 CURVE SMOOTH",
"403 85 OFFCURVE",
"226 176 OFFCURVE",
"131 176 CURVE SMOOTH",
"50 176 OFFCURVE",
"30 114 OFFCURVE",
"30 47 CURVE SMOOTH",
"30 27 OFFCURVE",
"34 6 OFFCURVE",
"37 0 CURVE",
"80 0 LINE",
"75 47 OFFCURVE",
"81 83 OFFCURVE",
"123 83 CURVE SMOOTH",
"188 83 OFFCURVE",
"362 -9 OFFCURVE",
"439 -9 CURVE SMOOTH"
);
}
);
width = 603;
},
{
anchors = (
{
name = topright;
position = "{566, 583}";
}
);
layerId = "58AAA307-6DE9-4107-B80A-C255AE991657";
paths = (
{
closed = 1;
nodes = (
"566 -9 OFFCURVE",
"630 38 OFFCURVE",
"627 188 CURVE SMOOTH",
"624 330 OFFCURVE",
"456 418 OFFCURVE",
"361 452 CURVE SMOOTH",
"222 502 OFFCURVE",
"196 547 OFFCURVE",
"196 599 CURVE SMOOTH",
"196 635 OFFCURVE",
"213 661 OFFCURVE",
"253 661 CURVE SMOOTH",
"290 661 OFFCURVE",
"330 635 OFFCURVE",
"330 547 CURVE SMOOTH",
"330 449 OFFCURVE",
"305 389 OFFCURVE",
"215 389 CURVE SMOOTH",
"154 389 OFFCURVE",
"103 414 OFFCURVE",
"84 432 CURVE",
"55 377 LINE",
"88 347 OFFCURVE",
"146 326 OFFCURVE",
"215 326 CURVE SMOOTH",
"392 326 OFFCURVE",
"498 424 OFFCURVE",
"498 547 CURVE SMOOTH",
"498 692 OFFCURVE",
"377 725 OFFCURVE",
"281 725 CURVE SMOOTH",
"168 725 OFFCURVE",
"126 654 OFFCURVE",
"126 599 CURVE SMOOTH",
"126 535 OFFCURVE",
"153 460 OFFCURVE",
"338 392 CURVE SMOOTH",
"443 354 OFFCURVE",
"560 275 OFFCURVE",
"560 191 CURVE SMOOTH",
"560 154 OFFCURVE",
"543 149 OFFCURVE",
"511 149 CURVE SMOOTH",
"453 149 OFFCURVE",
"246 240 OFFCURVE",
"151 240 CURVE SMOOTH",
"69 240 OFFCURVE",
"40 176 OFFCURVE",
"40 76 CURVE SMOOTH",
"40 47 OFFCURVE",
"47 13 OFFCURVE",
"53 0 CURVE",
"108 0 LINE",
"101 60 OFFCURVE",
"108 83 OFFCURVE",
"150 83 CURVE SMOOTH",
"215 83 OFFCURVE",
"407 -9 OFFCURVE",
"492 -9 CURVE SMOOTH"
);
}
);
width = 632;
}
);
unicode = 1057A;
script = vithkuqi;
category = Letter;
subCategory = Uppercase;
},
{
glyphname = "Ha-vit";
lastChange = "2021-11-04 06:35:00 +0000";
layers = (
{
layerId = UUID0;
paths = (
{
closed = 1;
nodes = (
"260 5 CURVE",
"277 -3 OFFCURVE",
"289 -9 OFFCURVE",
"313 -9 CURVE SMOOTH",
"368 -9 OFFCURVE",
"413 39 OFFCURVE",
"413 110 CURVE SMOOTH",
"413 324 OFFCURVE",
"188 395 OFFCURVE",
"188 577 CURVE SMOOTH",
"188 635 OFFCURVE",
"213 672 OFFCURVE",
"261 672 CURVE SMOOTH",
"307 672 OFFCURVE",
"334 644 OFFCURVE",
"334 575 CURVE SMOOTH",
"334 394 OFFCURVE",
"170 168 OFFCURVE",
"50 26 CURVE",
"96 -9 LINE",
"284 209 OFFCURVE",
"393 424 OFFCURVE",
"393 575 CURVE SMOOTH",
"393 689 OFFCURVE",
"336 726 OFFCURVE",
"249 726 CURVE SMOOTH",
"138 726 OFFCURVE",
"82 659 OFFCURVE",
"82 561 CURVE SMOOTH",
"82 361 OFFCURVE",
"307 264 OFFCURVE",
"307 110 CURVE SMOOTH",
"307 58 OFFCURVE",
"292 39 OFFCURVE"
);
}
);
width = 473;
},
{
layerId = "58AAA307-6DE9-4107-B80A-C255AE991657";
paths = (
{
closed = 1;
nodes = (
"292 4 CURVE",
"309 -4 OFFCURVE",
"322 -10 OFFCURVE",
"354 -10 CURVE SMOOTH",
"446 -10 OFFCURVE",
"502 35 OFFCURVE",
"502 109 CURVE SMOOTH",
"502 323 OFFCURVE",
"256 395 OFFCURVE",
"256 575 CURVE SMOOTH",
"256 628 OFFCURVE",
"272 662 OFFCURVE",
"319 662 CURVE SMOOTH",
"366 662 OFFCURVE",
"382 633 OFFCURVE",
"382 564 CURVE SMOOTH",
"382 352 OFFCURVE",
"195 169 OFFCURVE",
"55 37 CURVE",
"104 -9 LINE",
"313 185 OFFCURVE",
"446 395 OFFCURVE",
"452 564 CURVE SMOOTH",
"456 676 OFFCURVE",
"407 726 OFFCURVE",
"289 726 CURVE SMOOTH",
"162 726 OFFCURVE",
"91 661 OFFCURVE",
"91 559 CURVE SMOOTH",
"91 317 OFFCURVE",
"334 233 OFFCURVE",
"334 108 CURVE SMOOTH",
"334 56 OFFCURVE",
"314 26 OFFCURVE"
);
}
);
width = 542;
}
);
unicode = 1057C;
script = vithkuqi;
category = Letter;
subCategory = Uppercase;
},
{
glyphname = "Hha-vit";
lastChange = "2021-11-04 06:35:00 +0000";
layers = (
{
layerId = UUID0;
paths = (
{
closed = 1;
nodes = (
"371 -11 OFFCURVE",
"426 29 OFFCURVE",
"463 92 CURVE",
"499 92 LINE",
"468 263 LINE",
"468 167 OFFCURVE",
"443 55 OFFCURVE",
"304 55 CURVE SMOOTH",
"182 55 OFFCURVE",
"176 178 OFFCURVE",
"176 357 CURVE SMOOTH",
"176 557 OFFCURVE",
"205 669 OFFCURVE",
"293 669 CURVE SMOOTH",
"350 669 OFFCURVE",
"367 641 OFFCURVE",
"367 583 CURVE SMOOTH",
"367 512 OFFCURVE",
"339 471 OFFCURVE",
"297 435 CURVE",
"334 400 LINE",
"403 450 OFFCURVE",
"427 518 OFFCURVE",
"427 583 CURVE SMOOTH",
"427 679 OFFCURVE",
"386 723 OFFCURVE",
"293 723 CURVE SMOOTH",
"130 723 OFFCURVE",
"65 582 OFFCURVE",
"65 357 CURVE SMOOTH",
"65 110 OFFCURVE",
"111 -11 OFFCURVE",
"293 -11 CURVE SMOOTH"
);
},
{
closed = 1;
nodes = (
"574 -240 LINE",
"579 -22 OFFCURVE",
"623 91 OFFCURVE",
"669 188 CURVE",
"652 214 LINE",
"634 197 OFFCURVE",
"610 146 OFFCURVE",
"587 86 CURVE",
"579 86 LINE",
"579 714 LINE",
"468 714 LINE",
"468 146 LINE",
"475 99 LINE",
"471 79 OFFCURVE",
"468 44 OFFCURVE",
"468 -8 CURVE SMOOTH",
"468 -240 LINE"
);
},
{
closed = 1;
nodes = (
"941 -10 OFFCURVE",
"988 52 OFFCURVE",
"988 102 CURVE SMOOTH",
"988 122 OFFCURVE",
"982 134 OFFCURVE",
"964 135 CURVE",
"951 96 OFFCURVE",
"916 56 OFFCURVE",
"848 56 CURVE SMOOTH",
"745 56 OFFCURVE",
"739 179 OFFCURVE",
"739 358 CURVE SMOOTH",
"739 558 OFFCURVE",
"769 670 OFFCURVE",
"848 670 CURVE SMOOTH",
"889 670 OFFCURVE",
"910 640 OFFCURVE",
"910 542 CURVE",
"964 536 OFFCURVE",
"990 569 OFFCURVE",
"990 612 CURVE SMOOTH",
"990 676 OFFCURVE",
"944 724 OFFCURVE",
"849 724 CURVE SMOOTH",
"694 724 OFFCURVE",
"628 583 OFFCURVE",
"628 358 CURVE SMOOTH",
"628 111 OFFCURVE",
"674 -10 OFFCURVE",
"837 -10 CURVE SMOOTH"
);
}
);
width = 1030;
},
{
layerId = "58AAA307-6DE9-4107-B80A-C255AE991657";
paths = (
{
closed = 1;
nodes = (
"376 -10 OFFCURVE",
"419 13 OFFCURVE",
"451 89 CURVE",
"490 89 LINE",
"463 254 LINE",
"463 111 OFFCURVE",
"369 70 OFFCURVE",
"328 70 CURVE SMOOTH",
"238 70 OFFCURVE",
"223 165 OFFCURVE",
"223 358 CURVE SMOOTH",
"223 583 OFFCURVE",
"244 660 OFFCURVE",
"307 660 CURVE SMOOTH",
"338 660 OFFCURVE",
"364 643 OFFCURVE",
"364 599 CURVE SMOOTH",
"364 540 OFFCURVE",
"342 498 OFFCURVE",
"289 458 CURVE",
"336 409 LINE",
"388 442 OFFCURVE",
"434 511 OFFCURVE",
"434 603 CURVE SMOOTH",
"434 677 OFFCURVE",
"390 724 OFFCURVE",
"301 724 CURVE SMOOTH",
"112 724 OFFCURVE",
"55 605 OFFCURVE",
"55 358 CURVE SMOOTH",
"55 91 OFFCURVE",
"110 -10 OFFCURVE",
"279 -10 CURVE SMOOTH"
);
},
{
closed = 1;
nodes = (
"621 -240 LINE",
"626 -22 OFFCURVE",
"660 91 OFFCURVE",
"706 188 CURVE",
"689 234 LINE",
"671 217 OFFCURVE",
"657 166 OFFCURVE",
"634 106 CURVE",
"626 106 LINE",
"626 714 LINE",
"463 714 LINE",
"463 146 LINE",
"470 99 LINE",
"466 79 OFFCURVE",
"463 44 OFFCURVE",
"463 -8 CURVE SMOOTH",
"463 -240 LINE"
);
},
{
closed = 1;
nodes = (
"1005 -10 OFFCURVE",
"1060 66 OFFCURVE",
"1060 122 CURVE SMOOTH",
"1060 139 OFFCURVE",
"1053 157 OFFCURVE",
"1043 165 CURVE",
"1009 101 OFFCURVE",
"955 70 OFFCURVE",
"914 70 CURVE SMOOTH",
"840 70 OFFCURVE",
"829 165 OFFCURVE",
"829 358 CURVE SMOOTH",
"829 551 OFFCURVE",
"829 660 OFFCURVE",
"887 660 CURVE SMOOTH",
"930 660 OFFCURVE",
"936 587 OFFCURVE",
"936 521 CURVE",
"1017 521 OFFCURVE",
"1061 558 OFFCURVE",
"1061 608 CURVE SMOOTH",
"1061 673 OFFCURVE",
"986 724 OFFCURVE",
"889 724 CURVE SMOOTH",
"714 724 OFFCURVE",
"661 605 OFFCURVE",
"661 358 CURVE SMOOTH",
"661 137 OFFCURVE",
"714 -10 OFFCURVE",
"890 -10 CURVE SMOOTH"
);
}
);
width = 1101;
}
);
leftKerningGroup = "Ka-vit";
unicode = 1057D;
script = vithkuqi;
category = Letter;
subCategory = Uppercase;
},
{
glyphname = "I-vit";
lastChange = "2021-11-04 06:35:00 +0000";
layers = (
{
anchors = (
{
name = top;
position = "{284, 714}";
}
);
layerId = UUID0;
paths = (
{
closed = 1;
nodes = (
"419 -10 OFFCURVE",
"527 73 OFFCURVE",
"527 206 CURVE SMOOTH",
"527 437 OFFCURVE",
"338 485 OFFCURVE",
"301 714 CURVE",
"265 714 LINE",
"231 530 OFFCURVE",
"125 433 OFFCURVE",
"10 385 CURVE",
"30 340 LINE",
"129 379 OFFCURVE",
"238 447 OFFCURVE",
"277 591 CURVE",
"258 585 LINE",
"298 424 OFFCURVE",
"416 385 OFFCURVE",
"416 206 CURVE SMOOTH",
"416 88 OFFCURVE",
"361 43 OFFCURVE",
"278 43 CURVE SMOOTH",
"183 43 OFFCURVE",
"141 110 OFFCURVE",
"141 172 CURVE",
"92 172 OFFCURVE",
"54 145 OFFCURVE",
"54 102 CURVE SMOOTH",
"54 38 OFFCURVE",
"132 -10 OFFCURVE",
"276 -10 CURVE SMOOTH"
);
}
);
width = 587;
},
{
anchors = (
{
name = top;
position = "{310, 714}";
}
);
layerId = "58AAA307-6DE9-4107-B80A-C255AE991657";
paths = (
{
closed = 1;
nodes = (
"469 -10 OFFCURVE",
"585 53 OFFCURVE",
"585 206 CURVE SMOOTH",
"585 437 OFFCURVE",
"388 485 OFFCURVE",
"341 714 CURVE",
"285 714 LINE",
"249 530 OFFCURVE",
"135 433 OFFCURVE",
"20 385 CURVE",
"49 330 LINE",
"148 369 OFFCURVE",
"268 447 OFFCURVE",
"307 591 CURVE",
"260 536 LINE",
"300 375 OFFCURVE",
"417 345 OFFCURVE",
"417 206 CURVE SMOOTH",
"417 98 OFFCURVE",
"381 54 OFFCURVE",
"308 54 CURVE SMOOTH",
"215 54 OFFCURVE",
"180 127 OFFCURVE",
"180 193 CURVE",
"79 193 OFFCURVE",
"55 156 OFFCURVE",
"55 106 CURVE SMOOTH",
"55 42 OFFCURVE",
"135 -10 OFFCURVE",
"306 -10 CURVE SMOOTH"
);
}
);
width = 620;
}
);
rightKerningGroup = "I-vit";
unicode = 1057E;
script = vithkuqi;
category = Letter;
subCategory = Uppercase;
},
{
glyphname = "Ije-vit";
lastChange = "2021-11-04 06:35:00 +0000";
layers = (
{
anchors = (
{
name = _top;
position = "{284, 714}";
},
{
name = top;
position = "{284, 1029}";
}
);
components = (
{
name = "I-vit";
}
);
layerId = UUID0;
paths = (
{
closed = 1;
nodes = (
"332 744 OFFCURVE",
"363 771 OFFCURVE",
"363 813 CURVE SMOOTH",
"363 853 OFFCURVE",
"335 864 OFFCURVE",
"301 873 CURVE SMOOTH",
"275 879 OFFCURVE",
"271 890 OFFCURVE",
"271 901 CURVE SMOOTH",
"271 915 OFFCURVE",
"283 922 OFFCURVE",
"301 922 CURVE SMOOTH",
"319 922 OFFCURVE",
"332 916 OFFCURVE",
"343 903 CURVE",
"350 911 OFFCURVE",
"353 925 OFFCURVE",
"353 933 CURVE SMOOTH",
"353 962 OFFCURVE",
"326 972 OFFCURVE",
"293 972 CURVE SMOOTH",
"255 972 OFFCURVE",
"222 948 OFFCURVE",
"222 909 CURVE SMOOTH",
"222 874 OFFCURVE",
"247 857 OFFCURVE",
"276 849 CURVE SMOOTH",
"299 843 OFFCURVE",
"313 836 OFFCURVE",
"313 819 CURVE SMOOTH",
"313 803 OFFCURVE",
"301 794 OFFCURVE",
"284 794 CURVE SMOOTH",
"262 794 OFFCURVE",
"239 804 OFFCURVE",
"223 819 CURVE",
"218 811 OFFCURVE",
"216 797 OFFCURVE",
"216 791 CURVE SMOOTH",
"216 760 OFFCURVE",
"249 744 OFFCURVE",
"284 744 CURVE SMOOTH"
);
}
);
width = 587;
},
{
anchors = (
{
name = _top;
position = "{310, 714}";
},
{
name = top;
position = "{310, 1031}";
}
);
components = (
{
name = "I-vit";
}
);
layerId = "58AAA307-6DE9-4107-B80A-C255AE991657";
paths = (
{
closed = 1;
nodes = (
"360 742 OFFCURVE",
"393 765 OFFCURVE",
"393 811 CURVE SMOOTH",
"393 852 OFFCURVE",
"363 869 OFFCURVE",
"324 876 CURVE SMOOTH",
"298 881 OFFCURVE",
"294 884 OFFCURVE",
"294 895 CURVE SMOOTH",
"294 905 OFFCURVE",
"301 910 OFFCURVE",
"319 910 CURVE SMOOTH",
"340 910 OFFCURVE",
"359 905 OFFCURVE",
"375 891 CURVE",
"383 903 OFFCURVE",
"385 912 OFFCURVE",
"385 926 CURVE SMOOTH",
"385 955 OFFCURVE",
"357 970 OFFCURVE",
"317 970 CURVE SMOOTH",
"266 970 OFFCURVE",
"235 947 OFFCURVE",
"235 907 CURVE SMOOTH",
"235 871 OFFCURVE",
"256 852 OFFCURVE",
"299 843 CURVE SMOOTH",
"322 838 OFFCURVE",
"336 834 OFFCURVE",
"336 819 CURVE SMOOTH",
"336 806 OFFCURVE",
"324 802 OFFCURVE",
"307 802 CURVE SMOOTH",
"285 802 OFFCURVE",
"252 812 OFFCURVE",
"236 827 CURVE",
"231 819 OFFCURVE",
"229 805 OFFCURVE",
"229 799 CURVE SMOOTH",
"229 758 OFFCURVE",
"262 742 OFFCURVE",
"307 742 CURVE SMOOTH"
);
}
);
width = 620;
}
);
leftMetricsKey = "I-vit";
rightKerningGroup = "I-vit";
rightMetricsKey = "I-vit";
unicode = 1057F;
script = vithkuqi;
category = Letter;
subCategory = Uppercase;
},
{
glyphname = "Je-vit";
lastChange = "2021-11-04 06:35:00 +0000";
layers = (
{
components = (
{
name = "Bbe-vit";
transform = "{1, 0, 0, 1, 9, 0}";
}
);
layerId = UUID0;
paths = (
{
closed = 1;
nodes = (
"30 486 LINE",
"353 486 LINE",
"353 536 LINE",
"30 536 LINE"
);
}
);
width = 613;
},
{
components = (
{
name = "Bbe-vit";
}
);
layerId = "58AAA307-6DE9-4107-B80A-C255AE991657";
paths = (
{
closed = 1;
nodes = (
"53 476 LINE",
"376 476 LINE",
"376 536 LINE",
"53 536 LINE"
);
}
);
width = 657;
}
);
leftKerningGroup = "Bbe-vit";
leftMetricsKey = "Bbe-vit";
rightKerningGroup = "Bbe-vit";
rightMetricsKey = "Bbe-vit";
unicode = 10580;
script = vithkuqi;
category = Letter;
subCategory = Uppercase;
},
{
glyphname = "Ka-vit";
lastChange = "2021-11-04 06:35:00 +0000";
layers = (
{
anchors = (
{
name = topright;
position = "{754, 714}";
}
);
layerId = UUID0;
paths = (
{
closed = 1;
nodes = (
"599 -8 OFFCURVE",
"662 195 OFFCURVE",
"662 274 CURVE SMOOTH",
"662 375 OFFCURVE",
"617 429 OFFCURVE",
"533 429 CURVE SMOOTH",
"422 429 OFFCURVE",
"381 353 OFFCURVE",
"381 253 CURVE SMOOTH",
"381 125 OFFCURVE",
"468 -7 OFFCURVE",
"645 -7 CURVE SMOOTH",
"685 -7 OFFCURVE",
"744 1 OFFCURVE",
"744 54 CURVE SMOOTH",
"744 65 OFFCURVE",
"743 74 OFFCURVE",
"733 85 CURVE",
"712 73 OFFCURVE",
"692 57 OFFCURVE",
"645 57 CURVE SMOOTH",
"529 57 OFFCURVE",
"492 159 OFFCURVE",
"492 253 CURVE SMOOTH",
"492 324 OFFCURVE",
"515 363 OFFCURVE",
"550 363 CURVE SMOOTH",
"580 363 OFFCURVE",
"601 335 OFFCURVE",
"601 272 CURVE SMOOTH",
"601 169 OFFCURVE",
"533 47 OFFCURVE",
"382 47 CURVE SMOOTH",
"241 47 OFFCURVE",
"185 167 OFFCURVE",
"185 355 CURVE SMOOTH",
"185 551 OFFCURVE",
"228 672 OFFCURVE",
"356 672 CURVE SMOOTH",
"423 672 OFFCURVE",
"474 640 OFFCURVE",
"474 577 CURVE SMOOTH",
"474 521 OFFCURVE",
"448 481 OFFCURVE",
"386 481 CURVE SMOOTH",
"330 481 OFFCURVE",
"301 531 OFFCURVE",
"293 544 CURVE",
"273 534 OFFCURVE",
"262 521 OFFCURVE",
"260 490 CURVE SMOOTH",
"259 449 OFFCURVE",
"301 416 OFFCURVE",
"386 416 CURVE SMOOTH",
"460 416 OFFCURVE",
"534 474 OFFCURVE",
"534 572 CURVE SMOOTH",
"534 671 OFFCURVE",
"473 726 OFFCURVE",
"357 726 CURVE SMOOTH",
"193 726 OFFCURVE",
"75 612 OFFCURVE",
"75 357 CURVE SMOOTH",
"75 102 OFFCURVE",
"179 -12 OFFCURVE",
"364 -10 CURVE SMOOTH"
);
}
);
width = 774;
},
{
anchors = (
{
name = topright;
position = "{775, 714}";
}
);
layerId = "58AAA307-6DE9-4107-B80A-C255AE991657";
paths = (
{
closed = 1;
nodes = (
"605 -10 OFFCURVE",
"709 158 OFFCURVE",
"709 275 CURVE SMOOTH",
"709 377 OFFCURVE",
"670 432 OFFCURVE",
"555 432 CURVE SMOOTH",
"426 432 OFFCURVE",
"372 362 OFFCURVE",
"372 254 CURVE SMOOTH",
"372 85 OFFCURVE",
"507 -9 OFFCURVE",
"686 -9 CURVE SMOOTH",
"728 -9 OFFCURVE",
"790 2 OFFCURVE",
"790 44 CURVE SMOOTH",
"790 61 OFFCURVE",
"789 70 OFFCURVE",
"778 89 CURVE",
"756 68 OFFCURVE",
"726 61 OFFCURVE",
"686 61 CURVE SMOOTH",
"588 61 OFFCURVE",
"539 150 OFFCURVE",
"539 254 CURVE SMOOTH",
"539 319 OFFCURVE",
"553 363 OFFCURVE",
"590 363 CURVE SMOOTH",
"626 363 OFFCURVE",
"639 332 OFFCURVE",
"639 275 CURVE SMOOTH",
"639 162 OFFCURVE",
"543 70 OFFCURVE",
"413 70 CURVE SMOOTH",
"287 70 OFFCURVE",
"243 143 OFFCURVE",
"243 356 CURVE SMOOTH",
"243 551 OFFCURVE",
"280 661 OFFCURVE",
"389 661 CURVE SMOOTH",
"446 661 OFFCURVE",
"475 631 OFFCURVE",
"475 589 CURVE SMOOTH",
"475 532 OFFCURVE",
"443 507 OFFCURVE",
"400 507 CURVE SMOOTH",
"343 507 OFFCURVE",
"317 533 OFFCURVE",
"310 544 CURVE",
"295 538 OFFCURVE",
"284 513 OFFCURVE",
"284 491 CURVE SMOOTH",
"284 447 OFFCURVE",
"320 420 OFFCURVE",
"400 420 CURVE SMOOTH",
"474 420 OFFCURVE",
"555 473 OFFCURVE",
"555 584 CURVE SMOOTH",
"555 672 OFFCURVE",
"496 726 OFFCURVE",
"389 726 CURVE SMOOTH",
"201 726 OFFCURVE",
"75 585 OFFCURVE",
"75 357 CURVE SMOOTH",
"75 82 OFFCURVE",
"188 -10 OFFCURVE",
"381 -10 CURVE SMOOTH"
);
}
);
width = 795;
}
);
leftKerningGroup = "Ka-vit";
rightKerningGroup = "Ka-vit";
unicode = 10581;
script = vithkuqi;
category = Letter;
subCategory = Uppercase;
},
{
glyphname = "La-vit";
lastChange = "2021-11-04 06:35:00 +0000";
layers = (
{
layerId = UUID0;
paths = (
{
closed = 1;
nodes = (
"392 115 OFFCURVE",
"477 197 OFFCURVE",
"477 451 CURVE SMOOTH",
"477 542 OFFCURVE",
"460 620 OFFCURVE",
"460 704 CURVE SMOOTH",
"460 767 OFFCURVE",
"480 802 OFFCURVE",
"513 802 CURVE SMOOTH",
"532 802 OFFCURVE",
"544 790 OFFCURVE",
"544 772 CURVE SMOOTH",
"544 738 OFFCURVE",
"502 716 OFFCURVE",
"455 716 CURVE SMOOTH",
"360 716 OFFCURVE",
"255 856 OFFCURVE",
"147 856 CURVE SMOOTH",
"103 856 OFFCURVE",
"74 832 OFFCURVE",
"74 784 CURVE SMOOTH",
"74 762 OFFCURVE",
"83 745 OFFCURVE",
"98 736 CURVE",
"112 761 OFFCURVE",
"128 765 OFFCURVE",
"141 765 CURVE SMOOTH",
"245 765 OFFCURVE",
"310 664 OFFCURVE",
"453 663 CURVE SMOOTH",
"538 662 OFFCURVE",
"603 706 OFFCURVE",
"604 772 CURVE SMOOTH",
"605 825 OFFCURVE",
"572 856 OFFCURVE",
"514 856 CURVE SMOOTH",
"437 856 OFFCURVE",
"400 791 OFFCURVE",
"400 706 CURVE SMOOTH",
"400 634 OFFCURVE",
"417 532 OFFCURVE",
"417 451 CURVE SMOOTH",
"417 260 OFFCURVE",
"370 182 OFFCURVE",
"283 82 CURVE",
"304 82 LINE",
"305 439 OFFCURVE",
"289 692 OFFCURVE",
"124 692 CURVE SMOOTH",
"73 692 OFFCURVE",
"36 668 OFFCURVE",
"0 632 CURVE",
"28 598 LINE",
"41 607 OFFCURVE",
"57 618 OFFCURVE",
"77 618 CURVE SMOOTH",
"190 618 OFFCURVE",
"215 464 OFFCURVE",
"214 2 CURVE",
"273 -9 LINE"
);
}
);
width = 634;
},
{
layerId = "58AAA307-6DE9-4107-B80A-C255AE991657";
paths = (
{
closed = 1;
nodes = (
"416 115 OFFCURVE",
"521 197 OFFCURVE",
"521 451 CURVE SMOOTH",
"521 542 OFFCURVE",
"505 620 OFFCURVE",
"505 706 CURVE SMOOTH",
"505 756 OFFCURVE",
"521 791 OFFCURVE",
"554 791 CURVE SMOOTH",
"573 791 OFFCURVE",
"585 779 OFFCURVE",
"585 761 CURVE SMOOTH",
"585 727 OFFCURVE",
"544 713 OFFCURVE",
"496 715 CURVE SMOOTH",
"435 717 OFFCURVE",
"308 855 OFFCURVE",
"182 855 CURVE SMOOTH",
"132 855 OFFCURVE",
"89 829 OFFCURVE",
"89 764 CURVE SMOOTH",
"89 719 OFFCURVE",
"119 689 OFFCURVE",
"136 679 CURVE",
"150 701 OFFCURVE",
"165 712 OFFCURVE",
"190 712 CURVE SMOOTH",
"274 712 OFFCURVE",
"351 653 OFFCURVE",
"494 652 CURVE SMOOTH",
"579 651 OFFCURVE",
"654 685 OFFCURVE",
"655 764 CURVE SMOOTH",
"656 821 OFFCURVE",
"623 855 OFFCURVE",
"555 855 CURVE SMOOTH",
"478 855 OFFCURVE",
"435 791 OFFCURVE",
"435 718 CURVE SMOOTH",
"435 643 OFFCURVE",
"451 532 OFFCURVE",
"451 451 CURVE SMOOTH",
"451 260 OFFCURVE",
"394 182 OFFCURVE",
"307 82 CURVE",
"338 82 LINE",
"339 463 OFFCURVE",
"363 666 OFFCURVE",
"168 666 CURVE SMOOTH",
"98 666 OFFCURVE",
"57 642 OFFCURVE",
"10 606 CURVE",
"42 562 LINE",
"55 571 OFFCURVE",
"71 582 OFFCURVE",
"91 582 CURVE SMOOTH",
"165 582 OFFCURVE",
"179 418 OFFCURVE",
"178 2 CURVE",
"307 -9 LINE"
);
}
);
width = 640;
}
);
leftKerningGroup = "Lla-vit";
unicode = 10582;
script = vithkuqi;
category = Letter;
subCategory = Uppercase;
},
{
glyphname = "Lla-vit";
lastChange = "2021-11-04 06:35:00 +0000";
layers = (
{
layerId = UUID0;
paths = (
{
closed = 1;
nodes = (
"392 115 OFFCURVE",
"477 197 OFFCURVE",
"477 451 CURVE SMOOTH",
"477 542 OFFCURVE",
"461 630 OFFCURVE",
"461 706 CURVE SMOOTH",
"461 747 OFFCURVE",
"482 764 OFFCURVE",
"511 764 CURVE SMOOTH",
"545 764 OFFCURVE",
"564 729 OFFCURVE",
"582 695 CURVE",
"608 704 OFFCURVE",
"626 734 OFFCURVE",
"626 767 CURVE SMOOTH",
"626 810 OFFCURVE",
"595 854 OFFCURVE",
"521 854 CURVE SMOOTH",
"446 854 OFFCURVE",
"401 802 OFFCURVE",
"401 706 CURVE SMOOTH",
"401 643 OFFCURVE",
"417 532 OFFCURVE",
"417 451 CURVE SMOOTH",
"417 260 OFFCURVE",
"370 182 OFFCURVE",
"283 82 CURVE",
"309 82 LINE",
"317 523 OFFCURVE",
"302 726 OFFCURVE",
"124 726 CURVE SMOOTH",
"73 726 OFFCURVE",
"36 702 OFFCURVE",
"0 666 CURVE",
"28 632 LINE",
"41 641 OFFCURVE",
"57 652 OFFCURVE",
"77 652 CURVE SMOOTH",
"196 652 OFFCURVE",
"210 478 OFFCURVE",
"209 2 CURVE",
"273 -9 LINE"
);
}
);
width = 636;
},
{
layerId = "58AAA307-6DE9-4107-B80A-C255AE991657";
paths = (
{
closed = 1;
nodes = (
"436 115 OFFCURVE",
"541 197 OFFCURVE",
"541 451 CURVE SMOOTH",
"541 542 OFFCURVE",
"525 620 OFFCURVE",
"525 696 CURVE SMOOTH",
"525 737 OFFCURVE",
"546 754 OFFCURVE",
"575 754 CURVE SMOOTH",
"609 754 OFFCURVE",
"628 729 OFFCURVE",
"646 705 CURVE",
"672 714 OFFCURVE",
"690 744 OFFCURVE",
"690 777 CURVE SMOOTH",
"690 810 OFFCURVE",
"662 854 OFFCURVE",
"583 854 CURVE SMOOTH",
"503 854 OFFCURVE",
"455 802 OFFCURVE",
"455 706 CURVE SMOOTH",
"455 643 OFFCURVE",
"471 532 OFFCURVE",
"471 451 CURVE SMOOTH",
"471 260 OFFCURVE",
"414 182 OFFCURVE",
"327 82 CURVE",
"353 82 LINE",
"354 513 OFFCURVE",
"339 726 OFFCURVE",
"158 726 CURVE SMOOTH",
"98 726 OFFCURVE",
"57 702 OFFCURVE",
"10 666 CURVE",
"42 622 LINE",
"55 631 OFFCURVE",
"71 642 OFFCURVE",
"91 642 CURVE SMOOTH",
"165 642 OFFCURVE",
"199 448 OFFCURVE",
"198 2 CURVE",
"327 -9 LINE"
);
}
);
width = 665;
}
);
leftKerningGroup = "Lla-vit";
leftMetricsKey = "La-vit";
rightKerningGroup = "Lla-vit";
unicode = 10583;
script = vithkuqi;
category = Letter;
subCategory = Uppercase;
},
{
glyphname = "Me-vit";
lastChange = "2021-11-04 06:35:00 +0000";
layers = (
{
layerId = UUID0;
paths = (
{
closed = 1;
nodes = (
"430 -10 OFFCURVE",
"543 98 OFFCURVE",
"543 372 CURVE SMOOTH",
"543 600 OFFCURVE",
"438 724 OFFCURVE",
"219 724 CURVE SMOOTH",
"125 724 OFFCURVE",
"49 676 OFFCURVE",
"48 586 CURVE SMOOTH",
"47 525 OFFCURVE",
"84 497 OFFCURVE",
"131 497 CURVE SMOOTH",
"185 497 OFFCURVE",
"231 540 OFFCURVE",
"231 611 CURVE SMOOTH",
"231 732 LINE SMOOTH",
"231 787 OFFCURVE",
"266 802 OFFCURVE",
"296 802 CURVE SMOOTH",
"339 802 OFFCURVE",
"364 769 OFFCURVE",
"387 720 CURVE",
"436 731 OFFCURVE",
"451 759 OFFCURVE",
"451 784 CURVE SMOOTH",
"451 829 OFFCURVE",
"401 856 OFFCURVE",
"312 855 CURVE SMOOTH",
"228 854 OFFCURVE",
"171 813 OFFCURVE",
"171 732 CURVE SMOOTH",
"171 620 LINE SMOOTH",
"171 577 OFFCURVE",
"155 551 OFFCURVE",
"131 551 CURVE SMOOTH",
"115 551 OFFCURVE",
"108 564 OFFCURVE",
"108 586 CURVE SMOOTH",
"108 636 OFFCURVE",
"144 670 OFFCURVE",
"215 670 CURVE SMOOTH",
"371 670 OFFCURVE",
"432 541 OFFCURVE",
"432 372 CURVE SMOOTH",
"432 162 OFFCURVE",
"385 43 OFFCURVE",
"252 43 CURVE SMOOTH",
"147 43 OFFCURVE",
"117 110 OFFCURVE",
"117 172 CURVE",
"68 172 OFFCURVE",
"30 145 OFFCURVE",
"30 102 CURVE SMOOTH",
"30 38 OFFCURVE",
"96 -10 OFFCURVE",
"250 -10 CURVE SMOOTH"
);
}
);
width = 603;
},
{
layerId = "58AAA307-6DE9-4107-B80A-C255AE991657";
paths = (
{
closed = 1;
nodes = (
"485 -10 OFFCURVE",
"603 140 OFFCURVE",
"603 356 CURVE SMOOTH",
"603 577 OFFCURVE",
"489 726 OFFCURVE",
"257 726 CURVE SMOOTH",
"151 726 OFFCURVE",
"74 667 OFFCURVE",
"74 577 CURVE SMOOTH",
"74 524 OFFCURVE",
"105 481 OFFCURVE",
"172 481 CURVE SMOOTH",
"231 481 OFFCURVE",
"267 517 OFFCURVE",
"267 575 CURVE SMOOTH",
"267 695 LINE SMOOTH",
"267 761 OFFCURVE",
"297 793 OFFCURVE",
"333 793 CURVE SMOOTH",
"366 793 OFFCURVE",
"400 776 OFFCURVE",
"424 723 CURVE",
"473 722 OFFCURVE",
"498 740 OFFCURVE",
"498 773 CURVE SMOOTH",
"498 828 OFFCURVE",
"445 855 OFFCURVE",
"350 855 CURVE SMOOTH",
"260 855 OFFCURVE",
"197 803 OFFCURVE",
"197 703 CURVE SMOOTH",
"197 577 LINE SMOOTH",
"197 554 OFFCURVE",
"184 546 OFFCURVE",
"172 546 CURVE SMOOTH",
"154 546 OFFCURVE",
"144 556 OFFCURVE",
"144 577 CURVE SMOOTH",
"144 629 OFFCURVE",
"183 661 OFFCURVE",
"233 661 CURVE SMOOTH",
"381 661 OFFCURVE",
"435 549 OFFCURVE",
"435 356 CURVE SMOOTH",
"435 163 OFFCURVE",
"392 54 OFFCURVE",
"265 54 CURVE SMOOTH",
"182 54 OFFCURVE",
"155 127 OFFCURVE",
"155 193 CURVE",
"74 193 OFFCURVE",
"30 156 OFFCURVE",
"30 106 CURVE SMOOTH",
"30 41 OFFCURVE",
"105 -10 OFFCURVE",
"258 -10 CURVE SMOOTH"
);
}
);
width = 668;
}
);
unicode = 10584;
script = vithkuqi;
category = Letter;
subCategory = Uppercase;
},
{
glyphname = "Ne-vit";
lastChange = "2021-11-04 06:35:00 +0000";
layers = (
{
layerId = UUID0;
paths = (
{
closed = 1;
nodes = (
"458 -253 OFFCURVE",
"476 -252 OFFCURVE",
"495 -250 CURVE",
"495 -201 LINE",
"490 -201 OFFCURVE",
"486 -201 OFFCURVE",
"481 -201 CURVE SMOOTH",
"407 -201 OFFCURVE",
"394 -167 OFFCURVE",
"394 -107 CURVE SMOOTH",
"394 148 LINE SMOOTH",
"394 187 OFFCURVE",
"381 208 OFFCURVE",
"334 208 CURVE SMOOTH",
"287 208 LINE SMOOTH",
"224 208 OFFCURVE",
"196 312 OFFCURVE",
"196 457 CURVE SMOOTH",
"196 607 OFFCURVE",
"216 672 OFFCURVE",
"273 672 CURVE SMOOTH",
"314 672 OFFCURVE",
"332 638 OFFCURVE",
"332 572 CURVE SMOOTH",
"332 419 OFFCURVE",
"232 270 OFFCURVE",
"40 144 CURVE",
"76 100 LINE",
"291 239 OFFCURVE",
"392 416 OFFCURVE",
"392 572 CURVE SMOOTH",
"392 697 OFFCURVE",
"333 726 OFFCURVE",
"262 726 CURVE SMOOTH",
"142 726 OFFCURVE",
"85 626 OFFCURVE",
"85 457 CURVE SMOOTH",
"85 267 OFFCURVE",
"125 158 OFFCURVE",
"248 158 CURVE SMOOTH",
"278 158 LINE SMOOTH",
"286 158 OFFCURVE",
"293 151 OFFCURVE",
"293 143 CURVE SMOOTH",
"293 -112 LINE SMOOTH",
"293 -205 OFFCURVE",
"327 -253 OFFCURVE",
"443 -253 CURVE SMOOTH"
);
}
);
width = 500;
},
{
layerId = "58AAA307-6DE9-4107-B80A-C255AE991657";
paths = (
{
closed = 1;
nodes = (
"522 -256 OFFCURVE",
"539 -254 OFFCURVE",
"547 -253 CURVE",
"547 -194 LINE",
"544 -194 OFFCURVE",
"541 -194 OFFCURVE",
"535 -194 CURVE SMOOTH",
"495 -194 OFFCURVE",
"477 -167 OFFCURVE",
"477 -109 CURVE SMOOTH",
"477 148 LINE SMOOTH",
"477 200 OFFCURVE",
"460 226 OFFCURVE",
"417 226 CURVE SMOOTH",
"328 225 LINE SMOOTH",
"265 224 OFFCURVE",
"254 312 OFFCURVE",
"254 447 CURVE SMOOTH",
"254 607 OFFCURVE",
"280 661 OFFCURVE",
"322 661 CURVE SMOOTH",
"352 661 OFFCURVE",
"371 638 OFFCURVE",
"371 572 CURVE SMOOTH",
"371 405 OFFCURVE",
"273 263 OFFCURVE",
"45 131 CURVE",
"81 77 LINE",
"352 229 OFFCURVE",
"441 386 OFFCURVE",
"441 572 CURVE SMOOTH",
"441 694 OFFCURVE",
"376 726 OFFCURVE",
"294 726 CURVE SMOOTH",
"151 726 OFFCURVE",
"88 626 OFFCURVE",
"88 447 CURVE SMOOTH",
"88 237 OFFCURVE",
"137 158 OFFCURVE",
"260 158 CURVE SMOOTH",
"307 158 LINE SMOOTH",
"315 158 OFFCURVE",
"322 151 OFFCURVE",
"322 143 CURVE SMOOTH",
"322 -126 LINE SMOOTH",
"322 -208 OFFCURVE",
"389 -256 OFFCURVE",
"495 -256 CURVE SMOOTH"
);
}
);
width = 542;
}
);
rightKerningGroup = "Bbe-vit";
unicode = 10585;
script = vithkuqi;
category = Letter;
subCategory = Uppercase;
},
{
glyphname = "Nje-vit";
lastChange = "2021-11-04 06:35:00 +0000";
layers = (
{
layerId = UUID0;
paths = (
{
closed = 1;
nodes = (
"379 -10 OFFCURVE",
"441 72 OFFCURVE",
"441 273 CURVE SMOOTH",
"441 536 OFFCURVE",
"366 721 OFFCURVE",
"175 721 CURVE SMOOTH",
"116 721 OFFCURVE",
"57 697 OFFCURVE",
"15 660 CURVE",
"41 620 LINE",
"63 635 OFFCURVE",
"107 663 OFFCURVE",
"171 661 CURVE SMOOTH",
"294 658 OFFCURVE",
"330 521 OFFCURVE",
"330 274 CURVE SMOOTH",
"330 109 OFFCURVE",
"292 44 OFFCURVE",
"250 44 CURVE SMOOTH",
"209 44 OFFCURVE",
"165 111 OFFCURVE",
"165 240 CURVE SMOOTH",
"165 556 OFFCURVE",
"298 658 OFFCURVE",
"444 660 CURVE SMOOTH",
"542 661 OFFCURVE",
"589 610 OFFCURVE",
"589 507 CURVE SMOOTH",
"589 -69 LINE SMOOTH",
"589 -192 OFFCURVE",
"628 -256 OFFCURVE",
"743 -256 CURVE SMOOTH",
"762 -256 OFFCURVE",
"776 -255 OFFCURVE",
"802 -252 CURVE",
"802 -202 LINE",
"783 -202 LINE SMOOTH",
"711 -202 OFFCURVE",
"700 -142 OFFCURVE",
"700 -62 CURVE SMOOTH",
"700 517 LINE SMOOTH",
"700 673 OFFCURVE",
"617 725 OFFCURVE",
"470 725 CURVE SMOOTH",
"244 725 OFFCURVE",
"105 537 OFFCURVE",
"105 237 CURVE SMOOTH",
"105 58 OFFCURVE",
"171 -10 OFFCURVE",
"260 -10 CURVE SMOOTH"
);
}
);
width = 827;
},
{
layerId = "58AAA307-6DE9-4107-B80A-C255AE991657";
paths = (
{
closed = 1;
nodes = (
"410 -10 OFFCURVE",
"474 72 OFFCURVE",
"474 286 CURVE SMOOTH",
"474 536 OFFCURVE",
"394 721 OFFCURVE",
"172 721 CURVE SMOOTH",
"113 721 OFFCURVE",
"47 697 OFFCURVE",
"5 660 CURVE",
"38 610 LINE",
"60 625 OFFCURVE",
"104 651 OFFCURVE",
"168 651 CURVE SMOOTH",
"276 651 OFFCURVE",
"306 521 OFFCURVE",
"306 287 CURVE SMOOTH",
"306 109 OFFCURVE",
"285 55 OFFCURVE",
"243 55 CURVE SMOOTH",
"202 55 OFFCURVE",
"174 111 OFFCURVE",
"174 240 CURVE SMOOTH",
"174 536 OFFCURVE",
"302 658 OFFCURVE",
"448 660 CURVE SMOOTH",
"546 661 OFFCURVE",
"578 610 OFFCURVE",
"578 507 CURVE SMOOTH",
"578 -115 LINE SMOOTH",
"578 -207 OFFCURVE",
"621 -256 OFFCURVE",
"738 -256 CURVE SMOOTH",
"757 -256 OFFCURVE",
"789 -255 OFFCURVE",
"808 -253 CURVE",
"808 -200 LINE",
"794 -200 LINE SMOOTH",
"755 -200 OFFCURVE",
"736 -143 OFFCURVE",
"736 -108 CURVE SMOOTH",
"736 517 LINE SMOOTH",
"736 673 OFFCURVE",
"621 725 OFFCURVE",
"474 725 CURVE SMOOTH",
"248 725 OFFCURVE",
"104 537 OFFCURVE",
"104 237 CURVE SMOOTH",
"104 58 OFFCURVE",
"162 -10 OFFCURVE",
"272 -10 CURVE SMOOTH"
);
}
);
width = 848;
}
);
leftMetricsKey = "=Ei-vit";
unicode = 10586;
script = vithkuqi;
category = Letter;
subCategory = Uppercase;
},
{
glyphname = "O-vit";
lastChange = "2021-11-04 06:35:00 +0000";
layers = (
{
layerId = UUID0;
paths = (
{
closed = 1;
nodes = (
"562 -10 OFFCURVE",
"654 137 OFFCURVE",
"654 358 CURVE SMOOTH",
"654 580 OFFCURVE",
"572 725 OFFCURVE",
"371 725 CURVE SMOOTH",
"158 725 OFFCURVE",
"55 580 OFFCURVE",
"55 359 CURVE SMOOTH",
"55 137 OFFCURVE",
"138 -10 OFFCURVE",
"370 -10 CURVE SMOOTH"
);
},
{
closed = 1;
nodes = (
"226 44 OFFCURVE",
"166 160 OFFCURVE",
"166 358 CURVE SMOOTH",
"166 556 OFFCURVE",
"222 671 OFFCURVE",
"371 671 CURVE SMOOTH",
"519 671 OFFCURVE",
"594 556 OFFCURVE",
"594 358 CURVE SMOOTH",
"594 160 OFFCURVE",
"519 44 OFFCURVE",
"370 44 CURVE SMOOTH"
);
},
{
closed = 1;
nodes = (
"371 725 LINE",
"306 725 OFFCURVE",
"240 663 OFFCURVE",
"240 569 CURVE SMOOTH",
"240 490 OFFCURVE",
"289 432 OFFCURVE",
"389 432 CURVE SMOOTH",
"501 432 OFFCURVE",
"619 513 OFFCURVE",
"705 694 CURVE",
"662 721 LINE",
"594 588 OFFCURVE",
"526 523 OFFCURVE",
"419 523 CURVE SMOOTH",
"341 523 OFFCURVE",
"294 558 OFFCURVE",
"294 604 CURVE SMOOTH",
"294 644 OFFCURVE",
"325 671 OFFCURVE",
"371 671 CURVE"
);
}
);
width = 740;
},
{
layerId = "58AAA307-6DE9-4107-B80A-C255AE991657";
paths = (
{
closed = 1;
nodes = (
"596 -10 OFFCURVE",
"694 137 OFFCURVE",
"694 358 CURVE SMOOTH",
"694 580 OFFCURVE",
"600 725 OFFCURVE",
"404 725 CURVE SMOOTH",
"177 725 OFFCURVE",
"55 580 OFFCURVE",
"55 359 CURVE SMOOTH",
"55 137 OFFCURVE",
"141 -10 OFFCURVE",
"399 -10 CURVE SMOOTH"
);
},
{
closed = 1;
nodes = (
"281 55 OFFCURVE",
"223 167 OFFCURVE",
"223 358 CURVE SMOOTH",
"223 549 OFFCURVE",
"281 660 OFFCURVE",
"406 660 CURVE SMOOTH",
"530 660 OFFCURVE",
"624 549 OFFCURVE",
"624 358 CURVE SMOOTH",
"624 167 OFFCURVE",
"530 55 OFFCURVE",
"405 55 CURVE SMOOTH"
);
},
{
closed = 1;
nodes = (
"406 715 LINE",
"368 715 OFFCURVE",
"302 663 OFFCURVE",
"302 569 CURVE SMOOTH",
"302 470 OFFCURVE",
"351 402 OFFCURVE",
"451 402 CURVE SMOOTH",
"593 402 OFFCURVE",
"681 512 OFFCURVE",
"767 694 CURVE",
"717 721 LINE",
"649 588 OFFCURVE",
"624 549 OFFCURVE",
"491 544 CURVE SMOOTH",
"403 540 OFFCURVE",
"366 568 OFFCURVE",
"366 614 CURVE SMOOTH",
"366 654 OFFCURVE",
"385 660 OFFCURVE",
"406 660 CURVE"
);
}
);
width = 762;
}
);
leftKerningGroup = "Ka-vit";
unicode = 10587;
script = vithkuqi;
category = Letter;
subCategory = Uppercase;
},
{
glyphname = "Pe-vit";
lastChange = "2021-11-04 06:35:00 +0000";
layers = (
{
layerId = UUID0;
paths = (
{
closed = 1;
nodes = (
"622 -11 OFFCURVE",
"656 19 OFFCURVE",
"656 63 CURVE SMOOTH",
"656 86 OFFCURVE",
"651 107 OFFCURVE",
"636 116 CURVE",
"620 86 OFFCURVE",
"601 86 OFFCURVE",
"572 86 CURVE SMOOTH",
"493 86 OFFCURVE",
"369 240 OFFCURVE",
"188 240 CURVE SMOOTH",
"99 240 OFFCURVE",
"40 193 OFFCURVE",
"40 109 CURVE SMOOTH",
"40 27 OFFCURVE",
"125 -9 OFFCURVE",
"244 -9 CURVE SMOOTH",
"416 -9 OFFCURVE",
"578 104 OFFCURVE",
"578 262 CURVE SMOOTH",
"578 420 OFFCURVE",
"446 497 OFFCURVE",
"302 497 CURVE SMOOTH",
"204 497 OFFCURVE",
"173 464 OFFCURVE",
"173 416 CURVE SMOOTH",
"173 362 OFFCURVE",
"222 342 OFFCURVE",
"285 342 CURVE SMOOTH",
"414 342 OFFCURVE",
"533 429 OFFCURVE",
"533 542 CURVE SMOOTH",
"533 650 OFFCURVE",
"455 726 OFFCURVE",
"316 726 CURVE SMOOTH",
"201 726 OFFCURVE",
"119 666 OFFCURVE",
"86 557 CURVE",
"128 542 LINE",
"154 601 OFFCURVE",
"204 660 OFFCURVE",
"299 660 CURVE SMOOTH",
"372 660 OFFCURVE",
"422 629 OFFCURVE",
"422 542 CURVE SMOOTH",
"422 455 OFFCURVE",
"389 395 OFFCURVE",
"279 395 CURVE SMOOTH",
"249 395 OFFCURVE",
"233 403 OFFCURVE",
"233 416 CURVE SMOOTH",
"233 431 OFFCURVE",
"245 444 OFFCURVE",
"302 444 CURVE SMOOTH",
"416 444 OFFCURVE",
"467 399 OFFCURVE",
"467 262 CURVE SMOOTH",
"467 134 OFFCURVE",
"376 45 OFFCURVE",
"246 45 CURVE SMOOTH",
"136 45 OFFCURVE",
"100 76 OFFCURVE",
"100 109 CURVE SMOOTH",
"100 138 OFFCURVE",
"126 149 OFFCURVE",
"181 149 CURVE SMOOTH",
"320 149 OFFCURVE",
"462 -11 OFFCURVE",
"566 -11 CURVE SMOOTH"
);
}
);
width = 646;
},
{
layerId = "58AAA307-6DE9-4107-B80A-C255AE991657";
paths = (
{
closed = 1;
nodes = (
"651 -11 OFFCURVE",
"692 28 OFFCURVE",
"692 110 CURVE SMOOTH",
"692 133 OFFCURVE",
"682 159 OFFCURVE",
"667 168 CURVE",
"651 138 OFFCURVE",
"621 133 OFFCURVE",
"607 133 CURVE SMOOTH",
"513 133 OFFCURVE",
"348 261 OFFCURVE",
"208 261 CURVE SMOOTH",
"119 261 OFFCURVE",
"50 237 OFFCURVE",
"50 126 CURVE SMOOTH",
"50 0 OFFCURVE",
"145 -9 OFFCURVE",
"264 -9 CURVE SMOOTH",
"436 -9 OFFCURVE",
"627 83 OFFCURVE",
"627 262 CURVE SMOOTH",
"627 444 OFFCURVE",
"466 509 OFFCURVE",
"322 509 CURVE SMOOTH",
"224 509 OFFCURVE",
"183 474 OFFCURVE",
"183 416 CURVE SMOOTH",
"183 352 OFFCURVE",
"242 330 OFFCURVE",
"305 330 CURVE SMOOTH",
"434 330 OFFCURVE",
"592 403 OFFCURVE",
"592 536 CURVE SMOOTH",
"592 678 OFFCURVE",
"474 726 OFFCURVE",
"354 726 CURVE SMOOTH",
"221 726 OFFCURVE",
"119 666 OFFCURVE",
"86 557 CURVE",
"145 536 LINE",
"178 597 OFFCURVE",
"224 650 OFFCURVE",
"319 650 CURVE SMOOTH",
"379 650 OFFCURVE",
"424 610 OFFCURVE",
"424 536 CURVE SMOOTH",
"424 432 OFFCURVE",
"409 395 OFFCURVE",
"299 395 CURVE SMOOTH",
"269 395 OFFCURVE",
"253 403 OFFCURVE",
"253 416 CURVE SMOOTH",
"253 431 OFFCURVE",
"265 444 OFFCURVE",
"322 444 CURVE SMOOTH",
"436 444 OFFCURVE",
"459 399 OFFCURVE",
"459 262 CURVE SMOOTH",
"459 134 OFFCURVE",
"396 56 OFFCURVE",
"266 56 CURVE SMOOTH",
"156 56 OFFCURVE",
"120 68 OFFCURVE",
"120 89 CURVE SMOOTH",
"120 107 OFFCURVE",
"146 114 OFFCURVE",
"183 114 CURVE SMOOTH",
"299 114 OFFCURVE",
"498 -11 OFFCURVE",
"586 -11 CURVE SMOOTH"
);
}
);
width = 717;
}
);
unicode = 10588;
script = vithkuqi;
category = Letter;
subCategory = Uppercase;
},
{
glyphname = "Qa-vit";
lastChange = "2021-11-04 06:35:00 +0000";
layers = (
{
anchors = (
{
name = _topright;
position = "{595, 609}";
},
{
name = top;
position = "{649, 723}";
}
);
components = (
{
name = "Ka-vit";
}
);
layerId = UUID0;
paths = (
{
closed = 1;
nodes = (
"585 542 LINE",
"705 624 LINE SMOOTH",
"712 629 OFFCURVE",
"719 634 OFFCURVE",
"726 641 CURVE SMOOTH",
"745 660 OFFCURVE",
"745 691 OFFCURVE",
"726 709 CURVE SMOOTH",
"707 728 OFFCURVE",
"676 728 OFFCURVE",
"658 710 CURVE SMOOTH",
"654 706 OFFCURVE",
"643 694 OFFCURVE",
"640 689 CURVE SMOOTH",
"557 571 LINE"
);
}
);
width = 755;
},
{
anchors = (
{
name = _topright;
position = "{588, 609}";
},
{
name = top;
position = "{649, 779}";
}
);
components = (
{
name = "Ka-vit";
}
);
layerId = "58AAA307-6DE9-4107-B80A-C255AE991657";
paths = (
{
closed = 1;
nodes = (
"608 524 LINE",
"698 615 LINE SMOOTH",
"706 623 OFFCURVE",
"719 634 OFFCURVE",
"725 646 CURVE SMOOTH",
"741 677 OFFCURVE",
"733 715 OFFCURVE",
"702 732 CURVE SMOOTH",
"670 748 OFFCURVE",
"631 740 OFFCURVE",
"615 710 CURVE SMOOTH",
"609 696 OFFCURVE",
"605 680 OFFCURVE",
"603 672 CURVE SMOOTH",
"565 550 LINE"
);
}
);
width = 775;
}
);
leftKerningGroup = "Ka-vit";
leftMetricsKey = "=Ka-vit";
unicode = 10589;
script = vithkuqi;
category = Letter;
subCategory = Uppercase;
},
{
glyphname = "Re-vit";
lastChange = "2021-11-04 06:35:00 +0000";
layers = (
{
layerId = UUID0;
paths = (
{
closed = 1;
nodes = (
"565 -10 OFFCURVE",
"666 276 OFFCURVE",
"666 481 CURVE SMOOTH",
"666 667 OFFCURVE",
"610 726 OFFCURVE",
"517 726 CURVE SMOOTH",
"395 726 OFFCURVE",
"348 647 OFFCURVE",
"348 545 CURVE SMOOTH",
"348 437 OFFCURVE",
"388 375 OFFCURVE",
"457 375 CURVE SMOOTH",
"478 375 OFFCURVE",
"500 382 OFFCURVE",
"521 401 CURVE",
"471 433 OFFCURVE",
"459 486 OFFCURVE",
"459 545 CURVE SMOOTH",
"459 623 OFFCURVE",
"480 672 OFFCURVE",
"521 672 CURVE SMOOTH",
"567 672 OFFCURVE",
"606 629 OFFCURVE",
"606 488 CURVE SMOOTH",
"606 279 OFFCURVE",
"511 54 OFFCURVE",
"348 54 CURVE SMOOTH",
"252 54 OFFCURVE",
"230 134 OFFCURVE",
"230 226 CURVE SMOOTH",
"230 735 LINE SMOOTH",
"230 806 OFFCURVE",
"200 856 OFFCURVE",
"132 856 CURVE SMOOTH",
"94 856 OFFCURVE",
"53 836 OFFCURVE",
"25 805 CURVE",
"53 768 LINE",
"65 779 OFFCURVE",
"83 785 OFFCURVE",
"94 785 CURVE SMOOTH",
"123 785 OFFCURVE",
"129 763 OFFCURVE",
"129 727 CURVE SMOOTH",
"129 218 LINE SMOOTH",
"129 72 OFFCURVE",
"194 -10 OFFCURVE",
"344 -10 CURVE SMOOTH"
);
}
);
width = 716;
},
{
layerId = "58AAA307-6DE9-4107-B80A-C255AE991657";
paths = (
{
closed = 1;
nodes = (
"599 -10 OFFCURVE",
"680 282 OFFCURVE",
"680 481 CURVE SMOOTH",
"680 682 OFFCURVE",
"615 726 OFFCURVE",
"515 726 CURVE SMOOTH",
"398 726 OFFCURVE",
"340 651 OFFCURVE",
"340 521 CURVE SMOOTH",
"340 368 OFFCURVE",
"380 298 OFFCURVE",
"458 298 CURVE SMOOTH",
"501 298 OFFCURVE",
"527 312 OFFCURVE",
"544 330 CURVE",
"504 362 OFFCURVE",
"495 422 OFFCURVE",
"495 521 CURVE SMOOTH",
"495 609 OFFCURVE",
"516 663 OFFCURVE",
"551 663 CURVE SMOOTH",
"580 663 OFFCURVE",
"610 619 OFFCURVE",
"610 488 CURVE SMOOTH",
"610 282 OFFCURVE",
"527 65 OFFCURVE",
"371 65 CURVE SMOOTH",
"293 65 OFFCURVE",
"269 133 OFFCURVE",
"269 193 CURVE SMOOTH",
"268 740 LINE SMOOTH",
"268 823 OFFCURVE",
"219 855 OFFCURVE",
"150 855 CURVE SMOOTH",
"87 855 OFFCURVE",
"41 832 OFFCURVE",
"10 800 CURVE",
"34 761 LINE",
"46 769 OFFCURVE",
"61 780 OFFCURVE",
"78 780 CURVE SMOOTH",
"95 780 OFFCURVE",
"110 773 OFFCURVE",
"110 733 CURVE SMOOTH",
"111 186 LINE SMOOTH",
"111 77 OFFCURVE",
"164 -10 OFFCURVE",
"336 -10 CURVE SMOOTH"
);
}
);
width = 725;
}
);
leftKerningGroup = "Re-vit";
rightMetricsKey = "=Se-vit";
unicode = 1058A;
script = vithkuqi;
category = Letter;
subCategory = Uppercase;
},
{
glyphname = "Se-vit";
lastChange = "2021-11-04 06:35:00 +0000";
layers = (
{
anchors = (
{
name = top;
position = "{358, 714}";
}
);
layerId = UUID0;
paths = (
{
closed = 1;
nodes = (
"565 -10 OFFCURVE",
"666 276 OFFCURVE",
"666 481 CURVE SMOOTH",
"666 667 OFFCURVE",
"610 726 OFFCURVE",
"517 726 CURVE SMOOTH",
"395 726 OFFCURVE",
"338 647 OFFCURVE",
"338 515 CURVE SMOOTH",
"338 377 OFFCURVE",
"388 315 OFFCURVE",
"457 315 CURVE SMOOTH",
"478 315 OFFCURVE",
"500 322 OFFCURVE",
"521 341 CURVE",
"471 373 OFFCURVE",
"449 426 OFFCURVE",
"449 515 CURVE SMOOTH",
"449 623 OFFCURVE",
"480 672 OFFCURVE",
"521 672 CURVE SMOOTH",
"567 672 OFFCURVE",
"606 629 OFFCURVE",
"606 488 CURVE SMOOTH",
"606 279 OFFCURVE",
"511 54 OFFCURVE",
"348 54 CURVE SMOOTH",
"252 54 OFFCURVE",
"230 134 OFFCURVE",
"230 226 CURVE SMOOTH",
"230 605 LINE SMOOTH",
"230 676 OFFCURVE",
"200 726 OFFCURVE",
"132 726 CURVE SMOOTH",
"94 726 OFFCURVE",
"53 706 OFFCURVE",
"25 675 CURVE",
"53 638 LINE",
"65 649 OFFCURVE",
"83 655 OFFCURVE",
"94 655 CURVE SMOOTH",
"123 655 OFFCURVE",
"129 633 OFFCURVE",
"129 597 CURVE SMOOTH",
"129 218 LINE SMOOTH",
"129 72 OFFCURVE",
"184 -10 OFFCURVE",
"344 -10 CURVE SMOOTH"
);
}
);
width = 716;
},
{
anchors = (
{
name = top;
position = "{363, 714}";
}
);
layerId = "58AAA307-6DE9-4107-B80A-C255AE991657";
paths = (
{
closed = 1;
nodes = (
"599 -10 OFFCURVE",
"680 282 OFFCURVE",
"680 481 CURVE SMOOTH",
"680 682 OFFCURVE",
"615 726 OFFCURVE",
"515 726 CURVE SMOOTH",
"398 726 OFFCURVE",
"340 651 OFFCURVE",
"340 521 CURVE SMOOTH",
"340 368 OFFCURVE",
"380 298 OFFCURVE",
"458 298 CURVE SMOOTH",
"501 298 OFFCURVE",
"527 312 OFFCURVE",
"544 330 CURVE",
"504 362 OFFCURVE",
"495 422 OFFCURVE",
"495 521 CURVE SMOOTH",
"495 609 OFFCURVE",
"516 663 OFFCURVE",
"551 663 CURVE SMOOTH",
"580 663 OFFCURVE",
"610 619 OFFCURVE",
"610 488 CURVE SMOOTH",
"610 282 OFFCURVE",
"527 65 OFFCURVE",
"371 65 CURVE SMOOTH",
"293 65 OFFCURVE",
"269 133 OFFCURVE",
"269 193 CURVE SMOOTH",
"268 610 LINE SMOOTH",
"268 693 OFFCURVE",
"219 725 OFFCURVE",
"150 725 CURVE SMOOTH",
"87 725 OFFCURVE",
"41 702 OFFCURVE",
"10 670 CURVE",
"34 631 LINE",
"46 639 OFFCURVE",
"61 650 OFFCURVE",
"78 650 CURVE SMOOTH",
"95 650 OFFCURVE",
"110 643 OFFCURVE",
"110 603 CURVE SMOOTH",
"111 186 LINE SMOOTH",
"111 77 OFFCURVE",
"164 -10 OFFCURVE",
"336 -10 CURVE SMOOTH"
);
}
);
width = 725;
}
);
leftKerningGroup = "Re-vit";
leftMetricsKey = "Re-vit";
unicode = 1058C;
script = vithkuqi;
category = Letter;
subCategory = Uppercase;
},
{
glyphname = "She-vit";
lastChange = "2021-11-04 06:35:00 +0000";
layers = (
{
anchors = (
{
name = _top;
position = "{358, 714}";
},
{
name = top;
position = "{358, 889}";
}
);
components = (
{
name = "Se-vit";
}
);
layerId = UUID0;
paths = (
{
closed = 1;
nodes = (
"503 830 LINE",
"503 889 LINE",
"213 889 LINE",
"213 830 LINE"
);
}
);
width = 716;
},
{
anchors = (
{
name = _top;
position = "{363, 714}";
},
{
name = top;
position = "{363, 890}";
}
);
components = (
{
name = "Se-vit";
}
);
layerId = "58AAA307-6DE9-4107-B80A-C255AE991657";
paths = (
{
closed = 1;
nodes = (
"515 821 LINE",
"515 890 LINE",
"210 890 LINE",
"210 821 LINE"
);
}
);
width = 725;
}
);
leftKerningGroup = "Re-vit";
leftMetricsKey = "Se-vit";
rightMetricsKey = "Se-vit";
unicode = 1058D;
script = vithkuqi;
category = Letter;
subCategory = Uppercase;
},
{
glyphname = "Te-vit";
lastChange = "2021-11-04 06:35:00 +0000";
layers = (
{
layerId = UUID0;
paths = (
{
closed = 1;
nodes = (
"622 183 OFFCURVE",
"737 279 OFFCURVE",
"737 372 CURVE SMOOTH",
"737 399 OFFCURVE",
"723 419 OFFCURVE",
"687 419 CURVE SMOOTH",
"676 419 OFFCURVE",
"663 416 OFFCURVE",
"648 408 CURVE",
"646 305 OFFCURVE",
"610 237 OFFCURVE",
"449 237 CURVE SMOOTH",
"315 237 OFFCURVE",
"231 305 OFFCURVE",
"231 399 CURVE SMOOTH",
"231 456 OFFCURVE",
"263 483 OFFCURVE",
"304 483 CURVE SMOOTH",
"348 483 OFFCURVE",
"385 461 OFFCURVE",
"404 422 CURVE",
"408 497 LINE",
"397 497 LINE",
"377 513 OFFCURVE",
"340 547 OFFCURVE",
"269 547 CURVE SMOOTH",
"190 547 OFFCURVE",
"120 506 OFFCURVE",
"120 399 CURVE SMOOTH",
"120 269 OFFCURVE",
"261 183 OFFCURVE",
"449 183 CURVE SMOOTH"
);
},
{
closed = 1;
nodes = (
"497 -240 LINE",
"497 845 LINE",
"397 845 LINE",
"397 808 LINE",
"404 775 LINE",
"398 749 OFFCURVE",
"397 714 OFFCURVE",
"397 688 CURVE SMOOTH",
"397 572 LINE SMOOTH",
"397 540 OFFCURVE",
"399 505 OFFCURVE",
"403 492 CURVE",
"397 460 LINE",
"397 -240 LINE"
);
},
{
closed = 1;
nodes = (
"66 700 LINE",
"61 727 OFFCURVE",
"67 763 OFFCURVE",
"109 763 CURVE SMOOTH",
"174 763 OFFCURVE",
"258 691 OFFCURVE",
"325 691 CURVE SMOOTH",
"359 691 OFFCURVE",
"381 713 OFFCURVE",
"395 758 CURVE",
"433 758 LINE",
"397 845 LINE",
"397 796 OFFCURVE",
"377 785 OFFCURVE",
"344 785 CURVE SMOOTH",
"289 785 OFFCURVE",
"212 856 OFFCURVE",
"117 856 CURVE SMOOTH",
"36 856 OFFCURVE",
"16 795 OFFCURVE",
"16 748 CURVE SMOOTH",
"16 728 OFFCURVE",
"20 716 OFFCURVE",
"23 700 CURVE"
);
}
);
width = 742;
},
{
layerId = "58AAA307-6DE9-4107-B80A-C255AE991657";
paths = (
{
closed = 1;
nodes = (
"613 197 OFFCURVE",
"741 271 OFFCURVE",
"741 383 CURVE SMOOTH",
"741 410 OFFCURVE",
"729 433 OFFCURVE",
"693 433 CURVE SMOOTH",
"672 433 OFFCURVE",
"659 427 OFFCURVE",
"644 419 CURVE",
"642 325 OFFCURVE",
"601 261 OFFCURVE",
"440 261 CURVE SMOOTH",
"327 261 OFFCURVE",
"263 320 OFFCURVE",
"263 410 CURVE SMOOTH",
"263 463 OFFCURVE",
"284 478 OFFCURVE",
"313 478 CURVE SMOOTH",
"337 478 OFFCURVE",
"358 463 OFFCURVE",
"385 417 CURVE",
"370 507 LINE",
"359 507 LINE",
"335 528 OFFCURVE",
"300 548 OFFCURVE",
"236 548 CURVE SMOOTH",
"162 548 OFFCURVE",
"93 506 OFFCURVE",
"95 410 CURVE SMOOTH",
"98 258 OFFCURVE",
"268 197 OFFCURVE",
"440 197 CURVE SMOOTH"
);
},
{
closed = 1;
nodes = (
"514 -240 LINE",
"514 845 LINE",
"356 845 LINE",
"356 760 LINE",
"362 741 LINE",
"360 727 OFFCURVE",
"356 685 OFFCURVE",
"356 652 CURVE SMOOTH",
"356 604 LINE SMOOTH",
"356 572 OFFCURVE",
"359 517 OFFCURVE",
"366 504 CURVE",
"356 470 LINE",
"356 -240 LINE"
);
},
{
closed = 1;
nodes = (
"58 642 LINE",
"55 682 OFFCURVE",
"62 698 OFFCURVE",
"94 698 CURVE SMOOTH",
"149 698 OFFCURVE",
"223 645 OFFCURVE",
"268 645 CURVE SMOOTH",
"315 645 OFFCURVE",
"334 665 OFFCURVE",
"355 739 CURVE",
"368 739 LINE",
"356 845 LINE",
"356 808 OFFCURVE",
"339 803 OFFCURVE",
"317 803 CURVE SMOOTH",
"249 803 OFFCURVE",
"176 855 OFFCURVE",
"101 855 CURVE SMOOTH",
"19 855 OFFCURVE",
"-10 791 OFFCURVE",
"-10 721 CURVE SMOOTH",
"-10 692 OFFCURVE",
"-6 665 OFFCURVE",
"3 642 CURVE"
);
}
);
width = 723;
}
);
leftKerningGroup = "Te-vit";
rightKerningGroup = "Te-vit";
unicode = 1058E;
script = vithkuqi;
category = Letter;
subCategory = Uppercase;
},
{
glyphname = "The-vit";
lastChange = "2021-11-04 06:35:00 +0000";
layers = (
{
layerId = UUID0;
paths = (
{
closed = 1;
nodes = (
"208 74 OFFCURVE",
"384 310 OFFCURVE",
"384 540 CURVE SMOOTH",
"384 675 OFFCURVE",
"348 726 OFFCURVE",
"271 726 CURVE SMOOTH",
"182 726 OFFCURVE",
"78 634 OFFCURVE",
"78 379 CURVE SMOOTH",
"78 130 OFFCURVE",
"153 -9 OFFCURVE",
"314 -9 CURVE SMOOTH",
"354 -9 OFFCURVE",
"376 -3 OFFCURVE",
"403 8 CURVE",
"403 61 LINE",
"386 58 OFFCURVE",
"367 57 OFFCURVE",
"354 57 CURVE SMOOTH",
"218 57 OFFCURVE",
"189 169 OFFCURVE",
"189 378 CURVE SMOOTH",
"189 606 OFFCURVE",
"229 672 OFFCURVE",
"271 672 CURVE SMOOTH",
"302 672 OFFCURVE",
"324 640 OFFCURVE",
"324 538 CURVE SMOOTH",
"324 328 OFFCURVE",
"184 141 OFFCURVE",
"25 40 CURVE",
"54 0 LINE"
);
}
);
width = 443;
},
{
layerId = "58AAA307-6DE9-4107-B80A-C255AE991657";
paths = (
{
closed = 1;
nodes = (
"216 80 OFFCURVE",
"383 298 OFFCURVE",
"383 552 CURVE SMOOTH",
"383 682 OFFCURVE",
"334 726 OFFCURVE",
"255 726 CURVE SMOOTH",
"140 726 OFFCURVE",
"40 644 OFFCURVE",
"40 379 CURVE SMOOTH",
"40 126 OFFCURVE",
"132 -9 OFFCURVE",
"287 -9 CURVE SMOOTH",
"345 -9 OFFCURVE",
"367 0 OFFCURVE",
"386 11 CURVE",
"386 61 LINE",
"369 58 OFFCURVE",
"350 57 OFFCURVE",
"337 57 CURVE SMOOTH",
"221 57 OFFCURVE",
"208 169 OFFCURVE",
"208 378 CURVE SMOOTH",
"208 613 OFFCURVE",
"248 662 OFFCURVE",
"271 662 CURVE SMOOTH",
"296 662 OFFCURVE",
"313 630 OFFCURVE",
"313 550 CURVE SMOOTH",
"313 328 OFFCURVE",
"172 137 OFFCURVE",
"5 54 CURVE",
"31 0 LINE"
);
}
);
width = 416;
}
);
unicode = 1058F;
script = vithkuqi;
category = Letter;
subCategory = Uppercase;
},
{
glyphname = "U-vit";
lastChange = "2021-11-04 06:35:00 +0000";
layers = (
{
anchors = (
{
name = top;
position = "{361, 714}";
}
);
layerId = UUID0;
paths = (
{
closed = 1;
nodes = (
"389 0 LINE",
"473 134 OFFCURVE",
"557 458 OFFCURVE",
"581 639 CURVE",
"573 596 LINE",
"687 586 OFFCURVE",
"716 629 OFFCURVE",
"716 675 CURVE SMOOTH",
"716 691 OFFCURVE",
"710 708 OFFCURVE",
"698 728 CURVE",
"669 709 OFFCURVE",
"635 702 OFFCURVE",
"604 702 CURVE SMOOTH",
"573 702 OFFCURVE",
"555 708 OFFCURVE",
"534 719 CURVE",
"499 492 OFFCURVE",
"470 298 OFFCURVE",
"374 87 CURVE",
"406 54 LINE",
"303 616 OFFCURVE",
"236 726 OFFCURVE",
"111 726 CURVE SMOOTH",
"74 726 OFFCURVE",
"33 707 OFFCURVE",
"5 676 CURVE",
"33 639 LINE",
"45 650 OFFCURVE",
"63 656 OFFCURVE",
"74 656 CURVE SMOOTH",
"138 656 OFFCURVE",
"219 538 OFFCURVE",
"329 0 CURVE"
);
}
);
width = 721;
},
{
anchors = (
{
name = top;
position = "{333, 714}";
}
);
layerId = "58AAA307-6DE9-4107-B80A-C255AE991657";
paths = (
{
closed = 1;
nodes = (
"368 0 LINE",
"451 110 OFFCURVE",
"546 404 OFFCURVE",
"568 643 CURVE",
"518 595 LINE",
"614 578 OFFCURVE",
"680 603 OFFCURVE",
"680 688 CURVE SMOOTH",
"680 701 OFFCURVE",
"675 716 OFFCURVE",
"665 733 CURVE",
"640 717 OFFCURVE",
"611 711 OFFCURVE",
"584 711 CURVE SMOOTH",
"558 711 OFFCURVE",
"524 716 OFFCURVE",
"504 725 CURVE",
"501 444 OFFCURVE",
"413 193 OFFCURVE",
"346 61 CURVE",
"390 57 LINE",
"314 695 OFFCURVE",
"245 725 OFFCURVE",
"137 725 CURVE SMOOTH",
"89 725 OFFCURVE",
"38 699 OFFCURVE",
"5 673 CURVE",
"32 630 LINE",
"44 638 OFFCURVE",
"59 644 OFFCURVE",
"70 644 CURVE SMOOTH",
"121 644 OFFCURVE",
"168 592 OFFCURVE",
"270 0 CURVE"
);
}
);
width = 685;
}
);
leftKerningGroup = "U-vit";
rightKerningGroup = "Lla-vit";
unicode = 10590;
script = vithkuqi;
category = Letter;
subCategory = Uppercase;
},
{
glyphname = "Ve-vit";
lastChange = "2021-11-04 06:35:00 +0000";
layers = (
{
layerId = UUID0;
paths = (
{
closed = 1;
nodes = (
"770 -256 OFFCURVE",
"804 -220 OFFCURVE",
"804 -167 CURVE SMOOTH",
"804 -89 OFFCURVE",
"736 -33 OFFCURVE",
"517 -33 CURVE SMOOTH",
"297 -33 OFFCURVE",
"182 -113 OFFCURVE",
"182 -202 CURVE SMOOTH",
"182 -229 OFFCURVE",
"200 -252 OFFCURVE",
"238 -252 CURVE",
"253 -137 OFFCURVE",
"337 -87 OFFCURVE",
"517 -87 CURVE SMOOTH",
"696 -87 OFFCURVE",
"744 -132 OFFCURVE",
"744 -166 CURVE SMOOTH",
"744 -188 OFFCURVE",
"730 -202 OFFCURVE",
"706 -202 CURVE SMOOTH",
"668 -202 OFFCURVE",
"660 -170 OFFCURVE",
"660 -123 CURVE SMOOTH",
"660 714 LINE",
"559 714 LINE",
"559 173 LINE",
"566 148 LINE",
"561 104 OFFCURVE",
"559 70 OFFCURVE",
"559 41 CURVE SMOOTH",
"559 -132 LINE SMOOTH",
"559 -226 OFFCURVE",
"636 -256 OFFCURVE",
"699 -256 CURVE SMOOTH"
);
},
{
closed = 1;
nodes = (
"445 9 OFFCURVE",
"524 52 OFFCURVE",
"553 110 CURVE",
"646 110 LINE",
"559 294 LINE",
"559 121 OFFCURVE",
"488 72 OFFCURVE",
"389 72 CURVE SMOOTH",
"262 72 OFFCURVE",
"230 159 OFFCURVE",
"230 265 CURVE SMOOTH",
"230 605 LINE SMOOTH",
"230 676 OFFCURVE",
"200 726 OFFCURVE",
"132 726 CURVE SMOOTH",
"94 726 OFFCURVE",
"53 706 OFFCURVE",
"25 675 CURVE",
"53 638 LINE",
"65 649 OFFCURVE",
"83 655 OFFCURVE",
"94 655 CURVE SMOOTH",
"123 655 OFFCURVE",
"129 633 OFFCURVE",
"129 597 CURVE SMOOTH",
"129 257 LINE SMOOTH",
"129 122 OFFCURVE",
"187 9 OFFCURVE",
"362 9 CURVE SMOOTH"
);
}
);
width = 764;
},
{
layerId = "58AAA307-6DE9-4107-B80A-C255AE991657";
paths = (
{
closed = 1;
nodes = (
"773 -256 OFFCURVE",
"817 -220 OFFCURVE",
"817 -167 CURVE SMOOTH",
"817 -89 OFFCURVE",
"763 -22 OFFCURVE",
"528 -22 CURVE SMOOTH",
"242 -22 OFFCURVE",
"153 -113 OFFCURVE",
"153 -202 CURVE SMOOTH",
"153 -229 OFFCURVE",
"171 -252 OFFCURVE",
"239 -252 CURVE",
"254 -137 OFFCURVE",
"337 -87 OFFCURVE",
"528 -87 CURVE SMOOTH",
"709 -87 OFFCURVE",
"747 -122 OFFCURVE",
"747 -156 CURVE SMOOTH",
"747 -178 OFFCURVE",
"733 -192 OFFCURVE",
"719 -192 CURVE SMOOTH",
"691 -192 OFFCURVE",
"683 -160 OFFCURVE",
"683 -113 CURVE SMOOTH",
"683 714 LINE",
"525 714 LINE",
"525 133 LINE",
"532 108 LINE",
"527 64 OFFCURVE",
"525 30 OFFCURVE",
"525 1 CURVE SMOOTH",
"525 -108 LINE SMOOTH",
"525 -234 OFFCURVE",
"603 -256 OFFCURVE",
"682 -256 CURVE SMOOTH"
);
},
{
closed = 1;
nodes = (
"432 -10 OFFCURVE",
"498 41 OFFCURVE",
"511 80 CURVE",
"539 80 LINE",
"526 259 LINE",
"525 125 OFFCURVE",
"451 65 OFFCURVE",
"388 65 CURVE SMOOTH",
"293 65 OFFCURVE",
"269 133 OFFCURVE",
"269 251 CURVE SMOOTH",
"268 610 LINE SMOOTH",
"268 693 OFFCURVE",
"219 725 OFFCURVE",
"150 725 CURVE SMOOTH",
"87 725 OFFCURVE",
"41 702 OFFCURVE",
"10 670 CURVE",
"34 631 LINE",
"46 639 OFFCURVE",
"61 650 OFFCURVE",
"78 650 CURVE SMOOTH",
"95 650 OFFCURVE",
"110 643 OFFCURVE",
"110 603 CURVE SMOOTH",
"111 231 LINE SMOOTH",
"111 77 OFFCURVE",
"164 -10 OFFCURVE",
"336 -10 CURVE SMOOTH"
);
}
);
width = 787;
}
);
leftKerningGroup = "Re-vit";
leftMetricsKey = "Re-vit";
unicode = 10591;
script = vithkuqi;
category = Letter;
subCategory = Uppercase;
},
{
glyphname = "Xe-vit";
lastChange = "2021-11-04 06:35:00 +0000";
layers = (
{
layerId = UUID0;
paths = (
{
closed = 1;
nodes = (
"446 -256 OFFCURVE",
"515 -138 OFFCURVE",
"515 -27 CURVE SMOOTH",
"515 145 OFFCURVE",
"387 226 OFFCURVE",
"293 319 CURVE SMOOTH",
"238 374 OFFCURVE",
"194 425 OFFCURVE",
"194 518 CURVE SMOOTH",
"194 619 OFFCURVE",
"229 671 OFFCURVE",
"254 696 CURVE",
"182 681 LINE",
"240 620 OFFCURVE",
"347 592 OFFCURVE",
"418 592 CURVE SMOOTH",
"510 592 OFFCURVE",
"535 633 OFFCURVE",
"535 674 CURVE SMOOTH",
"535 695 OFFCURVE",
"528 712 OFFCURVE",
"523 720 CURVE",
"499 688 OFFCURVE",
"470 675 OFFCURVE",
"428 675 CURVE SMOOTH",
"385 675 OFFCURVE",
"334 693 OFFCURVE",
"272 722 CURVE",
"174 711 OFFCURVE",
"83 626 OFFCURVE",
"83 512 CURVE SMOOTH",
"83 382 OFFCURVE",
"158 300 OFFCURVE",
"236 226 CURVE SMOOTH",
"318 147 OFFCURVE",
"404 78 OFFCURVE",
"404 -27 CURVE SMOOTH",
"404 -121 OFFCURVE",
"361 -190 OFFCURVE",
"262 -190 CURVE SMOOTH",
"157 -190 OFFCURVE",
"96 -130 OFFCURVE",
"96 -5 CURVE SMOOTH",
"96 208 OFFCURVE",
"276 339 OFFCURVE",
"409 392 CURVE",
"316 363 LINE",
"355 332 OFFCURVE",
"397 284 OFFCURVE",
"463 284 CURVE SMOOTH",
"522 284 OFFCURVE",
"574 337 OFFCURVE",
"566 382 CURVE",
"548 372 OFFCURVE",
"539 368 OFFCURVE",
"518 368 CURVE SMOOTH",
"475 368 OFFCURVE",
"443 391 OFFCURVE",
"399 429 CURVE",
"231 386 OFFCURVE",
"36 215 OFFCURVE",
"36 -7 CURVE SMOOTH",
"36 -172 OFFCURVE",
"123 -256 OFFCURVE",
"271 -256 CURVE SMOOTH"
);
}
);
width = 600;
},
{
layerId = "58AAA307-6DE9-4107-B80A-C255AE991657";
paths = (
{
closed = 1;
nodes = (
"451 -252 OFFCURVE",
"526 -159 OFFCURVE",
"526 -29 CURVE SMOOTH",
"526 107 OFFCURVE",
"444 209 OFFCURVE",
"340 311 CURVE SMOOTH",
"271 379 OFFCURVE",
"235 434 OFFCURVE",
"235 520 CURVE SMOOTH",
"235 564 OFFCURVE",
"257 627 OFFCURVE",
"277 654 CURVE",
"195 662 LINE",
"250 600 OFFCURVE",
"330 556 OFFCURVE",
"422 556 CURVE SMOOTH",
"508 556 OFFCURVE",
"544 606 OFFCURVE",
"544 702 CURVE SMOOTH",
"544 707 OFFCURVE",
"544 711 OFFCURVE",
"543 715 CURVE",
"511 693 OFFCURVE",
"493 677 OFFCURVE",
"428 677 CURVE SMOOTH",
"392 677 OFFCURVE",
"309 698 OFFCURVE",
"282 720 CURVE",
"179 706 OFFCURVE",
"75 646 OFFCURVE",
"75 510 CURVE SMOOTH",
"75 386 OFFCURVE",
"136 289 OFFCURVE",
"217 208 CURVE SMOOTH",
"312 114 OFFCURVE",
"366 50 OFFCURVE",
"366 -49 CURVE SMOOTH",
"366 -112 OFFCURVE",
"342 -185 OFFCURVE",
"245 -185 CURVE SMOOTH",
"177 -185 OFFCURVE",
"115 -132 OFFCURVE",
"115 -49 CURVE SMOOTH",
"115 155 OFFCURVE",
"354 324 OFFCURVE",
"464 373 CURVE",
"366 346 LINE",
"398 312 OFFCURVE",
"454 270 OFFCURVE",
"509 270 CURVE SMOOTH",
"552 270 OFFCURVE",
"593 306 OFFCURVE",
"589 391 CURVE",
"574 383 OFFCURVE",
"558 379 OFFCURVE",
"541 379 CURVE SMOOTH",
"505 379 OFFCURVE",
"469 404 OFFCURVE",
"441 424 CURVE",
"312 388 OFFCURVE",
"45 161 OFFCURVE",
"45 -51 CURVE SMOOTH",
"45 -197 OFFCURVE",
"140 -249 OFFCURVE",
"255 -250 CURVE SMOOTH"
);
}
);
width = 619;
}
);
unicode = 10592;
script = vithkuqi;
category = Letter;
subCategory = Uppercase;
},
{
glyphname = "Y-vit";
lastChange = "2021-11-04 06:35:00 +0000";
layers = (
{
anchors = (
{
name = _top;
position = "{361, 714}";
},
{
name = top;
position = "{361, 949}";
}
);
components = (
{
name = "U-vit";
}
);
layerId = UUID0;
paths = (
{
closed = 1;
nodes = (
"443 873 OFFCURVE",
"412 851 OFFCURVE",
"381 851 CURVE SMOOTH",
"314 851 OFFCURVE",
"347 949 OFFCURVE",
"275 949 CURVE SMOOTH",
"240 949 OFFCURVE",
"216 919 OFFCURVE",
"216 879 CURVE SMOOTH",
"216 816 OFFCURVE",
"284 796 OFFCURVE",
"337 796 CURVE SMOOTH",
"402 796 OFFCURVE",
"464 828 OFFCURVE",
"505 897 CURVE",
"474 921 LINE"
);
}
);
width = 721;
},
{
anchors = (
{
name = _top;
position = "{323, 714}";
},
{
name = top;
position = "{323, 948}";
}
);
components = (
{
name = "U-vit";
}
);
layerId = "58AAA307-6DE9-4107-B80A-C255AE991657";
paths = (
{
closed = 1;
nodes = (
"400 878 OFFCURVE",
"371 859 OFFCURVE",
"340 859 CURVE SMOOTH",
"288 859 OFFCURVE",
"330 948 OFFCURVE",
"243 948 CURVE SMOOTH",
"210 948 OFFCURVE",
"176 924 OFFCURVE",
"176 878 CURVE SMOOTH",
"176 821 OFFCURVE",
"232 787 OFFCURVE",
"305 787 CURVE SMOOTH",
"370 787 OFFCURVE",
"429 819 OFFCURVE",
"469 896 CURVE",
"429 929 LINE"
);
}
);
width = 685;
}
);
leftKerningGroup = "U-vit";
leftMetricsKey = "=U-vit";
rightKerningGroup = "Lla-vit";
rightMetricsKey = "=U-vit";
unicode = 10594;
script = vithkuqi;
category = Letter;
subCategory = Uppercase;
},
{
glyphname = "Ze-vit";
lastChange = "2021-11-04 06:35:00 +0000";
layers = (
{
anchors = (
{
name = top;
position = "{443, 714}";
}
);
layerId = UUID0;
paths = (
{
closed = 1;
nodes = (
"439 -10 OFFCURVE",
"495 106 OFFCURVE",
"501 272 CURVE",
"555 294 OFFCURVE",
"592 338 OFFCURVE",
"611 395 CURVE",
"575 431 LINE",
"559 402 OFFCURVE",
"535 366 OFFCURVE",
"508 349 CURVE",
"508 402 OFFCURVE",
"477 432 OFFCURVE",
"436 432 CURVE",
"439 380 LINE",
"443 533 OFFCURVE",
"472 658 OFFCURVE",
"576 658 CURVE SMOOTH",
"658 658 OFFCURVE",
"700 540 OFFCURVE",
"700 364 CURVE SMOOTH",
"700 163 OFFCURVE",
"658 53 OFFCURVE",
"565 41 CURVE",
"565 -10 LINE",
"710 -5 OFFCURVE",
"811 102 OFFCURVE",
"811 362 CURVE SMOOTH",
"811 603 OFFCURVE",
"734 724 OFFCURVE",
"587 724 CURVE SMOOTH",
"409 724 OFFCURVE",
"380 512 OFFCURVE",
"380 414 CURVE",
"363 401 OFFCURVE",
"348 379 OFFCURVE",
"348 344 CURVE SMOOTH",
"348 300 OFFCURVE",
"378 258 OFFCURVE",
"434 258 CURVE SMOOTH",
"451 258 OFFCURVE",
"469 261 OFFCURVE",
"490 270 CURVE",
"447 294 LINE",
"443 188 OFFCURVE",
"428 56 OFFCURVE",
"321 56 CURVE SMOOTH",
"228 56 OFFCURVE",
"186 164 OFFCURVE",
"186 349 CURVE SMOOTH",
"186 541 OFFCURVE",
"228 660 OFFCURVE",
"321 672 CURVE",
"321 723 LINE",
"176 718 OFFCURVE",
"75 602 OFFCURVE",
"75 351 CURVE SMOOTH",
"75 101 OFFCURVE",
"158 -10 OFFCURVE",
"318 -10 CURVE SMOOTH"
);
}
);
width = 886;
},
{
anchors = (
{
name = top;
position = "{475, 714}";
}
);
layerId = "58AAA307-6DE9-4107-B80A-C255AE991657";
paths = (
{
closed = 1;
nodes = (
"460 -10 OFFCURVE",
"531 55 OFFCURVE",
"538 283 CURVE",
"578 300 OFFCURVE",
"621 338 OFFCURVE",
"641 379 CURVE",
"589 415 LINE",
"575 393 OFFCURVE",
"563 380 OFFCURVE",
"540 375 CURVE",
"534 400 OFFCURVE",
"513 431 OFFCURVE",
"472 431 CURVE",
"480 345 LINE",
"480 594 OFFCURVE",
"526 651 OFFCURVE",
"600 651 CURVE SMOOTH",
"693 651 OFFCURVE",
"706 590 OFFCURVE",
"706 350 CURVE SMOOTH",
"706 123 OFFCURVE",
"665 55 OFFCURVE",
"599 46 CURVE",
"599 -10 LINE",
"711 -6 OFFCURVE",
"874 76 OFFCURVE",
"874 349 CURVE SMOOTH",
"874 666 OFFCURVE",
"786 726 OFFCURVE",
"625 726 CURVE SMOOTH",
"465 726 OFFCURVE",
"418 606 OFFCURVE",
"410 410 CURVE",
"398 395 OFFCURVE",
"391 374 OFFCURVE",
"391 354 CURVE SMOOTH",
"391 313 OFFCURVE",
"418 272 OFFCURVE",
"480 272 CURVE",
"501 272 OFFCURVE",
"517 294 OFFCURVE",
"536 320 CURVE",
"475 330 LINE",
"465 112 OFFCURVE",
"421 65 OFFCURVE",
"354 65 CURVE SMOOTH",
"288 65 OFFCURVE",
"243 123 OFFCURVE",
"243 346 CURVE SMOOTH",
"243 593 OFFCURVE",
"284 662 OFFCURVE",
"352 671 CURVE",
"352 726 LINE",
"206 725 OFFCURVE",
"75 640 OFFCURVE",
"75 347 CURVE SMOOTH",
"75 66 OFFCURVE",
"163 -10 OFFCURVE",
"341 -10 CURVE SMOOTH"
);
}
);
width = 949;
}
);
leftKerningGroup = "Ka-vit";
leftMetricsKey = "Ka-vit";
rightKerningGroup = "Ze-vit";
rightMetricsKey = "=|";
unicode = 10595;
script = vithkuqi;
category = Letter;
subCategory = Uppercase;
},
{
glyphname = "a-vit";
lastChange = "2021-11-04 06:35:00 +0000";
layers = (
{
layerId = "58AAA307-6DE9-4107-B80A-C255AE991657";
paths = (
{
closed = 1;
nodes = (
"474 -10 OFFCURVE",
"546 175 OFFCURVE",
"546 336 CURVE SMOOTH",
"546 487 OFFCURVE",
"484 547 OFFCURVE",
"406 547 CURVE SMOOTH",
"338 547 OFFCURVE",
"290 500 OFFCURVE",
"290 417 CURVE SMOOTH",
"290 329 OFFCURVE",
"336 270 OFFCURVE",
"425 234 CURVE SMOOTH",
"525 194 LINE SMOOTH",
"578 173 OFFCURVE",
"621 170 OFFCURVE",
"621 116 CURVE SMOOTH",
"621 83 OFFCURVE",
"596 65 OFFCURVE",
"566 65 CURVE SMOOTH",
"538 65 OFFCURVE",
"525 69 OFFCURVE",
"500 78 CURVE",
"496 67 OFFCURVE",
"493 60 OFFCURVE",
"493 45 CURVE SMOOTH",
"493 21 OFFCURVE",
"514 -10 OFFCURVE",
"564 -10 CURVE SMOOTH",
"612 -10 OFFCURVE",
"691 32 OFFCURVE",
"691 138 CURVE SMOOTH",
"691 243 OFFCURVE",
"632 288 OFFCURVE",
"557 318 CURVE SMOOTH",
"457 358 LINE SMOOTH",
"409 377 OFFCURVE",
"360 399 OFFCURVE",
"360 438 CURVE SMOOTH",
"360 471 OFFCURVE",
"383 484 OFFCURVE",
"406 484 CURVE SMOOTH",
"453 484 OFFCURVE",
"476 430 OFFCURVE",
"476 336 CURVE SMOOTH",
"476 180 OFFCURVE",
"415 65 OFFCURVE",
"315 65 CURVE SMOOTH",
"248 65 OFFCURVE",
"200 127 OFFCURVE",
"200 266 CURVE SMOOTH",
"200 415 OFFCURVE",
"223 473 OFFCURVE",
"268 486 CURVE",
"268 544 LINE",
"147 544 OFFCURVE",
"45 458 OFFCURVE",
"45 267 CURVE SMOOTH",
"45 83 OFFCURVE",
"141 -10 OFFCURVE",
"292 -10 CURVE SMOOTH"
);
}
);
width = 696;
},
{
layerId = UUID0;
paths = (
{
closed = 1;
nodes = (
"463 -10 OFFCURVE",
"534 175 OFFCURVE",
"534 336 CURVE SMOOTH",
"534 487 OFFCURVE",
"477 547 OFFCURVE",
"404 547 CURVE SMOOTH",
"342 547 OFFCURVE",
"304 500 OFFCURVE",
"304 437 CURVE SMOOTH",
"304 355 OFFCURVE",
"344 292 OFFCURVE",
"418 262 CURVE SMOOTH",
"518 222 LINE SMOOTH",
"571 201 OFFCURVE",
"614 170 OFFCURVE",
"614 112 CURVE SMOOTH",
"614 79 OFFCURVE",
"599 52 OFFCURVE",
"559 52 CURVE SMOOTH",
"544 52 OFFCURVE",
"531 56 OFFCURVE",
"506 65 CURVE",
"502 54 OFFCURVE",
"499 47 OFFCURVE",
"499 32 CURVE SMOOTH",
"499 8 OFFCURVE",
"520 -10 OFFCURVE",
"561 -10 CURVE SMOOTH",
"608 -10 OFFCURVE",
"674 32 OFFCURVE",
"674 138 CURVE SMOOTH",
"674 243 OFFCURVE",
"625 283 OFFCURVE",
"550 313 CURVE SMOOTH",
"450 353 LINE SMOOTH",
"402 372 OFFCURVE",
"364 399 OFFCURVE",
"364 448 CURVE SMOOTH",
"364 478 OFFCURVE",
"381 494 OFFCURVE",
"404 494 CURVE SMOOTH",
"446 494 OFFCURVE",
"474 430 OFFCURVE",
"474 336 CURVE SMOOTH",
"474 180 OFFCURVE",
"411 54 OFFCURVE",
"304 54 CURVE SMOOTH",
"215 54 OFFCURVE",
"162 124 OFFCURVE",
"162 266 CURVE SMOOTH",
"162 413 OFFCURVE",
"192 493 OFFCURVE",
"278 502 CURVE",
"278 544 LINE",
"168 544 OFFCURVE",
"65 458 OFFCURVE",
"65 267 CURVE SMOOTH",
"65 75 OFFCURVE",
"160 -10 OFFCURVE",
"289 -10 CURVE SMOOTH"
);
}
);
width = 684;
}
);
leftKerningGroup = "ka-vit";
leftMetricsKey = "ka-vit";
rightKerningGroup = "a-vit";
unicode = 10597;
script = vithkuqi;
category = Letter;
subCategory = Lowercase;
},
{
glyphname = "bbe-vit";
lastChange = "2021-11-04 06:35:00 +0000";
layers = (
{
layerId = UUID0;
paths = (
{
closed = 1;
nodes = (
"514 -10 OFFCURVE",
"532 -9 OFFCURVE",
"551 -7 CURVE",
"551 42 LINE",
"537 42 LINE SMOOTH",
"483 42 OFFCURVE",
"449 76 OFFCURVE",
"449 136 CURVE SMOOTH",
"449 324 LINE SMOOTH",
"449 455 OFFCURVE",
"351 498 OFFCURVE",
"258 498 CURVE SMOOTH",
"105 498 OFFCURVE",
"35 394 OFFCURVE",
"35 259 CURVE SMOOTH",
"35 195 OFFCURVE",
"61 151 OFFCURVE",
"120 151 CURVE SMOOTH",
"175 151 OFFCURVE",
"204 195 OFFCURVE",
"204 240 CURVE SMOOTH",
"204 611 LINE SMOOTH",
"204 687 OFFCURVE",
"233 719 OFFCURVE",
"269 719 CURVE SMOOTH",
"296 719 OFFCURVE",
"319 700 OFFCURVE",
"347 652 CURVE",
"392 663 OFFCURVE",
"404 681 OFFCURVE",
"404 704 CURVE SMOOTH",
"404 744 OFFCURVE",
"355 771 OFFCURVE",
"286 771 CURVE SMOOTH",
"199 771 OFFCURVE",
"144 717 OFFCURVE",
"144 619 CURVE SMOOTH",
"144 240 LINE SMOOTH",
"144 222 OFFCURVE",
"135 204 OFFCURVE",
"120 204 CURVE SMOOTH",
"102 204 OFFCURVE",
"95 227 OFFCURVE",
"95 259 CURVE SMOOTH",
"95 371 OFFCURVE",
"144 445 OFFCURVE",
"240 445 CURVE SMOOTH",
"321 445 OFFCURVE",
"358 395 OFFCURVE",
"358 317 CURVE SMOOTH",
"358 131 LINE SMOOTH",
"358 38 OFFCURVE",
"392 -10 OFFCURVE",
"501 -10 CURVE SMOOTH"
);
}
);
width = 556;
},
{
layerId = "58AAA307-6DE9-4107-B80A-C255AE991657";
paths = (
{
closed = 1;
nodes = (
"540 -10 OFFCURVE",
"546 -9 OFFCURVE",
"565 -7 CURVE",
"565 52 LINE",
"551 52 LINE SMOOTH",
"507 52 OFFCURVE",
"473 76 OFFCURVE",
"473 136 CURVE SMOOTH",
"473 346 LINE SMOOTH",
"473 458 OFFCURVE",
"395 500 OFFCURVE",
"263 500 CURVE SMOOTH",
"116 500 OFFCURVE",
"40 403 OFFCURVE",
"40 288 CURVE SMOOTH",
"40 177 OFFCURVE",
"81 143 OFFCURVE",
"141 143 CURVE SMOOTH",
"191 143 OFFCURVE",
"225 173 OFFCURVE",
"225 224 CURVE SMOOTH",
"225 610 LINE SMOOTH",
"225 686 OFFCURVE",
"249 708 OFFCURVE",
"285 708 CURVE SMOOTH",
"312 708 OFFCURVE",
"337 694 OFFCURVE",
"365 646 CURVE",
"420 657 OFFCURVE",
"430 680 OFFCURVE",
"430 703 CURVE SMOOTH",
"430 743 OFFCURVE",
"381 770 OFFCURVE",
"302 770 CURVE SMOOTH",
"207 770 OFFCURVE",
"155 720 OFFCURVE",
"155 618 CURVE SMOOTH",
"155 224 LINE SMOOTH",
"155 210 OFFCURVE",
"148 206 OFFCURVE",
"141 206 CURVE SMOOTH",
"124 206 OFFCURVE",
"110 229 OFFCURVE",
"110 288 CURVE SMOOTH",
"110 380 OFFCURVE",
"153 437 OFFCURVE",
"249 437 CURVE SMOOTH",
"296 437 OFFCURVE",
"321 399 OFFCURVE",
"321 339 CURVE SMOOTH",
"321 131 LINE SMOOTH",
"321 38 OFFCURVE",
"356 -10 OFFCURVE",
"525 -10 CURVE SMOOTH"
);
}
);
width = 570;
}
);
leftKerningGroup = "bbe-vit";
rightKerningGroup = "bbe-vit";
unicode = 10598;
script = vithkuqi;
category = Letter;
subCategory = Lowercase;
},
{
glyphname = "be-vit";
lastChange = "2021-11-04 06:35:00 +0000";
layers = (
{
layerId = "58AAA307-6DE9-4107-B80A-C255AE991657";
paths = (
{
closed = 1;
nodes = (
"298 -11 OFFCURVE",
"328 -4 OFFCURVE",
"345 1 CURVE",
"345 55 LINE",
"324 54 OFFCURVE",
"315 52 OFFCURVE",
"291 52 CURVE SMOOTH",
"255 52 OFFCURVE",
"225 74 OFFCURVE",
"225 141 CURVE SMOOTH",
"225 175 LINE SMOOTH",
"225 195 OFFCURVE",
"225 217 OFFCURVE",
"219 283 CURVE",
"226 283 LINE",
"253 211 OFFCURVE",
"287 191 OFFCURVE",
"339 191 CURVE SMOOTH",
"407 191 OFFCURVE",
"454 270 OFFCURVE",
"454 349 CURVE SMOOTH",
"454 499 OFFCURVE",
"361 546 OFFCURVE",
"271 545 CURVE SMOOTH",
"245 545 OFFCURVE",
"216 541 OFFCURVE",
"196 535 CURVE",
"226 509 LINE",
"226 610 LINE SMOOTH",
"226 675 OFFCURVE",
"244 718 OFFCURVE",
"287 720 CURVE",
"287 770 LINE",
"166 772 OFFCURVE",
"70 720 OFFCURVE",
"70 583 CURVE SMOOTH",
"70 145 LINE SMOOTH",
"70 34 OFFCURVE",
"158 -11 OFFCURVE",
"267 -11 CURVE SMOOTH"
);
},
{
closed = 1;
nodes = (
"265 318 OFFCURVE",
"225 334 OFFCURVE",
"225 369 CURVE SMOOTH",
"225 407 OFFCURVE",
"266 431 OFFCURVE",
"311 431 CURVE SMOOTH",
"354 431 OFFCURVE",
"388 415 OFFCURVE",
"388 380 CURVE SMOOTH",
"388 344 OFFCURVE",
"355 318 OFFCURVE",
"305 318 CURVE SMOOTH"
);
}
);
width = 504;
},
{
layerId = UUID0;
paths = (
{
closed = 1;
nodes = (
"257 -11 OFFCURVE",
"297 -3 OFFCURVE",
"314 5 CURVE",
"314 49 LINE",
"293 45 OFFCURVE",
"274 42 OFFCURVE",
"250 42 CURVE SMOOTH",
"204 42 OFFCURVE",
"174 74 OFFCURVE",
"174 141 CURVE SMOOTH",
"174 205 LINE SMOOTH",
"174 242 OFFCURVE",
"174 274 OFFCURVE",
"168 304 CURVE",
"175 304 LINE",
"202 278 OFFCURVE",
"236 257 OFFCURVE",
"278 256 CURVE SMOOTH",
"346 257 OFFCURVE",
"392 306 OFFCURVE",
"391 385 CURVE SMOOTH",
"392 495 OFFCURVE",
"328 546 OFFCURVE",
"250 545 CURVE SMOOTH",
"204 545 OFFCURVE",
"174 533 OFFCURVE",
"154 530 CURVE",
"172 520 LINE",
"172 604 LINE SMOOTH",
"172 668 OFFCURVE",
"186 709 OFFCURVE",
"230 725 CURVE",
"230 771 LINE",
"119 760 OFFCURVE",
"80 687 OFFCURVE",
"80 594 CURVE SMOOTH",
"80 145 LINE SMOOTH",
"80 34 OFFCURVE",
"124 -11 OFFCURVE",
"216 -11 CURVE SMOOTH"
);
},
{
closed = 1;
nodes = (
"204 319 OFFCURVE",
"175 347 OFFCURVE",
"174 391 CURVE SMOOTH",
"175 439 OFFCURVE",
"201 482 OFFCURVE",
"265 482 CURVE SMOOTH",
"306 482 OFFCURVE",
"337 455 OFFCURVE",
"336 410 CURVE SMOOTH",
"337 364 OFFCURVE",
"309 319 OFFCURVE",
"245 319 CURVE SMOOTH"
);
}
);
width = 446;
}
);
unicode = 10599;
script = vithkuqi;
category = Letter;
subCategory = Lowercase;
},
{
glyphname = "ce-vit";
lastChange = "2021-11-04 06:35:00 +0000";
layers = (
{
layerId = UUID0;
paths = (
{
closed = 1;
nodes = (
"260 -250 OFFCURVE",
"278 -247 OFFCURVE",
"301 -239 CURVE",
"301 -192 LINE",
"290 -195 OFFCURVE",
"271 -197 OFFCURVE",
"258 -197 CURVE SMOOTH",
"211 -197 OFFCURVE",
"183 -169 OFFCURVE",
"183 -113 CURVE SMOOTH",
"183 -15 OFFCURVE",
"220 55 OFFCURVE",
"323 160 CURVE",
"323 212 LINE",
"224 212 LINE SMOOTH",
"201 212 OFFCURVE",
"179 212 OFFCURVE",
"151 206 CURVE",
"133 193 LINE",
"267 252 OFFCURVE",
"362 305 OFFCURVE",
"362 413 CURVE SMOOTH",
"362 491 OFFCURVE",
"299 546 OFFCURVE",
"193 546 CURVE SMOOTH",
"101 546 OFFCURVE",
"39 500 OFFCURVE",
"39 424 CURVE SMOOTH",
"39 352 OFFCURVE",
"90 302 OFFCURVE",
"157 302 CURVE SMOOTH",
"189 302 OFFCURVE",
"202 319 OFFCURVE",
"202 339 CURVE SMOOTH",
"202 352 OFFCURVE",
"196 366 OFFCURVE",
"185 376 CURVE",
"176 373 OFFCURVE",
"167 371 OFFCURVE",
"157 371 CURVE SMOOTH",
"127 371 OFFCURVE",
"99 389 OFFCURVE",
"99 424 CURVE SMOOTH",
"99 462 OFFCURVE",
"130 485 OFFCURVE",
"176 485 CURVE SMOOTH",
"221 485 OFFCURVE",
"260 462 OFFCURVE",
"260 396 CURVE SMOOTH",
"260 305 OFFCURVE",
"180 250 OFFCURVE",
"98 205 CURVE",
"98 155 LINE",
"213 155 LINE SMOOTH",
"245 155 OFFCURVE",
"267 157 OFFCURVE",
"279 161 CURVE",
"288 177 LINE",
"143 49 OFFCURVE",
"86 -31 OFFCURVE",
"86 -114 CURVE SMOOTH",
"86 -219 OFFCURVE",
"157 -250 OFFCURVE",
"232 -250 CURVE SMOOTH"
);
}
);
width = 406;
},
{
layerId = "58AAA307-6DE9-4107-B80A-C255AE991657";
paths = (
{
closed = 1;
nodes = (
"287 -249 OFFCURVE",
"308 -244 OFFCURVE",
"325 -238 CURVE",
"325 -181 LINE",
"314 -184 OFFCURVE",
"300 -186 OFFCURVE",
"287 -186 CURVE SMOOTH",
"262 -186 OFFCURVE",
"235 -163 OFFCURVE",
"235 -112 CURVE SMOOTH",
"235 16 OFFCURVE",
"277 74 OFFCURVE",
"343 156 CURVE",
"343 217 LINE",
"281 217 LINE SMOOTH",
"213 217 OFFCURVE",
"166 210 OFFCURVE",
"132 204 CURVE",
"129 189 LINE",
"316 229 OFFCURVE",
"393 308 OFFCURVE",
"393 412 CURVE SMOOTH",
"393 501 OFFCURVE",
"316 549 OFFCURVE",
"199 549 CURVE SMOOTH",
"100 549 OFFCURVE",
"35 505 OFFCURVE",
"35 420 CURVE SMOOTH",
"35 359 OFFCURVE",
"79 307 OFFCURVE",
"144 307 CURVE SMOOTH",
"192 307 OFFCURVE",
"214 329 OFFCURVE",
"214 354 CURVE SMOOTH",
"214 368 OFFCURVE",
"207 382 OFFCURVE",
"193 395 CURVE",
"173 386 OFFCURVE",
"157 382 OFFCURVE",
"144 382 CURVE SMOOTH",
"117 382 OFFCURVE",
"105 400 OFFCURVE",
"105 420 CURVE SMOOTH",
"105 454 OFFCURVE",
"132 474 OFFCURVE",
"169 474 CURVE SMOOTH",
"216 474 OFFCURVE",
"238 446 OFFCURVE",
"238 390 CURVE SMOOTH",
"238 324 OFFCURVE",
"207 248 OFFCURVE",
"96 213 CURVE",
"96 149 LINE",
"211 149 LINE SMOOTH",
"233 149 OFFCURVE",
"274 151 OFFCURVE",
"286 160 CURVE",
"304 176 LINE",
"131 62 OFFCURVE",
"80 -33 OFFCURVE",
"80 -113 CURVE SMOOTH",
"80 -219 OFFCURVE",
"154 -249 OFFCURVE",
"261 -249 CURVE SMOOTH"
);
}
);
width = 443;
}
);
unicode = 1059A;
script = vithkuqi;
category = Letter;
subCategory = Lowercase;
},
{
glyphname = "che-cit";
lastChange = "2021-11-04 06:35:00 +0000";
layers = (
{
layerId = UUID0;
paths = (
{
closed = 1;
nodes = (
"418 -9 OFFCURVE",
"504 70 OFFCURVE",
"504 232 CURVE SMOOTH",
"504 336 OFFCURVE",
"458 388 OFFCURVE",
"388 388 CURVE SMOOTH",
"301 388 OFFCURVE",
"257 315 OFFCURVE",
"257 210 CURVE SMOOTH",
"257 64 OFFCURVE",
"363 -9 OFFCURVE",
"491 -9 CURVE SMOOTH",
"621 -9 OFFCURVE",
"693 80 OFFCURVE",
"693 232 CURVE SMOOTH",
"693 398 OFFCURVE",
"584 468 OFFCURVE",
"474 534 CURVE SMOOTH",
"383 588 OFFCURVE",
"332 608 OFFCURVE",
"332 658 CURVE SMOOTH",
"332 691 OFFCURVE",
"351 715 OFFCURVE",
"379 715 CURVE SMOOTH",
"414 715 OFFCURVE",
"452 682 OFFCURVE",
"490 644 CURVE",
"546 662 OFFCURVE",
"572 770 OFFCURVE",
"408 770 CURVE SMOOTH",
"316 770 OFFCURVE",
"266 729 OFFCURVE",
"266 658 CURVE SMOOTH",
"266 573 OFFCURVE",
"342 539 OFFCURVE",
"438 485 CURVE SMOOTH",
"599 395 OFFCURVE",
"633 317 OFFCURVE",
"633 232 CURVE SMOOTH",
"633 121 OFFCURVE",
"590 44 OFFCURVE",
"494 44 CURVE SMOOTH",
"412 44 OFFCURVE",
"354 92 OFFCURVE",
"354 210 CURVE SMOOTH",
"354 291 OFFCURVE",
"374 324 OFFCURVE",
"403 324 CURVE SMOOTH",
"431 324 OFFCURVE",
"444 288 OFFCURVE",
"444 230 CURVE SMOOTH",
"444 70 OFFCURVE",
"375 43 OFFCURVE",
"291 43 CURVE SMOOTH",
"186 43 OFFCURVE",
"152 125 OFFCURVE",
"152 269 CURVE SMOOTH",
"152 413 OFFCURVE",
"189 494 OFFCURVE",
"252 503 CURVE",
"252 546 LINE",
"143 542 OFFCURVE",
"55 458 OFFCURVE",
"55 269 CURVE SMOOTH",
"55 68 OFFCURVE",
"128 -9 OFFCURVE",
"291 -9 CURVE SMOOTH"
);
}
);
width = 718;
},
{
layerId = "58AAA307-6DE9-4107-B80A-C255AE991657";
paths = (
{
closed = 1;
nodes = (
"469 -9 OFFCURVE",
"567 79 OFFCURVE",
"567 251 CURVE SMOOTH",
"567 353 OFFCURVE",
"521 396 OFFCURVE",
"431 396 CURVE SMOOTH",
"330 396 OFFCURVE",
"275 326 OFFCURVE",
"275 216 CURVE SMOOTH",
"275 74 OFFCURVE",
"404 -8 OFFCURVE",
"542 -8 CURVE SMOOTH",
"660 -8 OFFCURVE",
"749 80 OFFCURVE",
"749 232 CURVE SMOOTH",
"749 386 OFFCURVE",
"637 456 OFFCURVE",
"496 535 CURVE SMOOTH",
"414 581 OFFCURVE",
"376 608 OFFCURVE",
"376 658 CURVE SMOOTH",
"376 681 OFFCURVE",
"395 705 OFFCURVE",
"423 705 CURVE SMOOTH",
"458 705 OFFCURVE",
"504 662 OFFCURVE",
"542 634 CURVE",
"598 652 OFFCURVE",
"626 770 OFFCURVE",
"452 770 CURVE SMOOTH",
"360 770 OFFCURVE",
"300 729 OFFCURVE",
"300 658 CURVE SMOOTH",
"300 573 OFFCURVE",
"386 531 OFFCURVE",
"483 474 CURVE SMOOTH",
"635 385 OFFCURVE",
"679 317 OFFCURVE",
"679 232 CURVE SMOOTH",
"679 131 OFFCURVE",
"620 55 OFFCURVE",
"545 55 CURVE SMOOTH",
"473 55 OFFCURVE",
"430 102 OFFCURVE",
"430 216 CURVE SMOOTH",
"430 299 OFFCURVE",
"444 332 OFFCURVE",
"465 332 CURVE SMOOTH",
"487 332 OFFCURVE",
"497 305 OFFCURVE",
"497 249 CURVE SMOOTH",
"497 113 OFFCURVE",
"440 53 OFFCURVE",
"342 53 CURVE SMOOTH",
"246 53 OFFCURVE",
"200 125 OFFCURVE",
"200 269 CURVE SMOOTH",
"199 418 OFFCURVE",
"232 481 OFFCURVE",
"281 497 CURVE",
"281 547 LINE",
"145 547 OFFCURVE",
"44 460 OFFCURVE",
"45 269 CURVE SMOOTH",
"45 80 OFFCURVE",
"149 -9 OFFCURVE",
"342 -9 CURVE SMOOTH"
);
}
);
width = 789;
}
);
leftKerningGroup = "ka-vit";
leftMetricsKey = "o-vit";
rightKerningGroup = "che-cit";
unicode = 1059B;
script = vithkuqi;
category = Letter;
subCategory = Lowercase;
},
{
glyphname = "de-vit";
lastChange = "2021-11-04 06:35:00 +0000";
layers = (
{
components = (
{
name = "dhe-vit";
transform = "{1, 0, 0, 1, 25, 0}";
}
);
layerId = UUID0;
paths = (
{
closed = 1;
nodes = (
"315 486 LINE",
"315 536 LINE",
"25 536 LINE",
"25 486 LINE"
);
}
);
width = 538;
},
{
components = (
{
name = "dhe-vit";
}
);
layerId = "58AAA307-6DE9-4107-B80A-C255AE991657";
paths = (
{
closed = 1;
nodes = (
"384 467 LINE",
"384 536 LINE",
"0 536 LINE",
"0 467 LINE"
);
}
);
width = 601;
}
);
rightKerningGroup = "de-vit";
rightMetricsKey = "=dhe-vit";
unicode = 1059C;
script = vithkuqi;
category = Letter;
subCategory = Lowercase;
},
{
glyphname = "dhe-vit";
lastChange = "2021-11-04 06:35:00 +0000";
layers = (
{
layerId = UUID0;
paths = (
{
closed = 1;
nodes = (
"80 760 LINE",
"80 155 LINE SMOOTH",
"80 50 OFFCURVE",
"126 -10 OFFCURVE",
"237 -10 CURVE SMOOTH",
"281 -10 OFFCURVE",
"330 12 OFFCURVE",
"355 40 CURVE",
"359 40 LINE",
"380 11 OFFCURVE",
"420 -7 OFFCURVE",
"474 -7 CURVE SMOOTH",
"486 -7 OFFCURVE",
"497 -6 OFFCURVE",
"508 -3 CURVE",
"508 41 LINE",
"464 41 OFFCURVE",
"420 54 OFFCURVE",
"391 103 CURVE",
"407 158 OFFCURVE",
"420 257 OFFCURVE",
"420 298 CURVE SMOOTH",
"420 384 OFFCURVE",
"398 415 OFFCURVE",
"368 415 CURVE SMOOTH",
"338 415 OFFCURVE",
"314 384 OFFCURVE",
"314 298 CURVE SMOOTH",
"314 257 OFFCURVE",
"322 158 OFFCURVE",
"336 83 CURVE",
"310 61 OFFCURVE",
"279 54 OFFCURVE",
"252 54 CURVE SMOOTH",
"198 54 OFFCURVE",
"174 96 OFFCURVE",
"174 163 CURVE SMOOTH",
"174 760 LINE"
);
}
);
width = 513;
},
{
layerId = "58AAA307-6DE9-4107-B80A-C255AE991657";
paths = (
{
closed = 1;
nodes = (
"90 760 LINE",
"90 155 LINE SMOOTH",
"90 47 OFFCURVE",
"152 -10 OFFCURVE",
"274 -10 CURVE SMOOTH",
"339 -10 OFFCURVE",
"387 10 OFFCURVE",
"415 40 CURVE",
"424 40 LINE",
"455 11 OFFCURVE",
"498 -7 OFFCURVE",
"562 -7 CURVE SMOOTH",
"574 -7 OFFCURVE",
"585 -6 OFFCURVE",
"596 -3 CURVE",
"596 55 LINE",
"532 55 OFFCURVE",
"480 67 OFFCURVE",
"451 108 CURVE",
"476 171 OFFCURVE",
"492 266 OFFCURVE",
"492 307 CURVE SMOOTH",
"492 393 OFFCURVE",
"465 424 OFFCURVE",
"428 424 CURVE SMOOTH",
"392 424 OFFCURVE",
"362 393 OFFCURVE",
"362 307 CURVE SMOOTH",
"362 266 OFFCURVE",
"372 171 OFFCURVE",
"396 96 CURVE",
"382 78 OFFCURVE",
"358 64 OFFCURVE",
"319 64 CURVE SMOOTH",
"269 64 OFFCURVE",
"242 106 OFFCURVE",
"242 163 CURVE SMOOTH",
"242 760 LINE"
);
}
);
width = 601;
}
);
rightKerningGroup = "de-vit";
unicode = 1059D;
script = vithkuqi;
category = Letter;
subCategory = Lowercase;
},
{
glyphname = "e-vit";
lastChange = "2021-11-04 06:35:00 +0000";
layers = (
{
layerId = UUID0;
paths = (
{
closed = 1;
nodes = (
"279 -10 OFFCURVE",
"337 52 OFFCURVE",
"337 203 CURVE SMOOTH",
"337 405 OFFCURVE",
"274 546 OFFCURVE",
"130 546 CURVE SMOOTH",
"78 546 OFFCURVE",
"41 528 OFFCURVE",
"10 500 CURVE",
"29 468 LINE",
"46 481 OFFCURVE",
"79 493 OFFCURVE",
"111 493 CURVE SMOOTH",
"208 493 OFFCURVE",
"240 394 OFFCURVE",
"240 204 CURVE SMOOTH",
"240 80 OFFCURVE",
"214 44 OFFCURVE",
"182 44 CURVE SMOOTH",
"157 44 OFFCURVE",
"130 76 OFFCURVE",
"130 178 CURVE SMOOTH",
"130 388 OFFCURVE",
"215 494 OFFCURVE",
"333 494 CURVE SMOOTH",
"425 494 OFFCURVE",
"447 447 OFFCURVE",
"447 366 CURVE SMOOTH",
"447 131 LINE SMOOTH",
"447 38 OFFCURVE",
"481 -10 OFFCURVE",
"590 -10 CURVE SMOOTH",
"605 -10 OFFCURVE",
"623 -9 OFFCURVE",
"642 -7 CURVE",
"642 42 LINE",
"628 42 LINE SMOOTH",
"574 42 OFFCURVE",
"541 76 OFFCURVE",
"541 136 CURVE SMOOTH",
"541 373 LINE SMOOTH",
"541 508 OFFCURVE",
"468 547 OFFCURVE",
"352 547 CURVE SMOOTH",
"182 547 OFFCURVE",
"70 406 OFFCURVE",
"70 176 CURVE SMOOTH",
"70 41 OFFCURVE",
"115 -10 OFFCURVE",
"190 -10 CURVE SMOOTH"
);
}
);
width = 647;
},
{
layerId = "58AAA307-6DE9-4107-B80A-C255AE991657";
paths = (
{
closed = 1;
nodes = (
"280 -10 OFFCURVE",
"371 33 OFFCURVE",
"371 203 CURVE SMOOTH",
"371 405 OFFCURVE",
"279 546 OFFCURVE",
"135 546 CURVE SMOOTH",
"73 546 OFFCURVE",
"36 528 OFFCURVE",
"5 500 CURVE",
"24 458 LINE",
"41 471 OFFCURVE",
"74 483 OFFCURVE",
"116 483 CURVE SMOOTH",
"203 483 OFFCURVE",
"216 394 OFFCURVE",
"216 204 CURVE SMOOTH",
"216 90 OFFCURVE",
"215 54 OFFCURVE",
"183 54 CURVE SMOOTH",
"161 54 OFFCURVE",
"140 86 OFFCURVE",
"140 178 CURVE SMOOTH",
"140 388 OFFCURVE",
"220 484 OFFCURVE",
"338 484 CURVE SMOOTH",
"409 484 OFFCURVE",
"428 447 OFFCURVE",
"428 366 CURVE SMOOTH",
"428 131 LINE SMOOTH",
"428 38 OFFCURVE",
"475 -10 OFFCURVE",
"622 -10 CURVE SMOOTH",
"627 -10 OFFCURVE",
"645 -9 OFFCURVE",
"664 -7 CURVE",
"664 52 LINE",
"650 52 LINE SMOOTH",
"606 52 OFFCURVE",
"593 86 OFFCURVE",
"593 146 CURVE SMOOTH",
"593 373 LINE SMOOTH",
"593 513 OFFCURVE",
"495 547 OFFCURVE",
"364 547 CURVE SMOOTH",
"182 547 OFFCURVE",
"70 406 OFFCURVE",
"70 176 CURVE SMOOTH",
"70 41 OFFCURVE",
"119 -10 OFFCURVE",
"201 -10 CURVE SMOOTH"
);
}
);
width = 669;
}
);
unicode = 1059E;
script = vithkuqi;
category = Letter;
subCategory = Lowercase;
},
{
glyphname = "ei-vit";
lastChange = "2021-11-04 06:35:00 +0000";
layers = (
{
layerId = UUID0;
paths = (
{
closed = 1;
nodes = (
"466 -10 OFFCURVE",
"527 53 OFFCURVE",
"527 98 CURVE SMOOTH",
"527 115 OFFCURVE",
"517 128 OFFCURVE",
"508 132 CURVE",
"490 106 OFFCURVE",
"461 54 OFFCURVE",
"387 54 CURVE SMOOTH",
"301 54 OFFCURVE",
"244 118 OFFCURVE",
"244 233 CURVE SMOOTH",
"244 396 OFFCURVE",
"336 494 OFFCURVE",
"410 494 CURVE SMOOTH",
"436 494 OFFCURVE",
"448 480 OFFCURVE",
"448 454 CURVE SMOOTH",
"448 393 OFFCURVE",
"346 336 OFFCURVE",
"256 336 CURVE SMOOTH",
"216 336 OFFCURVE",
"149 356 OFFCURVE",
"102 434 CURVE",
"62 434 LINE",
"44 387 OFFCURVE",
"28 357 OFFCURVE",
"-15 319 CURVE",
"13 283 LINE",
"49 305 OFFCURVE",
"94 352 OFFCURVE",
"94 383 CURVE",
"62 343 LINE",
"100 305 OFFCURVE",
"168 272 OFFCURVE",
"246 272 CURVE SMOOTH",
"359 272 OFFCURVE",
"508 351 OFFCURVE",
"508 455 CURVE SMOOTH",
"508 517 OFFCURVE",
"475 547 OFFCURVE",
"412 547 CURVE SMOOTH",
"275 547 OFFCURVE",
"149 396 OFFCURVE",
"149 230 CURVE SMOOTH",
"149 69 OFFCURVE",
"230 -10 OFFCURVE",
"363 -10 CURVE SMOOTH"
);
}
);
width = 557;
},
{
layerId = "58AAA307-6DE9-4107-B80A-C255AE991657";
paths = (
{
closed = 1;
nodes = (
"538 -10 OFFCURVE",
"594 50 OFFCURVE",
"594 100 CURVE SMOOTH",
"594 117 OFFCURVE",
"586 136 OFFCURVE",
"570 146 CURVE",
"547 100 OFFCURVE",
"507 65 OFFCURVE",
"443 65 CURVE SMOOTH",
"360 65 OFFCURVE",
"312 132 OFFCURVE",
"312 228 CURVE SMOOTH",
"312 403 OFFCURVE",
"383 485 OFFCURVE",
"458 485 CURVE SMOOTH",
"487 485 OFFCURVE",
"502 474 OFFCURVE",
"502 452 CURVE SMOOTH",
"502 405 OFFCURVE",
"459 341 OFFCURVE",
"269 341 CURVE SMOOTH",
"220 341 OFFCURVE",
"174 374 OFFCURVE",
"134 431 CURVE",
"96 431 LINE",
"71 371 OFFCURVE",
"41 319 OFFCURVE",
"5 288 CURVE",
"39 252 LINE",
"69 267 OFFCURVE",
"111 298 OFFCURVE",
"129 339 CURVE",
"101 324 LINE",
"167 272 OFFCURVE",
"224 267 OFFCURVE",
"299 267 CURVE SMOOTH",
"440 267 OFFCURVE",
"571 337 OFFCURVE",
"572 452 CURVE SMOOTH",
"573 517 OFFCURVE",
"534 548 OFFCURVE",
"458 548 CURVE SMOOTH",
"275 548 OFFCURVE",
"157 400 OFFCURVE",
"157 232 CURVE SMOOTH",
"157 66 OFFCURVE",
"252 -10 OFFCURVE",
"413 -10 CURVE SMOOTH"
);
}
);
width = 614;
}
);
unicode = 1059F;
script = vithkuqi;
category = Letter;
subCategory = Lowercase;
},
{
glyphname = "fe-vit";
lastChange = "2021-11-04 06:35:00 +0000";
layers = (
{
layerId = "58AAA307-6DE9-4107-B80A-C255AE991657";
paths = (
{
closed = 1;
nodes = (
"53 86 LINE",
"52 106 OFFCURVE",
"60 116 OFFCURVE",
"73 116 CURVE SMOOTH",
"127 116 OFFCURVE",
"167 -11 OFFCURVE",
"266 -11 CURVE SMOOTH",
"371 -11 OFFCURVE",
"467 190 OFFCURVE",
"467 356 CURVE SMOOTH",
"467 476 OFFCURVE",
"419 547 OFFCURVE",
"307 547 CURVE SMOOTH",
"232 547 OFFCURVE",
"152 507 OFFCURVE",
"152 398 CURVE SMOOTH",
"152 301 OFFCURVE",
"249 218 OFFCURVE",
"372 218 CURVE SMOOTH",
"462 218 OFFCURVE",
"501 264 OFFCURVE",
"507 269 CURVE",
"513 265 LINE",
"495 229 OFFCURVE",
"471 190 OFFCURVE",
"474 133 CURVE SMOOTH",
"481 22 OFFCURVE",
"576 -8 OFFCURVE",
"674 -8 CURVE SMOOTH",
"688 -8 OFFCURVE",
"722 -5 OFFCURVE",
"747 1 CURVE",
"747 58 LINE",
"731 53 OFFCURVE",
"717 52 OFFCURVE",
"703 52 CURVE SMOOTH",
"667 52 OFFCURVE",
"636 72 OFFCURVE",
"632 143 CURVE SMOOTH",
"626 237 OFFCURVE",
"659 361 OFFCURVE",
"715 467 CURVE",
"653 494 LINE",
"552 365 OFFCURVE",
"466 278 OFFCURVE",
"413 278 CURVE SMOOTH",
"341 278 OFFCURVE",
"307 331 OFFCURVE",
"307 402 CURVE SMOOTH",
"307 455 OFFCURVE",
"318 484 OFFCURVE",
"341 484 CURVE SMOOTH",
"368 484 OFFCURVE",
"397 440 OFFCURVE",
"397 356 CURVE SMOOTH",
"397 239 OFFCURVE",
"361 115 OFFCURVE",
"308 115 CURVE SMOOTH",
"258 115 OFFCURVE",
"198 251 OFFCURVE",
"110 251 CURVE SMOOTH",
"50 251 OFFCURVE",
"5 190 OFFCURVE",
"5 118 CURVE SMOOTH",
"5 105 OFFCURVE",
"6 96 OFFCURVE",
"9 86 CURVE"
);
}
);
width = 752;
},
{
layerId = UUID0;
paths = (
{
closed = 1;
nodes = (
"47 136 LINE",
"46 156 OFFCURVE",
"57 163 OFFCURVE",
"65 163 CURVE SMOOTH",
"124 163 OFFCURVE",
"153 -11 OFFCURVE",
"252 -11 CURVE SMOOTH",
"357 -11 OFFCURVE",
"448 190 OFFCURVE",
"448 356 CURVE SMOOTH",
"448 476 OFFCURVE",
"405 547 OFFCURVE",
"310 547 CURVE SMOOTH",
"231 547 OFFCURVE",
"166 503 OFFCURVE",
"166 402 CURVE SMOOTH",
"166 301 OFFCURVE",
"235 226 OFFCURVE",
"358 226 CURVE SMOOTH",
"448 226 OFFCURVE",
"499 288 OFFCURVE",
"505 293 CURVE",
"511 289 LINE",
"493 253 OFFCURVE",
"476 190 OFFCURVE",
"476 143 CURVE SMOOTH",
"476 22 OFFCURVE",
"562 -8 OFFCURVE",
"650 -8 CURVE SMOOTH",
"674 -8 OFFCURVE",
"698 -6 OFFCURVE",
"723 -3 CURVE",
"723 44 LINE",
"707 42 OFFCURVE",
"693 42 OFFCURVE",
"679 42 CURVE SMOOTH",
"606 42 OFFCURVE",
"573 72 OFFCURVE",
"573 143 CURVE SMOOTH",
"573 237 OFFCURVE",
"605 341 OFFCURVE",
"651 447 CURVE",
"599 474 LINE",
"528 345 OFFCURVE",
"452 278 OFFCURVE",
"379 278 CURVE SMOOTH",
"314 278 OFFCURVE",
"264 331 OFFCURVE",
"264 406 CURVE SMOOTH",
"264 460 OFFCURVE",
"283 494 OFFCURVE",
"316 494 CURVE SMOOTH",
"359 494 OFFCURVE",
"388 440 OFFCURVE",
"388 356 CURVE SMOOTH",
"388 239 OFFCURVE",
"332 70 OFFCURVE",
"278 70 CURVE SMOOTH",
"229 70 OFFCURVE",
"180 241 OFFCURVE",
"89 241 CURVE SMOOTH",
"38 241 OFFCURVE",
"5 194 OFFCURVE",
"5 146 CURVE SMOOTH",
"5 142 OFFCURVE",
"5 139 OFFCURVE",
"5 136 CURVE"
);
}
);
width = 723;
}
);
unicode = 105A0;
script = vithkuqi;
category = Letter;
subCategory = Lowercase;
},
{
glyphname = "ga-vit";
lastChange = "2021-11-04 06:35:00 +0000";
layers = (
{
anchors = (
{
name = topright;
position = "{466, 536}";
}
);
layerId = UUID0;
paths = (
{
closed = 1;
nodes = (
"494 -9 OFFCURVE",
"558 60 OFFCURVE",
"558 158 CURVE SMOOTH",
"559 355 OFFCURVE",
"419 445 OFFCURVE",
"326 484 CURVE SMOOTH",
"207 534 OFFCURVE",
"178 598 OFFCURVE",
"178 650 CURVE SMOOTH",
"178 696 OFFCURVE",
"200 716 OFFCURVE",
"225 716 CURVE SMOOTH",
"262 716 OFFCURVE",
"285 670 OFFCURVE",
"285 591 CURVE SMOOTH",
"285 484 OFFCURVE",
"270 434 OFFCURVE",
"184 434 CURVE SMOOTH",
"134 434 OFFCURVE",
"98 459 OFFCURVE",
"79 477 CURVE",
"50 436 LINE",
"78 406 OFFCURVE",
"126 381 OFFCURVE",
"184 381 CURVE SMOOTH",
"319 381 OFFCURVE",
"382 477 OFFCURVE",
"382 591 CURVE SMOOTH",
"382 723 OFFCURVE",
"312 770 OFFCURVE",
"236 770 CURVE SMOOTH",
"155 770 OFFCURVE",
"118 715 OFFCURVE",
"118 650 CURVE SMOOTH",
"118 586 OFFCURVE",
"138 505 OFFCURVE",
"303 437 CURVE SMOOTH",
"406 395 OFFCURVE",
"498 299 OFFCURVE",
"498 158 CURVE SMOOTH",
"498 100 OFFCURVE",
"466 85 OFFCURVE",
"433 85 CURVE SMOOTH",
"378 85 OFFCURVE",
"241 176 OFFCURVE",
"146 176 CURVE SMOOTH",
"74 176 OFFCURVE",
"45 113 OFFCURVE",
"45 47 CURVE SMOOTH",
"45 27 OFFCURVE",
"49 6 OFFCURVE",
"52 0 CURVE",
"95 0 LINE",
"90 47 OFFCURVE",
"96 83 OFFCURVE",
"138 83 CURVE SMOOTH",
"203 83 OFFCURVE",
"337 -9 OFFCURVE",
"414 -9 CURVE SMOOTH"
);
}
);
width = 588;
},
{
anchors = (
{
name = topright;
position = "{517, 536}";
}
);
layerId = "58AAA307-6DE9-4107-B80A-C255AE991657";
paths = (
{
closed = 1;
nodes = (
"517 -9 OFFCURVE",
"581 50 OFFCURVE",
"578 188 CURVE SMOOTH",
"574 330 OFFCURVE",
"425 410 OFFCURVE",
"332 449 CURVE SMOOTH",
"213 499 OFFCURVE",
"185 583 OFFCURVE",
"185 633 CURVE SMOOTH",
"185 686 OFFCURVE",
"204 706 OFFCURVE",
"229 706 CURVE SMOOTH",
"261 706 OFFCURVE",
"282 670 OFFCURVE",
"282 590 CURVE SMOOTH",
"282 493 OFFCURVE",
"276 443 OFFCURVE",
"196 443 CURVE SMOOTH",
"135 443 OFFCURVE",
"94 468 OFFCURVE",
"75 486 CURVE",
"46 435 LINE",
"79 405 OFFCURVE",
"127 380 OFFCURVE",
"196 380 CURVE SMOOTH",
"343 380 OFFCURVE",
"437 468 OFFCURVE",
"437 590 CURVE SMOOTH",
"437 737 OFFCURVE",
"328 770 OFFCURVE",
"258 770 CURVE SMOOTH",
"159 770 OFFCURVE",
"115 715 OFFCURVE",
"115 633 CURVE SMOOTH",
"115 571 OFFCURVE",
"144 460 OFFCURVE",
"309 392 CURVE SMOOTH",
"412 350 OFFCURVE",
"511 270 OFFCURVE",
"511 191 CURVE SMOOTH",
"511 154 OFFCURVE",
"494 137 OFFCURVE",
"462 137 CURVE SMOOTH",
"404 137 OFFCURVE",
"247 228 OFFCURVE",
"152 228 CURVE SMOOTH",
"70 228 OFFCURVE",
"41 164 OFFCURVE",
"41 76 CURVE SMOOTH",
"41 47 OFFCURVE",
"48 13 OFFCURVE",
"54 0 CURVE",
"104 0 LINE",
"97 60 OFFCURVE",
"104 83 OFFCURVE",
"146 83 CURVE SMOOTH",
"211 83 OFFCURVE",
"358 -9 OFFCURVE",
"443 -9 CURVE SMOOTH"
);
}
);
width = 600;
}
);
leftKerningGroup = "ga-vit";
rightKerningGroup = "ga-vit";
unicode = 105A1;
script = vithkuqi;
category = Letter;
subCategory = Lowercase;
},
{
glyphname = "ha-vit";
lastChange = "2021-11-04 06:35:00 +0000";
layers = (
{
layerId = UUID0;
paths = (
{
closed = 1;
nodes = (
"238 2 CURVE",
"255 -6 OFFCURVE",
"267 -12 OFFCURVE",
"281 -12 CURVE SMOOTH",
"356 -12 OFFCURVE",
"384 61 OFFCURVE",
"384 107 CURVE SMOOTH",
"384 321 OFFCURVE",
"171 430 OFFCURVE",
"171 620 CURVE SMOOTH",
"171 683 OFFCURVE",
"189 717 OFFCURVE",
"228 717 CURVE SMOOTH",
"260 717 OFFCURVE",
"286 687 OFFCURVE",
"286 609 CURVE SMOOTH",
"286 388 OFFCURVE",
"130 164 OFFCURVE",
"15 27 CURVE",
"54 -9 LINE",
"232 196 OFFCURVE",
"345 440 OFFCURVE",
"345 609 CURVE SMOOTH",
"345 731 OFFCURVE",
"290 771 OFFCURVE",
"228 771 CURVE SMOOTH",
"130 771 OFFCURVE",
"78 693 OFFCURVE",
"78 604 CURVE SMOOTH",
"78 387 OFFCURVE",
"291 272 OFFCURVE",
"291 107 CURVE SMOOTH",
"291 55 OFFCURVE",
"270 36 OFFCURVE"
);
}
);
width = 429;
},
{
layerId = "58AAA307-6DE9-4107-B80A-C255AE991657";
paths = (
{
closed = 1;
nodes = (
"247 4 CURVE",
"264 -4 OFFCURVE",
"282 -10 OFFCURVE",
"314 -10 CURVE SMOOTH",
"389 -10 OFFCURVE",
"449 35 OFFCURVE",
"449 109 CURVE SMOOTH",
"449 323 OFFCURVE",
"236 389 OFFCURVE",
"236 599 CURVE SMOOTH",
"236 681 OFFCURVE",
"254 706 OFFCURVE",
"274 706 CURVE SMOOTH",
"298 706 OFFCURVE",
"312 686 OFFCURVE",
"312 588 CURVE SMOOTH",
"312 356 OFFCURVE",
"145 169 OFFCURVE",
"15 27 CURVE",
"64 -9 LINE",
"273 185 OFFCURVE",
"376 399 OFFCURVE",
"382 588 CURVE SMOOTH",
"386 738 OFFCURVE",
"337 770 OFFCURVE",
"246 770 CURVE SMOOTH",
"142 770 OFFCURVE",
"81 705 OFFCURVE",
"81 583 CURVE SMOOTH",
"81 321 OFFCURVE",
"294 263 OFFCURVE",
"294 108 CURVE SMOOTH",
"294 56 OFFCURVE",
"274 26 OFFCURVE"
);
}
);
width = 499;
}
);
unicode = 105A3;
script = vithkuqi;
category = Letter;
subCategory = Lowercase;
},
{
glyphname = "hha-vit";
lastChange = "2021-11-04 06:35:00 +0000";
layers = (
{
layerId = UUID0;
paths = (
{
closed = 1;
nodes = (
"339 -10 OFFCURVE",
"387 31 OFFCURVE",
"413 87 CURVE",
"450 87 LINE",
"416 265 LINE",
"414 123 OFFCURVE",
"382 54 OFFCURVE",
"286 55 CURVE SMOOTH",
"191 56 OFFCURVE",
"162 124 OFFCURVE",
"162 266 CURVE SMOOTH",
"162 445 OFFCURVE",
"194 496 OFFCURVE",
"253 496 CURVE SMOOTH",
"294 496 OFFCURVE",
"314 472 OFFCURVE",
"314 422 CURVE SMOOTH",
"314 378 OFFCURVE",
"297 343 OFFCURVE",
"269 310 CURVE",
"315 277 LINE",
"344 308 OFFCURVE",
"374 348 OFFCURVE",
"374 422 CURVE SMOOTH",
"374 523 OFFCURVE",
"319 546 OFFCURVE",
"253 546 CURVE SMOOTH",
"148 546 OFFCURVE",
"65 479 OFFCURVE",
"65 265 CURVE SMOOTH",
"65 66 OFFCURVE",
"123 -10 OFFCURVE",
"253 -10 CURVE SMOOTH"
);
},
{
closed = 1;
nodes = (
"505 -240 LINE",
"510 -22 OFFCURVE",
"554 91 OFFCURVE",
"600 188 CURVE",
"583 214 LINE",
"565 197 OFFCURVE",
"541 146 OFFCURVE",
"518 86 CURVE",
"510 86 LINE",
"510 536 LINE",
"416 536 LINE",
"416 146 LINE",
"423 99 LINE",
"419 79 OFFCURVE",
"416 44 OFFCURVE",
"416 -8 CURVE SMOOTH",
"416 -240 LINE"
);
},
{
closed = 1;
nodes = (
"809 -10 OFFCURVE",
"871 23 OFFCURVE",
"871 69 CURVE SMOOTH",
"871 87 OFFCURVE",
"864 100 OFFCURVE",
"854 108 CURVE",
"831 77 OFFCURVE",
"800 55 OFFCURVE",
"759 55 CURVE SMOOTH",
"675 55 OFFCURVE",
"648 124 OFFCURVE",
"648 266 CURVE SMOOTH",
"648 445 OFFCURVE",
"682 496 OFFCURVE",
"729 496 CURVE SMOOTH",
"774 496 OFFCURVE",
"781 449 OFFCURVE",
"781 386 CURVE",
"840 386 OFFCURVE",
"870 406 OFFCURVE",
"870 447 CURVE SMOOTH",
"870 516 OFFCURVE",
"811 546 OFFCURVE",
"729 546 CURVE SMOOTH",
"632 546 OFFCURVE",
"551 479 OFFCURVE",
"551 265 CURVE SMOOTH",
"551 69 OFFCURVE",
"616 -10 OFFCURVE",
"749 -10 CURVE SMOOTH"
);
}
);
width = 906;
},
{
layerId = "58AAA307-6DE9-4107-B80A-C255AE991657";
paths = (
{
closed = 1;
nodes = (
"347 -10 OFFCURVE",
"403 35 OFFCURVE",
"419 76 CURVE",
"429 76 LINE",
"420 261 LINE",
"420 170 OFFCURVE",
"396 65 OFFCURVE",
"298 65 CURVE SMOOTH",
"217 65 OFFCURVE",
"200 131 OFFCURVE",
"200 267 CURVE SMOOTH",
"200 438 OFFCURVE",
"217 488 OFFCURVE",
"268 488 CURVE SMOOTH",
"296 488 OFFCURVE",
"314 474 OFFCURVE",
"314 434 CURVE SMOOTH",
"314 354 OFFCURVE",
"285 331 OFFCURVE",
"250 303 CURVE",
"288 259 LINE",
"331 280 OFFCURVE",
"384 331 OFFCURVE",
"384 431 CURVE SMOOTH",
"384 514 OFFCURVE",
"349 549 OFFCURVE",
"258 549 CURVE SMOOTH",
"119 549 OFFCURVE",
"45 474 OFFCURVE",
"45 266 CURVE SMOOTH",
"45 49 OFFCURVE",
"127 -10 OFFCURVE",
"260 -10 CURVE SMOOTH"
);
},
{
closed = 1;
nodes = (
"567 -240 LINE",
"572 -22 OFFCURVE",
"608 63 OFFCURVE",
"675 160 CURVE",
"650 224 LINE",
"632 207 OFFCURVE",
"603 156 OFFCURVE",
"580 96 CURVE",
"572 96 LINE",
"572 536 LINE",
"420 536 LINE",
"420 121 LINE",
"427 74 LINE",
"423 54 OFFCURVE",
"420 19 OFFCURVE",
"420 -33 CURVE SMOOTH",
"420 -240 LINE"
);
},
{
closed = 1;
nodes = (
"909 -10 OFFCURVE",
"953 40 OFFCURVE",
"953 91 CURVE SMOOTH",
"953 109 OFFCURVE",
"947 127 OFFCURVE",
"935 137 CURVE",
"917 91 OFFCURVE",
"877 65 OFFCURVE",
"844 65 CURVE SMOOTH",
"778 65 OFFCURVE",
"767 103 OFFCURVE",
"767 267 CURVE SMOOTH",
"767 438 OFFCURVE",
"780 488 OFFCURVE",
"817 488 CURVE SMOOTH",
"844 488 OFFCURVE",
"855 438 OFFCURVE",
"855 359 CURVE",
"935 359 OFFCURVE",
"954 401 OFFCURVE",
"954 444 CURVE SMOOTH",
"954 509 OFFCURVE",
"904 549 OFFCURVE",
"807 549 CURVE SMOOTH",
"686 549 OFFCURVE",
"612 474 OFFCURVE",
"612 266 CURVE SMOOTH",
"612 49 OFFCURVE",
"694 -10 OFFCURVE",
"809 -10 CURVE SMOOTH"
);
}
);
width = 999;
}
);
leftKerningGroup = "ka-vit";
leftMetricsKey = "ka-vit";
unicode = 105A4;
script = vithkuqi;
category = Letter;
subCategory = Lowercase;
},
{
glyphname = "i-vit";
lastChange = "2021-11-04 06:35:00 +0000";
layers = (
{
anchors = (
{
name = top;
position = "{181, 760}";
}
);
layerId = UUID0;
paths = (
{
closed = 1;
nodes = (
"290 -8 OFFCURVE",
"308 -7 OFFCURVE",
"327 -5 CURVE",
"327 44 LINE",
"313 44 LINE SMOOTH",
"240 44 OFFCURVE",
"226 77 OFFCURVE",
"226 134 CURVE SMOOTH",
"226 536 LINE",
"139 536 LINE",
"132 480 LINE",
"138 411 LINE",
"134 384 OFFCURVE",
"132 356 OFFCURVE",
"132 329 CURVE SMOOTH",
"132 133 LINE SMOOTH",
"132 40 OFFCURVE",
"166 -8 OFFCURVE",
"275 -8 CURVE SMOOTH"
);
},
{
closed = 1;
nodes = (
"82 332 OFFCURVE",
"111 358 OFFCURVE",
"130 396 CURVE",
"156 396 LINE",
"139 536 LINE",
"114 446 OFFCURVE",
"80 388 OFFCURVE",
"25 349 CURVE",
"53 313 LINE"
);
},
{
closed = 1;
nodes = (
"212 645 OFFCURVE",
"238 661 OFFCURVE",
"238 707 CURVE SMOOTH",
"238 754 OFFCURVE",
"212 769 OFFCURVE",
"181 769 CURVE SMOOTH",
"149 769 OFFCURVE",
"124 754 OFFCURVE",
"124 707 CURVE SMOOTH",
"124 661 OFFCURVE",
"149 645 OFFCURVE",
"181 645 CURVE SMOOTH"
);
}
);
width = 347;
},
{
anchors = (
{
name = top;
position = "{186, 760}";
}
);
layerId = "58AAA307-6DE9-4107-B80A-C255AE991657";
paths = (
{
closed = 1;
nodes = (
"300 -10 OFFCURVE",
"317 -8 OFFCURVE",
"325 -7 CURVE",
"325 52 LINE",
"313 52 LINE",
"273 52 OFFCURVE",
"255 77 OFFCURVE",
"255 128 CURVE SMOOTH",
"256 536 LINE",
"115 536 LINE",
"104 480 LINE",
"114 411 LINE",
"107 384 OFFCURVE",
"103 356 OFFCURVE",
"103 329 CURVE SMOOTH",
"103 120 LINE SMOOTH",
"103 38 OFFCURVE",
"167 -10 OFFCURVE",
"273 -10 CURVE SMOOTH"
);
},
{
closed = 1;
nodes = (
"68 328 OFFCURVE",
"88 358 OFFCURVE",
"107 396 CURVE",
"133 396 LINE",
"115 536 LINE",
"90 446 OFFCURVE",
"60 388 OFFCURVE",
"5 349 CURVE",
"39 309 LINE"
);
},
{
closed = 1;
nodes = (
"232 626 OFFCURVE",
"272 649 OFFCURVE",
"272 698 CURVE SMOOTH",
"272 749 OFFCURVE",
"232 770 OFFCURVE",
"186 770 CURVE SMOOTH",
"138 770 OFFCURVE",
"101 749 OFFCURVE",
"101 698 CURVE SMOOTH",
"101 649 OFFCURVE",
"138 626 OFFCURVE",
"186 626 CURVE SMOOTH"
);
}
);
width = 347;
}
);
leftKerningGroup = "i-vit";
rightKerningGroup = "i-vit";
unicode = 105A5;
script = vithkuqi;
category = Letter;
subCategory = Lowercase;
},
{
glyphname = "ije-vit";
lastChange = "2021-11-04 06:35:00 +0000";
layers = (
{
anchors = (
{
name = _top;
position = "{181, 760}";
},
{
name = top;
position = "{181, 1075}";
}
);
components = (
{
name = "i-vit";
}
);
layerId = UUID0;
paths = (
{
closed = 1;
nodes = (
"229 790 OFFCURVE",
"260 817 OFFCURVE",
"260 859 CURVE SMOOTH",
"260 899 OFFCURVE",
"232 910 OFFCURVE",
"198 919 CURVE SMOOTH",
"172 925 OFFCURVE",
"168 936 OFFCURVE",
"168 947 CURVE SMOOTH",
"168 961 OFFCURVE",
"180 968 OFFCURVE",
"198 968 CURVE SMOOTH",
"216 968 OFFCURVE",
"229 962 OFFCURVE",
"240 949 CURVE",
"247 957 OFFCURVE",
"250 971 OFFCURVE",
"250 979 CURVE SMOOTH",
"250 1008 OFFCURVE",
"223 1018 OFFCURVE",
"190 1018 CURVE SMOOTH",
"152 1018 OFFCURVE",
"119 994 OFFCURVE",
"119 955 CURVE SMOOTH",
"119 920 OFFCURVE",
"144 903 OFFCURVE",
"173 895 CURVE SMOOTH",
"196 889 OFFCURVE",
"210 882 OFFCURVE",
"210 865 CURVE SMOOTH",
"210 849 OFFCURVE",
"198 840 OFFCURVE",
"181 840 CURVE SMOOTH",
"159 840 OFFCURVE",
"136 850 OFFCURVE",
"120 865 CURVE",
"115 857 OFFCURVE",
"113 843 OFFCURVE",
"113 837 CURVE SMOOTH",
"113 806 OFFCURVE",
"146 790 OFFCURVE",
"181 790 CURVE SMOOTH"
);
}
);
width = 347;
},
{
anchors = (
{
name = _top;
position = "{186, 760}";
},
{
name = top;
position = "{186, 1077}";
}
);
components = (
{
name = "i-vit";
}
);
layerId = "58AAA307-6DE9-4107-B80A-C255AE991657";
paths = (
{
closed = 1;
nodes = (
"236 788 OFFCURVE",
"269 811 OFFCURVE",
"269 857 CURVE SMOOTH",
"269 898 OFFCURVE",
"239 915 OFFCURVE",
"200 922 CURVE SMOOTH",
"174 927 OFFCURVE",
"170 930 OFFCURVE",
"170 941 CURVE SMOOTH",
"170 951 OFFCURVE",
"177 956 OFFCURVE",
"195 956 CURVE SMOOTH",
"216 956 OFFCURVE",
"235 951 OFFCURVE",
"251 937 CURVE",
"259 949 OFFCURVE",
"261 958 OFFCURVE",
"261 972 CURVE SMOOTH",
"261 1001 OFFCURVE",
"233 1016 OFFCURVE",
"193 1016 CURVE SMOOTH",
"142 1016 OFFCURVE",
"111 993 OFFCURVE",
"111 953 CURVE SMOOTH",
"111 917 OFFCURVE",
"132 898 OFFCURVE",
"175 889 CURVE SMOOTH",
"198 884 OFFCURVE",
"212 880 OFFCURVE",
"212 865 CURVE SMOOTH",
"212 852 OFFCURVE",
"200 848 OFFCURVE",
"183 848 CURVE SMOOTH",
"161 848 OFFCURVE",
"128 858 OFFCURVE",
"112 873 CURVE",
"107 865 OFFCURVE",
"105 851 OFFCURVE",
"105 845 CURVE SMOOTH",
"105 804 OFFCURVE",
"138 788 OFFCURVE",
"183 788 CURVE SMOOTH"
);
}
);
width = 347;
}
);
leftKerningGroup = "i-vit";
leftMetricsKey = "=i-vit";
rightKerningGroup = "i-vit";
rightMetricsKey = "i-vit";
unicode = 105A6;
script = vithkuqi;
category = Letter;
subCategory = Lowercase;
},
{
glyphname = "je-vit";
lastChange = "2021-11-04 06:35:00 +0000";
layers = (
{
components = (
{
name = "bbe-vit";
}
);
layerId = UUID0;
paths = (
{
closed = 1;
nodes = (
"71 536 LINE",
"361 536 LINE",
"361 586 LINE",
"71 586 LINE"
);
}
);
width = 556;
},
{
components = (
{
name = "bbe-vit";
}
);
layerId = "58AAA307-6DE9-4107-B80A-C255AE991657";
paths = (
{
closed = 1;
nodes = (
"42 520 LINE",
"357 520 LINE",
"357 578 LINE",
"42 578 LINE"
);
}
);
width = 570;
}
);
leftKerningGroup = "bbe-vit";
leftMetricsKey = "=bbe-vit";
rightMetricsKey = "=bbe-vit";
unicode = 105A7;
script = vithkuqi;
category = Letter;
subCategory = Lowercase;
},
{
glyphname = "ka-vit";
lastChange = "2021-11-04 06:35:00 +0000";
layers = (
{
anchors = (
{
name = topright;
position = "{520, 536}";
}
);
layerId = "58AAA307-6DE9-4107-B80A-C255AE991657";
paths = (
{
closed = 1;
nodes = (
"395 314 OFFCURVE",
"457 348 OFFCURVE",
"457 431 CURVE SMOOTH",
"457 509 OFFCURVE",
"401 546 OFFCURVE",
"290 546 CURVE SMOOTH",
"140 546 OFFCURVE",
"45 460 OFFCURVE",
"45 267 CURVE SMOOTH",
"45 75 OFFCURVE",
"141 -10 OFFCURVE",
"334 -10 CURVE SMOOTH",
"490 -10 OFFCURVE",
"590 91 OFFCURVE",
"590 196 CURVE SMOOTH",
"590 272 OFFCURVE",
"547 311 OFFCURVE",
"455 311 CURVE SMOOTH",
"357 311 OFFCURVE",
"302 271 OFFCURVE",
"302 178 CURVE SMOOTH",
"302 60 OFFCURVE",
"435 -9 OFFCURVE",
"555 -9 CURVE SMOOTH",
"598 -9 OFFCURVE",
"645 8 OFFCURVE",
"645 41 CURVE SMOOTH",
"645 49 OFFCURVE",
"644 56 OFFCURVE",
"636 70 CURVE",
"619 61 OFFCURVE",
"596 54 OFFCURVE",
"566 54 CURVE SMOOTH",
"490 54 OFFCURVE",
"457 117 OFFCURVE",
"457 178 CURVE SMOOTH",
"457 232 OFFCURVE",
"469 248 OFFCURVE",
"490 248 CURVE SMOOTH",
"511 248 OFFCURVE",
"520 231 OFFCURVE",
"520 194 CURVE SMOOTH",
"520 116 OFFCURVE",
"474 64 OFFCURVE",
"349 64 CURVE SMOOTH",
"248 64 OFFCURVE",
"200 126 OFFCURVE",
"200 266 CURVE SMOOTH",
"200 414 OFFCURVE",
"226 483 OFFCURVE",
"321 483 CURVE SMOOTH",
"361 483 OFFCURVE",
"387 467 OFFCURVE",
"387 435 CURVE SMOOTH",
"387 402 OFFCURVE",
"367 384 OFFCURVE",
"328 384 CURVE SMOOTH",
"295 384 OFFCURVE",
"271 407 OFFCURVE",
"265 417 CURVE",
"251 412 OFFCURVE",
"240 398 OFFCURVE",
"239 378 CURVE SMOOTH",
"238 338 OFFCURVE",
"274 314 OFFCURVE",
"328 314 CURVE SMOOTH"
);
}
);
width = 645;
},
{
anchors = (
{
name = topright;
position = "{498, 536}";
}
);
layerId = UUID0;
paths = (
{
closed = 1;
nodes = (
"371 312 OFFCURVE",
"436 356 OFFCURVE",
"436 430 CURVE SMOOTH",
"436 499 OFFCURVE",
"382 546 OFFCURVE",
"291 546 CURVE SMOOTH",
"163 546 OFFCURVE",
"65 460 OFFCURVE",
"65 267 CURVE SMOOTH",
"65 75 OFFCURVE",
"161 -10 OFFCURVE",
"318 -10 CURVE SMOOTH",
"513 -10 OFFCURVE",
"569 145 OFFCURVE",
"569 205 CURVE SMOOTH",
"569 281 OFFCURVE",
"533 322 OFFCURVE",
"461 322 CURVE SMOOTH",
"373 322 OFFCURVE",
"332 264 OFFCURVE",
"332 189 CURVE SMOOTH",
"332 92 OFFCURVE",
"409 -9 OFFCURVE",
"550 -9 CURVE SMOOTH",
"582 -9 OFFCURVE",
"629 -2 OFFCURVE",
"629 31 CURVE SMOOTH",
"629 39 OFFCURVE",
"628 46 OFFCURVE",
"620 60 CURVE",
"603 51 OFFCURVE",
"580 44 OFFCURVE",
"550 44 CURVE SMOOTH",
"474 44 OFFCURVE",
"429 118 OFFCURVE",
"429 189 CURVE SMOOTH",
"429 235 OFFCURVE",
"443 269 OFFCURVE",
"471 269 CURVE SMOOTH",
"498 269 OFFCURVE",
"510 243 OFFCURVE",
"510 203 CURVE SMOOTH",
"510 125 OFFCURVE",
"461 54 OFFCURVE",
"333 54 CURVE SMOOTH",
"215 54 OFFCURVE",
"162 124 OFFCURVE",
"162 266 CURVE SMOOTH",
"162 414 OFFCURVE",
"187 493 OFFCURVE",
"290 493 CURVE SMOOTH",
"342 493 OFFCURVE",
"376 470 OFFCURVE",
"376 434 CURVE SMOOTH",
"376 399 OFFCURVE",
"353 376 OFFCURVE",
"312 376 CURVE SMOOTH",
"268 376 OFFCURVE",
"244 399 OFFCURVE",
"238 409 CURVE",
"222 401 OFFCURVE",
"213 391 OFFCURVE",
"212 368 CURVE SMOOTH",
"211 337 OFFCURVE",
"245 312 OFFCURVE",
"312 312 CURVE SMOOTH"
);
}
);
width = 634;
}
);
leftKerningGroup = "ka-vit";
rightKerningGroup = "a-vit";
unicode = 105A8;
script = vithkuqi;
category = Letter;
subCategory = Lowercase;
},
{
glyphname = "la-vit";
lastChange = "2021-11-04 06:35:00 +0000";
layers = (
{
layerId = "58AAA307-6DE9-4107-B80A-C255AE991657";
paths = (
{
closed = 1;
nodes = (
"370 70 OFFCURVE",
"435 162 OFFCURVE",
"435 386 CURVE SMOOTH",
"435 480 OFFCURVE",
"425 604 OFFCURVE",
"425 638 CURVE SMOOTH",
"425 683 OFFCURVE",
"447 707 OFFCURVE",
"469 707 CURVE SMOOTH",
"488 707 OFFCURVE",
"495 694 OFFCURVE",
"495 679 CURVE SMOOTH",
"495 657 OFFCURVE",
"482 639 OFFCURVE",
"444 639 CURVE SMOOTH",
"360 639 OFFCURVE",
"256 769 OFFCURVE",
"133 769 CURVE SMOOTH",
"65 769 OFFCURVE",
"40 722 OFFCURVE",
"40 672 CURVE SMOOTH",
"40 642 OFFCURVE",
"54 611 OFFCURVE",
"73 604 CURVE",
"87 624 OFFCURVE",
"100 632 OFFCURVE",
"124 632 CURVE SMOOTH",
"201 632 OFFCURVE",
"326 558 OFFCURVE",
"421 558 CURVE SMOOTH",
"498 558 OFFCURVE",
"565 608 OFFCURVE",
"565 686 CURVE SMOOTH",
"565 743 OFFCURVE",
"526 770 OFFCURVE",
"473 770 CURVE SMOOTH",
"408 770 OFFCURVE",
"353 727 OFFCURVE",
"353 643 CURVE SMOOTH",
"353 624 OFFCURVE",
"366 507 OFFCURVE",
"366 394 CURVE SMOOTH",
"366 228 OFFCURVE",
"342 168 OFFCURVE",
"289 77 CURVE",
"308 65 LINE",
"324 306 OFFCURVE",
"311 546 OFFCURVE",
"148 546 CURVE SMOOTH",
"78 546 OFFCURVE",
"29 513 OFFCURVE",
"5 494 CURVE",
"32 451 LINE",
"51 462 OFFCURVE",
"60 465 OFFCURVE",
"74 465 CURVE SMOOTH",
"144 465 OFFCURVE",
"194 347 OFFCURVE",
"195 0 CURVE",
"286 -9 LINE"
);
}
);
width = 570;
},
{
layerId = UUID0;
paths = (
{
closed = 1;
nodes = (
"330 97 OFFCURVE",
"402 166 OFFCURVE",
"402 383 CURVE SMOOTH",
"402 460 OFFCURVE",
"389 580 OFFCURVE",
"390 649 CURVE SMOOTH",
"390 692 OFFCURVE",
"406 718 OFFCURVE",
"436 718 CURVE SMOOTH",
"458 718 OFFCURVE",
"470 705 OFFCURVE",
"470 687 CURVE SMOOTH",
"470 653 OFFCURVE",
"428 630 OFFCURVE",
"381 630 CURVE SMOOTH",
"332 630 OFFCURVE",
"227 770 OFFCURVE",
"121 770 CURVE SMOOTH",
"65 770 OFFCURVE",
"30 735 OFFCURVE",
"30 687 CURVE SMOOTH",
"30 665 OFFCURVE",
"37 649 OFFCURVE",
"52 640 CURVE",
"68 670 OFFCURVE",
"90 679 OFFCURVE",
"113 679 CURVE SMOOTH",
"187 679 OFFCURVE",
"286 577 OFFCURVE",
"379 577 CURVE SMOOTH",
"464 577 OFFCURVE",
"529 621 OFFCURVE",
"530 687 CURVE SMOOTH",
"531 740 OFFCURVE",
"498 771 OFFCURVE",
"437 771 CURVE SMOOTH",
"363 771 OFFCURVE",
"329 714 OFFCURVE",
"329 649 CURVE SMOOTH",
"329 591 OFFCURVE",
"342 452 OFFCURVE",
"342 383 CURVE SMOOTH",
"342 220 OFFCURVE",
"303 162 OFFCURVE",
"246 77 CURVE",
"264 77 LINE",
"261 381 OFFCURVE",
"251 545 OFFCURVE",
"110 545 CURVE SMOOTH",
"67 545 OFFCURVE",
"35 525 OFFCURVE",
"5 494 CURVE",
"29 465 LINE",
"40 473 OFFCURVE",
"53 482 OFFCURVE",
"70 482 CURVE SMOOTH",
"158 482 OFFCURVE",
"184 326 OFFCURVE",
"187 0 CURVE",
"237 -9 LINE"
);
}
);
width = 510;
}
);
leftKerningGroup = "lla-vit";
leftMetricsKey = "lla-vit";
rightKerningGroup = "la-vit";
unicode = 105A9;
script = vithkuqi;
category = Letter;
subCategory = Lowercase;
},
{
glyphname = "lla-vit";
lastChange = "2021-11-04 06:35:00 +0000";
layers = (
{
layerId = UUID0;
paths = (
{
closed = 1;
nodes = (
"330 97 OFFCURVE",
"402 166 OFFCURVE",
"402 383 CURVE SMOOTH",
"402 460 OFFCURVE",
"389 580 OFFCURVE",
"389 636 CURVE SMOOTH",
"389 688 OFFCURVE",
"407 703 OFFCURVE",
"431 703 CURVE SMOOTH",
"460 703 OFFCURVE",
"472 673 OFFCURVE",
"492 635 CURVE",
"530 643 OFFCURVE",
"545 670 OFFCURVE",
"545 698 CURVE SMOOTH",
"545 741 OFFCURVE",
"503 771 OFFCURVE",
"440 771 CURVE SMOOTH",
"376 771 OFFCURVE",
"329 732 OFFCURVE",
"329 636 CURVE SMOOTH",
"329 591 OFFCURVE",
"342 452 OFFCURVE",
"342 383 CURVE SMOOTH",
"342 220 OFFCURVE",
"303 162 OFFCURVE",
"246 77 CURVE",
"264 77 LINE",
"271 381 OFFCURVE",
"261 545 OFFCURVE",
"110 545 CURVE SMOOTH",
"67 545 OFFCURVE",
"35 525 OFFCURVE",
"5 494 CURVE",
"29 465 LINE",
"40 473 OFFCURVE",
"53 482 OFFCURVE",
"70 482 CURVE SMOOTH",
"158 482 OFFCURVE",
"184 326 OFFCURVE",
"187 0 CURVE",
"237 -9 LINE"
);
}
);
width = 535;
},
{
layerId = "58AAA307-6DE9-4107-B80A-C255AE991657";
paths = (
{
closed = 1;
nodes = (
"370 70 OFFCURVE",
"435 162 OFFCURVE",
"435 386 CURVE SMOOTH",
"435 517 OFFCURVE",
"425 593 OFFCURVE",
"425 634 CURVE SMOOTH",
"425 671 OFFCURVE",
"438 692 OFFCURVE",
"459 692 CURVE SMOOTH",
"488 692 OFFCURVE",
"507 663 OFFCURVE",
"525 635 CURVE",
"550 640 OFFCURVE",
"565 664 OFFCURVE",
"565 690 CURVE SMOOTH",
"565 728 OFFCURVE",
"534 770 OFFCURVE",
"458 770 CURVE SMOOTH",
"398 770 OFFCURVE",
"353 733 OFFCURVE",
"353 653 CURVE SMOOTH",
"353 603 OFFCURVE",
"366 544 OFFCURVE",
"366 394 CURVE SMOOTH",
"366 228 OFFCURVE",
"342 168 OFFCURVE",
"289 77 CURVE",
"308 65 LINE",
"324 306 OFFCURVE",
"311 546 OFFCURVE",
"148 546 CURVE SMOOTH",
"80 546 OFFCURVE",
"29 513 OFFCURVE",
"5 494 CURVE",
"32 451 LINE",
"51 462 OFFCURVE",
"60 465 OFFCURVE",
"74 465 CURVE SMOOTH",
"144 465 OFFCURVE",
"194 347 OFFCURVE",
"195 0 CURVE",
"286 -9 LINE"
);
}
);
width = 550;
}
);
leftKerningGroup = "lla-vit";
leftMetricsKey = "se-vit";
rightKerningGroup = "la-vit";
unicode = 105AA;
script = vithkuqi;
category = Letter;
subCategory = Lowercase;
},
{
glyphname = "me-vit";
lastChange = "2021-11-04 06:35:00 +0000";
layers = (
{
layerId = UUID0;
paths = (
{
closed = 1;
nodes = (
"369 -10 OFFCURVE",
"498 57 OFFCURVE",
"498 271 CURVE SMOOTH",
"498 465 OFFCURVE",
"388 546 OFFCURVE",
"211 546 CURVE SMOOTH",
"130 546 OFFCURVE",
"36 504 OFFCURVE",
"35 422 CURVE SMOOTH",
"34 365 OFFCURVE",
"71 338 OFFCURVE",
"118 338 CURVE SMOOTH",
"181 338 OFFCURVE",
"218 385 OFFCURVE",
"218 471 CURVE SMOOTH",
"218 637 LINE SMOOTH",
"218 692 OFFCURVE",
"246 719 OFFCURVE",
"282 719 CURVE SMOOTH",
"307 719 OFFCURVE",
"332 700 OFFCURVE",
"360 652 CURVE",
"388 653 OFFCURVE",
"417 679 OFFCURVE",
"417 704 CURVE SMOOTH",
"417 738 OFFCURVE",
"376 771 OFFCURVE",
"299 771 CURVE SMOOTH",
"215 771 OFFCURVE",
"158 718 OFFCURVE",
"158 637 CURVE SMOOTH",
"158 480 LINE SMOOTH",
"158 417 OFFCURVE",
"144 391 OFFCURVE",
"122 391 CURVE SMOOTH",
"104 391 OFFCURVE",
"95 404 OFFCURVE",
"95 422 CURVE SMOOTH",
"95 456 OFFCURVE",
"127 492 OFFCURVE",
"207 492 CURVE SMOOTH",
"345 492 OFFCURVE",
"401 410 OFFCURVE",
"401 270 CURVE SMOOTH",
"401 112 OFFCURVE",
"331 40 OFFCURVE",
"234 40 CURVE SMOOTH",
"161 40 OFFCURVE",
"143 92 OFFCURVE",
"143 155 CURVE",
"84 155 OFFCURVE",
"54 138 OFFCURVE",
"54 92 CURVE SMOOTH",
"54 23 OFFCURVE",
"131 -10 OFFCURVE",
"234 -10 CURVE SMOOTH"
);
}
);
width = 553;
},
{
layerId = "58AAA307-6DE9-4107-B80A-C255AE991657";
paths = (
{
closed = 1;
nodes = (
"403 -10 OFFCURVE",
"510 57 OFFCURVE",
"510 273 CURVE SMOOTH",
"510 478 OFFCURVE",
"409 549 OFFCURVE",
"214 549 CURVE SMOOTH",
"110 549 OFFCURVE",
"26 504 OFFCURVE",
"25 422 CURVE SMOOTH",
"24 365 OFFCURVE",
"61 328 OFFCURVE",
"118 328 CURVE SMOOTH",
"181 328 OFFCURVE",
"222 385 OFFCURVE",
"222 471 CURVE SMOOTH",
"222 610 LINE SMOOTH",
"222 686 OFFCURVE",
"246 708 OFFCURVE",
"282 708 CURVE SMOOTH",
"309 708 OFFCURVE",
"334 694 OFFCURVE",
"362 646 CURVE",
"417 657 OFFCURVE",
"427 680 OFFCURVE",
"427 703 CURVE SMOOTH",
"427 743 OFFCURVE",
"378 770 OFFCURVE",
"299 770 CURVE SMOOTH",
"202 770 OFFCURVE",
"151 723 OFFCURVE",
"152 618 CURVE SMOOTH",
"153 480 LINE SMOOTH",
"153 417 OFFCURVE",
"144 391 OFFCURVE",
"122 391 CURVE SMOOTH",
"104 391 OFFCURVE",
"95 404 OFFCURVE",
"95 422 CURVE SMOOTH",
"95 456 OFFCURVE",
"127 488 OFFCURVE",
"207 488 CURVE SMOOTH",
"307 488 OFFCURVE",
"356 414 OFFCURVE",
"356 272 CURVE SMOOTH",
"356 101 OFFCURVE",
"319 51 OFFCURVE",
"260 51 CURVE SMOOTH",
"191 51 OFFCURVE",
"176 111 OFFCURVE",
"176 180 CURVE",
"72 180 OFFCURVE",
"47 138 OFFCURVE",
"47 95 CURVE SMOOTH",
"47 36 OFFCURVE",
"116 -10 OFFCURVE",
"255 -10 CURVE SMOOTH"
);
}
);
width = 555;
}
);
rightMetricsKey = "=o-vit";
unicode = 105AB;
script = vithkuqi;
category = Letter;
subCategory = Lowercase;
},
{
glyphname = "ne-vit";
lastChange = "2021-11-04 06:35:00 +0000";
layers = (
{
layerId = UUID0;
paths = (
{
closed = 1;
nodes = (
"411 -253 OFFCURVE",
"429 -252 OFFCURVE",
"448 -250 CURVE",
"448 -201 LINE",
"443 -201 OFFCURVE",
"439 -201 OFFCURVE",
"434 -201 CURVE SMOOTH",
"360 -201 OFFCURVE",
"347 -167 OFFCURVE",
"347 -107 CURVE SMOOTH",
"347 148 LINE SMOOTH",
"347 187 OFFCURVE",
"334 208 OFFCURVE",
"287 208 CURVE SMOOTH",
"184 208 LINE SMOOTH",
"176 208 OFFCURVE",
"169 215 OFFCURVE",
"169 223 CURVE SMOOTH",
"169 536 LINE",
"75 536 LINE",
"75 228 LINE SMOOTH",
"75 181 OFFCURVE",
"97 158 OFFCURVE",
"145 158 CURVE SMOOTH",
"238 158 LINE SMOOTH",
"246 158 OFFCURVE",
"253 151 OFFCURVE",
"253 143 CURVE SMOOTH",
"253 -112 LINE SMOOTH",
"253 -205 OFFCURVE",
"287 -253 OFFCURVE",
"396 -253 CURVE SMOOTH"
);
}
);
width = 393;
},
{
layerId = "58AAA307-6DE9-4107-B80A-C255AE991657";
paths = (
{
closed = 1;
nodes = (
"418 -256 OFFCURVE",
"435 -254 OFFCURVE",
"443 -253 CURVE",
"443 -194 LINE",
"440 -194 OFFCURVE",
"437 -194 OFFCURVE",
"431 -194 CURVE SMOOTH",
"391 -194 OFFCURVE",
"373 -167 OFFCURVE",
"373 -109 CURVE SMOOTH",
"373 148 LINE SMOOTH",
"373 200 OFFCURVE",
"356 226 OFFCURVE",
"313 226 CURVE SMOOTH",
"200 226 LINE SMOOTH",
"192 226 OFFCURVE",
"185 233 OFFCURVE",
"185 241 CURVE SMOOTH",
"185 536 LINE",
"30 536 LINE",
"30 228 LINE SMOOTH",
"30 182 OFFCURVE",
"56 158 OFFCURVE",
"100 158 CURVE SMOOTH",
"206 158 LINE SMOOTH",
"214 158 OFFCURVE",
"221 151 OFFCURVE",
"221 143 CURVE SMOOTH",
"221 -126 LINE SMOOTH",
"221 -208 OFFCURVE",
"285 -256 OFFCURVE",
"391 -256 CURVE SMOOTH"
);
}
);
width = 398;
}
);
rightKerningGroup = "Bbe-vit";
unicode = 105AC;
script = vithkuqi;
category = Letter;
subCategory = Lowercase;
},
{
glyphname = "nje-vit";
lastChange = "2021-11-04 06:35:00 +0000";
layers = (
{
layerId = UUID0;
paths = (
{
closed = 1;
nodes = (
"279 -10 OFFCURVE",
"337 52 OFFCURVE",
"337 203 CURVE SMOOTH",
"337 405 OFFCURVE",
"274 546 OFFCURVE",
"130 546 CURVE SMOOTH",
"78 546 OFFCURVE",
"41 528 OFFCURVE",
"10 500 CURVE",
"29 468 LINE",
"46 481 OFFCURVE",
"79 493 OFFCURVE",
"111 493 CURVE SMOOTH",
"208 493 OFFCURVE",
"240 394 OFFCURVE",
"240 204 CURVE SMOOTH",
"240 80 OFFCURVE",
"214 44 OFFCURVE",
"182 44 CURVE SMOOTH",
"157 44 OFFCURVE",
"130 76 OFFCURVE",
"130 178 CURVE SMOOTH",
"130 388 OFFCURVE",
"215 494 OFFCURVE",
"333 494 CURVE SMOOTH",
"425 494 OFFCURVE",
"447 447 OFFCURVE",
"447 366 CURVE SMOOTH",
"447 -115 LINE SMOOTH",
"447 -208 OFFCURVE",
"481 -256 OFFCURVE",
"590 -256 CURVE SMOOTH",
"605 -256 OFFCURVE",
"623 -255 OFFCURVE",
"642 -253 CURVE",
"642 -204 LINE",
"628 -204 LINE SMOOTH",
"574 -204 OFFCURVE",
"541 -170 OFFCURVE",
"541 -110 CURVE SMOOTH",
"541 373 LINE SMOOTH",
"541 508 OFFCURVE",
"468 547 OFFCURVE",
"352 547 CURVE SMOOTH",
"182 547 OFFCURVE",
"70 406 OFFCURVE",
"70 176 CURVE SMOOTH",
"70 41 OFFCURVE",
"115 -10 OFFCURVE",
"190 -10 CURVE SMOOTH"
);
}
);
width = 617;
},
{
layerId = "58AAA307-6DE9-4107-B80A-C255AE991657";
paths = (
{
closed = 1;
nodes = (
"280 -10 OFFCURVE",
"371 33 OFFCURVE",
"371 203 CURVE SMOOTH",
"371 405 OFFCURVE",
"279 546 OFFCURVE",
"135 546 CURVE SMOOTH",
"73 546 OFFCURVE",
"36 528 OFFCURVE",
"5 500 CURVE",
"24 458 LINE",
"41 471 OFFCURVE",
"74 483 OFFCURVE",
"116 483 CURVE SMOOTH",
"203 483 OFFCURVE",
"216 394 OFFCURVE",
"216 204 CURVE SMOOTH",
"216 90 OFFCURVE",
"215 54 OFFCURVE",
"183 54 CURVE SMOOTH",
"161 54 OFFCURVE",
"140 86 OFFCURVE",
"140 178 CURVE SMOOTH",
"140 388 OFFCURVE",
"220 484 OFFCURVE",
"338 484 CURVE SMOOTH",
"409 484 OFFCURVE",
"428 447 OFFCURVE",
"428 366 CURVE SMOOTH",
"428 -115 LINE SMOOTH",
"428 -208 OFFCURVE",
"475 -256 OFFCURVE",
"622 -256 CURVE SMOOTH",
"627 -256 OFFCURVE",
"645 -255 OFFCURVE",
"664 -253 CURVE",
"664 -194 LINE",
"650 -194 LINE SMOOTH",
"606 -194 OFFCURVE",
"593 -160 OFFCURVE",
"593 -100 CURVE SMOOTH",
"593 373 LINE SMOOTH",
"593 513 OFFCURVE",
"495 547 OFFCURVE",
"364 547 CURVE SMOOTH",
"182 547 OFFCURVE",
"70 406 OFFCURVE",
"70 176 CURVE SMOOTH",
"70 41 OFFCURVE",
"119 -10 OFFCURVE",
"201 -10 CURVE SMOOTH"
);
}
);
width = 669;
}
);
leftMetricsKey = "=e-vit";
unicode = 105AD;
script = vithkuqi;
category = Letter;
subCategory = Lowercase;
},
{
glyphname = "o-vit";
lastChange = "2021-11-04 06:35:00 +0000";
layers = (
{
layerId = UUID0;
paths = (
{
closed = 1;
nodes = (
"468 -10 OFFCURVE",
"580 90 OFFCURVE",
"580 256 CURVE SMOOTH",
"580 452 OFFCURVE",
"465 546 OFFCURVE",
"306 546 CURVE SMOOTH",
"169 546 OFFCURVE",
"55 446 OFFCURVE",
"55 280 CURVE SMOOTH",
"55 84 OFFCURVE",
"172 -10 OFFCURVE",
"332 -10 CURVE SMOOTH"
);
},
{
closed = 1;
nodes = (
"247 53 OFFCURVE",
"152 170 OFFCURVE",
"152 317 CURVE SMOOTH",
"152 436 OFFCURVE",
"211 483 OFFCURVE",
"288 483 CURVE SMOOTH",
"392 483 OFFCURVE",
"483 363 OFFCURVE",
"483 219 CURVE SMOOTH",
"483 103 OFFCURVE",
"427 53 OFFCURVE",
"353 53 CURVE SMOOTH"
);
}
);
width = 635;
},
{
layerId = "58AAA307-6DE9-4107-B80A-C255AE991657";
paths = (
{
closed = 1;
nodes = (
"513 -10 OFFCURVE",
"640 84 OFFCURVE",
"640 256 CURVE SMOOTH",
"640 458 OFFCURVE",
"501 546 OFFCURVE",
"330 546 CURVE SMOOTH",
"172 546 OFFCURVE",
"45 452 OFFCURVE",
"45 280 CURVE SMOOTH",
"45 78 OFFCURVE",
"184 -10 OFFCURVE",
"356 -10 CURVE SMOOTH"
);
},
{
closed = 1;
nodes = (
"277 62 OFFCURVE",
"200 180 OFFCURVE",
"200 317 CURVE SMOOTH",
"200 422 OFFCURVE",
"243 474 OFFCURVE",
"310 474 CURVE SMOOTH",
"408 474 OFFCURVE",
"485 356 OFFCURVE",
"485 219 CURVE SMOOTH",
"485 114 OFFCURVE",
"442 62 OFFCURVE",
"375 62 CURVE SMOOTH"
);
}
);
width = 685;
}
);
leftKerningGroup = "o-vit";
rightKerningGroup = "o-vit";
rightMetricsKey = "=|";
unicode = 105AE;
script = vithkuqi;
category = Letter;
subCategory = Lowercase;
},
{
glyphname = "pe-vit";
lastChange = "2021-11-04 06:35:00 +0000";
layers = (
{
layerId = UUID0;
paths = (
{
closed = 1;
nodes = (
"577 -11 OFFCURVE",
"611 19 OFFCURVE",
"611 63 CURVE SMOOTH",
"611 86 OFFCURVE",
"606 107 OFFCURVE",
"591 116 CURVE",
"575 86 OFFCURVE",
"556 76 OFFCURVE",
"527 76 CURVE SMOOTH",
"448 76 OFFCURVE",
"334 234 OFFCURVE",
"163 234 CURVE SMOOTH",
"94 234 OFFCURVE",
"35 193 OFFCURVE",
"35 109 CURVE SMOOTH",
"35 27 OFFCURVE",
"120 -9 OFFCURVE",
"209 -9 CURVE SMOOTH",
"381 -9 OFFCURVE",
"516 104 OFFCURVE",
"516 262 CURVE SMOOTH",
"516 420 OFFCURVE",
"397 497 OFFCURVE",
"267 497 CURVE SMOOTH",
"189 497 OFFCURVE",
"138 470 OFFCURVE",
"138 416 CURVE SMOOTH",
"138 362 OFFCURVE",
"187 342 OFFCURVE",
"250 342 CURVE SMOOTH",
"379 342 OFFCURVE",
"481 458 OFFCURVE",
"481 576 CURVE SMOOTH",
"481 697 OFFCURVE",
"401 770 OFFCURVE",
"276 770 CURVE SMOOTH",
"160 770 OFFCURVE",
"88 703 OFFCURVE",
"66 602 CURVE",
"108 590 LINE",
"126 645 OFFCURVE",
"171 712 OFFCURVE",
"261 712 CURVE SMOOTH",
"336 712 OFFCURVE",
"384 667 OFFCURVE",
"384 566 CURVE SMOOTH",
"384 463 OFFCURVE",
"329 395 OFFCURVE",
"244 395 CURVE SMOOTH",
"214 395 OFFCURVE",
"198 403 OFFCURVE",
"198 416 CURVE SMOOTH",
"198 431 OFFCURVE",
"210 444 OFFCURVE",
"267 444 CURVE SMOOTH",
"361 444 OFFCURVE",
"419 399 OFFCURVE",
"419 262 CURVE SMOOTH",
"419 104 OFFCURVE",
"341 44 OFFCURVE",
"211 44 CURVE SMOOTH",
"131 44 OFFCURVE",
"95 76 OFFCURVE",
"95 109 CURVE SMOOTH",
"95 138 OFFCURVE",
"121 151 OFFCURVE",
"156 151 CURVE SMOOTH",
"285 151 OFFCURVE",
"417 -11 OFFCURVE",
"521 -11 CURVE SMOOTH"
);
}
);
width = 596;
},
{
layerId = "58AAA307-6DE9-4107-B80A-C255AE991657";
paths = (
{
closed = 1;
nodes = (
"588 -11 OFFCURVE",
"646 15 OFFCURVE",
"646 101 CURVE SMOOTH",
"646 134 OFFCURVE",
"633 155 OFFCURVE",
"618 164 CURVE",
"602 144 OFFCURVE",
"588 134 OFFCURVE",
"549 134 CURVE SMOOTH",
"473 134 OFFCURVE",
"305 276 OFFCURVE",
"165 276 CURVE SMOOTH",
"70 276 OFFCURVE",
"20 215 OFFCURVE",
"20 134 CURVE SMOOTH",
"20 34 OFFCURVE",
"115 -9 OFFCURVE",
"234 -9 CURVE SMOOTH",
"392 -9 OFFCURVE",
"566 68 OFFCURVE",
"566 269 CURVE SMOOTH",
"566 420 OFFCURVE",
"457 503 OFFCURVE",
"272 503 CURVE SMOOTH",
"201 503 OFFCURVE",
"137 479 OFFCURVE",
"137 418 CURVE SMOOTH",
"137 355 OFFCURVE",
"189 336 OFFCURVE",
"261 336 CURVE SMOOTH",
"380 336 OFFCURVE",
"537 408 OFFCURVE",
"537 573 CURVE SMOOTH",
"537 711 OFFCURVE",
"423 769 OFFCURVE",
"310 769 CURVE SMOOTH",
"183 769 OFFCURVE",
"101 710 OFFCURVE",
"75 604 CURVE",
"130 587 LINE",
"151 654 OFFCURVE",
"202 695 OFFCURVE",
"279 695 CURVE SMOOTH",
"351 695 OFFCURVE",
"391 642 OFFCURVE",
"391 561 CURVE SMOOTH",
"391 449 OFFCURVE",
"351 400 OFFCURVE",
"261 400 CURVE SMOOTH",
"232 400 OFFCURVE",
"207 405 OFFCURVE",
"207 418 CURVE SMOOTH",
"207 433 OFFCURVE",
"224 439 OFFCURVE",
"272 439 CURVE SMOOTH",
"368 439 OFFCURVE",
"411 418 OFFCURVE",
"411 269 CURVE SMOOTH",
"411 104 OFFCURVE",
"346 52 OFFCURVE",
"236 52 CURVE SMOOTH",
"145 52 OFFCURVE",
"95 86 OFFCURVE",
"95 116 CURVE SMOOTH",
"95 132 OFFCURVE",
"105 141 OFFCURVE",
"125 141 CURVE SMOOTH",
"250 141 OFFCURVE",
"428 -11 OFFCURVE",
"532 -11 CURVE SMOOTH"
);
}
);
width = 661;
}
);
unicode = 105AF;
script = vithkuqi;
category = Letter;
subCategory = Lowercase;
},
{
glyphname = "qa-vit";
lastChange = "2021-11-04 06:35:00 +0000";
layers = (
{
anchors = (
{
name = _topright;
position = "{498, 536}";
},
{
name = top;
position = "{552, 650}";
}
);
components = (
{
name = "ka-vit";
}
);
layerId = UUID0;
paths = (
{
closed = 1;
nodes = (
"488 469 LINE",
"608 551 LINE SMOOTH",
"615 556 OFFCURVE",
"622 561 OFFCURVE",
"629 568 CURVE SMOOTH",
"648 587 OFFCURVE",
"648 618 OFFCURVE",
"629 636 CURVE SMOOTH",
"610 655 OFFCURVE",
"579 655 OFFCURVE",
"561 637 CURVE SMOOTH",
"557 633 OFFCURVE",
"546 621 OFFCURVE",
"543 616 CURVE SMOOTH",
"460 498 LINE"
);
}
);
width = 634;
},
{
anchors = (
{
name = _topright;
position = "{520, 536}";
},
{
name = top;
position = "{581, 706}";
}
);
components = (
{
name = "ka-vit";
}
);
layerId = "58AAA307-6DE9-4107-B80A-C255AE991657";
paths = (
{
closed = 1;
nodes = (
"540 451 LINE",
"630 542 LINE SMOOTH",
"638 550 OFFCURVE",
"651 561 OFFCURVE",
"657 573 CURVE SMOOTH",
"673 604 OFFCURVE",
"665 642 OFFCURVE",
"634 659 CURVE SMOOTH",
"602 675 OFFCURVE",
"563 667 OFFCURVE",
"547 637 CURVE SMOOTH",
"541 623 OFFCURVE",
"537 607 OFFCURVE",
"535 599 CURVE SMOOTH",
"497 477 LINE"
);
}
);
width = 645;
}
);
leftKerningGroup = "ka-vit";
unicode = 105B0;
script = vithkuqi;
category = Letter;
subCategory = Lowercase;
},
{
glyphname = "re-vit";
lastChange = "2021-11-04 06:35:00 +0000";
layers = (
{
layerId = "58AAA307-6DE9-4107-B80A-C255AE991657";
paths = (
{
closed = 1;
nodes = (
"544 -10 OFFCURVE",
"614 173 OFFCURVE",
"614 332 CURVE SMOOTH",
"614 503 OFFCURVE",
"555 547 OFFCURVE",
"455 547 CURVE SMOOTH",
"338 547 OFFCURVE",
"286 476 OFFCURVE",
"286 366 CURVE SMOOTH",
"286 253 OFFCURVE",
"326 188 OFFCURVE",
"404 188 CURVE SMOOTH",
"447 188 OFFCURVE",
"473 202 OFFCURVE",
"490 220 CURVE",
"450 252 OFFCURVE",
"441 307 OFFCURVE",
"441 366 CURVE SMOOTH",
"441 434 OFFCURVE",
"458 484 OFFCURVE",
"493 484 CURVE SMOOTH",
"522 484 OFFCURVE",
"544 440 OFFCURVE",
"544 339 CURVE SMOOTH",
"544 173 OFFCURVE",
"481 65 OFFCURVE",
"336 65 CURVE SMOOTH",
"265 65 OFFCURVE",
"227 106 OFFCURVE",
"227 202 CURVE SMOOTH",
"227 760 LINE",
"75 760 LINE",
"75 194 LINE SMOOTH",
"75 48 OFFCURVE",
"166 -10 OFFCURVE",
"315 -10 CURVE SMOOTH"
);
}
);
width = 659;
},
{
layerId = UUID0;
paths = (
{
closed = 1;
nodes = (
"499 -10 OFFCURVE",
"580 177 OFFCURVE",
"580 332 CURVE SMOOTH",
"580 491 OFFCURVE",
"520 547 OFFCURVE",
"441 547 CURVE SMOOTH",
"335 547 OFFCURVE",
"292 468 OFFCURVE",
"292 366 CURVE SMOOTH",
"292 258 OFFCURVE",
"334 196 OFFCURVE",
"394 196 CURVE SMOOTH",
"415 196 OFFCURVE",
"437 203 OFFCURVE",
"458 222 CURVE",
"408 254 OFFCURVE",
"389 307 OFFCURVE",
"389 366 CURVE SMOOTH",
"389 444 OFFCURVE",
"408 494 OFFCURVE",
"450 494 CURVE SMOOTH",
"488 494 OFFCURVE",
"520 450 OFFCURVE",
"520 339 CURVE SMOOTH",
"520 180 OFFCURVE",
"445 54 OFFCURVE",
"312 54 CURVE SMOOTH",
"216 54 OFFCURVE",
"184 134 OFFCURVE",
"184 246 CURVE SMOOTH",
"184 760 LINE",
"90 760 LINE",
"90 238 LINE SMOOTH",
"90 72 OFFCURVE",
"158 -10 OFFCURVE",
"308 -10 CURVE SMOOTH"
);
}
);
width = 630;
}
);
unicode = 105B1;
script = vithkuqi;
category = Letter;
subCategory = Lowercase;
},
{
glyphname = "se-vit";
lastChange = "2021-11-04 06:35:00 +0000";
layers = (
{
anchors = (
{
name = top;
position = "{335, 536}";
}
);
layerId = UUID0;
paths = (
{
closed = 1;
nodes = (
"523 -10 OFFCURVE",
"604 177 OFFCURVE",
"604 332 CURVE SMOOTH",
"604 491 OFFCURVE",
"544 547 OFFCURVE",
"465 547 CURVE SMOOTH",
"359 547 OFFCURVE",
"316 468 OFFCURVE",
"316 366 CURVE SMOOTH",
"316 258 OFFCURVE",
"358 196 OFFCURVE",
"418 196 CURVE SMOOTH",
"439 196 OFFCURVE",
"461 203 OFFCURVE",
"482 222 CURVE",
"432 254 OFFCURVE",
"413 307 OFFCURVE",
"413 366 CURVE SMOOTH",
"413 444 OFFCURVE",
"432 494 OFFCURVE",
"474 494 CURVE SMOOTH",
"512 494 OFFCURVE",
"544 450 OFFCURVE",
"544 339 CURVE SMOOTH",
"544 180 OFFCURVE",
"469 54 OFFCURVE",
"352 54 CURVE SMOOTH",
"273 54 OFFCURVE",
"257 114 OFFCURVE",
"240 229 CURVE SMOOTH",
"213 417 LINE SMOOTH",
"202 495 OFFCURVE",
"176 545 OFFCURVE",
"108 545 CURVE SMOOTH",
"70 545 OFFCURVE",
"33 525 OFFCURVE",
"5 494 CURVE",
"29 465 LINE",
"41 476 OFFCURVE",
"59 482 OFFCURVE",
"70 482 CURVE SMOOTH",
"99 482 OFFCURVE",
"110 449 OFFCURVE",
"117 400 CURVE SMOOTH",
"142 214 LINE SMOOTH",
"159 91 OFFCURVE",
"180 -10 OFFCURVE",
"332 -10 CURVE SMOOTH"
);
}
);
width = 654;
},
{
anchors = (
{
name = top;
position = "{354, 536}";
}
);
layerId = "58AAA307-6DE9-4107-B80A-C255AE991657";
paths = (
{
closed = 1;
nodes = (
"563 -10 OFFCURVE",
"633 173 OFFCURVE",
"633 332 CURVE SMOOTH",
"633 503 OFFCURVE",
"574 547 OFFCURVE",
"474 547 CURVE SMOOTH",
"357 547 OFFCURVE",
"305 476 OFFCURVE",
"305 366 CURVE SMOOTH",
"305 253 OFFCURVE",
"345 188 OFFCURVE",
"423 188 CURVE SMOOTH",
"466 188 OFFCURVE",
"492 202 OFFCURVE",
"509 220 CURVE",
"469 252 OFFCURVE",
"460 307 OFFCURVE",
"460 366 CURVE SMOOTH",
"460 434 OFFCURVE",
"477 484 OFFCURVE",
"512 484 CURVE SMOOTH",
"541 484 OFFCURVE",
"563 440 OFFCURVE",
"563 339 CURVE SMOOTH",
"563 173 OFFCURVE",
"502 65 OFFCURVE",
"372 65 CURVE SMOOTH",
"301 65 OFFCURVE",
"276 114 OFFCURVE",
"270 195 CURVE SMOOTH",
"251 436 LINE SMOOTH",
"246 505 OFFCURVE",
"224 545 OFFCURVE",
"145 545 CURVE SMOOTH",
"83 545 OFFCURVE",
"38 520 OFFCURVE",
"5 494 CURVE",
"32 451 LINE",
"44 459 OFFCURVE",
"59 465 OFFCURVE",
"70 465 CURVE SMOOTH",
"99 465 OFFCURVE",
"103 446 OFFCURVE",
"105 414 CURVE SMOOTH",
"117 214 LINE SMOOTH",
"124 91 OFFCURVE",
"165 -10 OFFCURVE",
"350 -10 CURVE SMOOTH"
);
}
);
width = 678;
}
);
leftKerningGroup = "se-vit";
rightKerningGroup = "se-vit";
rightMetricsKey = "=re-vit";
unicode = 105B3;
script = vithkuqi;
category = Letter;
subCategory = Lowercase;
},
{
glyphname = "she-vit";
lastChange = "2021-11-04 06:35:00 +0000";
layers = (
{
anchors = (
{
name = _top;
position = "{325, 536}";
},
{
name = top;
position = "{325, 711}";
}
);
components = (
{
name = "se-vit";
}
);
layerId = UUID0;
paths = (
{
closed = 1;
nodes = (
"470 652 LINE",
"470 711 LINE",
"180 711 LINE",
"180 652 LINE"
);
}
);
width = 654;
},
{
anchors = (
{
name = _top;
position = "{324, 536}";
},
{
name = top;
position = "{324, 712}";
}
);
components = (
{
name = "se-vit";
}
);
layerId = "58AAA307-6DE9-4107-B80A-C255AE991657";
paths = (
{
closed = 1;
nodes = (
"476 643 LINE",
"476 712 LINE",
"171 712 LINE",
"171 643 LINE"
);
}
);
width = 678;
}
);
leftKerningGroup = "se-vit";
leftMetricsKey = "se-vit";
rightKerningGroup = "se-vit";
rightMetricsKey = "re-vit";
unicode = 105B4;
script = vithkuqi;
category = Letter;
subCategory = Lowercase;
},
{
glyphname = "te-vit";
lastChange = "2021-11-04 06:35:00 +0000";
layers = (
{
layerId = UUID0;
paths = (
{
closed = 1;
nodes = (
"354 -240 LINE",
"354 760 LINE",
"260 760 LINE",
"260 427 LINE SMOOTH",
"260 395 OFFCURVE",
"262 360 OFFCURVE",
"266 347 CURVE",
"260 323 LINE",
"260 -240 LINE"
);
},
{
closed = 1;
nodes = (
"501 182 OFFCURVE",
"450 111 OFFCURVE",
"309 111 CURVE SMOOTH",
"186 111 OFFCURVE",
"117 163 OFFCURVE",
"117 267 CURVE SMOOTH",
"117 321 OFFCURVE",
"144 341 OFFCURVE",
"178 341 CURVE SMOOTH",
"212 341 OFFCURVE",
"243 330 OFFCURVE",
"270 274 CURVE",
"271 347 LINE",
"260 347 LINE",
"245 371 OFFCURVE",
"208 405 OFFCURVE",
"152 405 CURVE SMOOTH",
"83 405 OFFCURVE",
"20 364 OFFCURVE",
"20 267 CURVE SMOOTH",
"20 137 OFFCURVE",
"127 61 OFFCURVE",
"309 61 CURVE SMOOTH",
"452 61 OFFCURVE",
"580 147 OFFCURVE",
"580 230 CURVE SMOOTH",
"580 257 OFFCURVE",
"568 277 OFFCURVE",
"542 277 CURVE SMOOTH",
"531 277 OFFCURVE",
"518 274 OFFCURVE",
"503 266 CURVE"
);
}
);
width = 595;
},
{
layerId = "58AAA307-6DE9-4107-B80A-C255AE991657";
paths = (
{
closed = 1;
nodes = (
"425 -240 LINE",
"425 760 LINE",
"273 760 LINE",
"273 447 LINE SMOOTH",
"273 415 OFFCURVE",
"276 360 OFFCURVE",
"283 347 CURVE",
"273 323 LINE",
"273 -240 LINE"
);
},
{
closed = 1;
nodes = (
"543 182 OFFCURVE",
"502 118 OFFCURVE",
"351 118 CURVE SMOOTH",
"228 118 OFFCURVE",
"170 177 OFFCURVE",
"170 267 CURVE SMOOTH",
"170 320 OFFCURVE",
"191 341 OFFCURVE",
"220 341 CURVE SMOOTH",
"244 341 OFFCURVE",
"275 320 OFFCURVE",
"282 274 CURVE",
"287 354 LINE",
"276 354 LINE",
"259 371 OFFCURVE",
"227 405 OFFCURVE",
"153 405 CURVE SMOOTH",
"79 405 OFFCURVE",
"13 363 OFFCURVE",
"15 267 CURVE SMOOTH",
"18 115 OFFCURVE",
"169 54 OFFCURVE",
"351 54 CURVE SMOOTH",
"504 54 OFFCURVE",
"632 128 OFFCURVE",
"632 240 CURVE SMOOTH",
"632 267 OFFCURVE",
"610 287 OFFCURVE",
"584 287 CURVE SMOOTH",
"573 287 OFFCURVE",
"560 284 OFFCURVE",
"545 276 CURVE"
);
}
);
width = 647;
}
);
leftKerningGroup = "te-vit";
rightKerningGroup = "te-vit";
unicode = 105B5;
script = vithkuqi;
category = Letter;
subCategory = Lowercase;
},
{
glyphname = "the-vit";
lastChange = "2021-11-04 06:35:00 +0000";
layers = (
{
layerId = UUID0;
paths = (
{
closed = 1;
nodes = (
"188 55 OFFCURVE",
"344 310 OFFCURVE",
"344 581 CURVE SMOOTH",
"344 720 OFFCURVE",
"312 771 OFFCURVE",
"235 771 CURVE SMOOTH",
"146 771 OFFCURVE",
"65 679 OFFCURVE",
"65 379 CURVE SMOOTH",
"65 130 OFFCURVE",
"123 -9 OFFCURVE",
"284 -9 CURVE SMOOTH",
"312 -9 OFFCURVE",
"334 0 OFFCURVE",
"353 11 CURVE",
"353 59 LINE",
"336 56 OFFCURVE",
"317 55 OFFCURVE",
"304 55 CURVE SMOOTH",
"188 55 OFFCURVE",
"162 169 OFFCURVE",
"162 378 CURVE SMOOTH",
"162 651 OFFCURVE",
"203 717 OFFCURVE",
"235 717 CURVE SMOOTH",
"260 717 OFFCURVE",
"284 685 OFFCURVE",
"284 579 CURVE SMOOTH",
"284 328 OFFCURVE",
"174 130 OFFCURVE",
"15 40 CURVE",
"34 0 LINE"
);
}
);
width = 393;
},
{
layerId = "58AAA307-6DE9-4107-B80A-C255AE991657";
paths = (
{
closed = 1;
nodes = (
"206 80 OFFCURVE",
"353 322 OFFCURVE",
"353 576 CURVE SMOOTH",
"353 726 OFFCURVE",
"314 770 OFFCURVE",
"235 770 CURVE SMOOTH",
"120 770 OFFCURVE",
"43 688 OFFCURVE",
"43 379 CURVE SMOOTH",
"43 126 OFFCURVE",
"112 -9 OFFCURVE",
"267 -9 CURVE SMOOTH",
"325 -9 OFFCURVE",
"347 0 OFFCURVE",
"366 11 CURVE",
"366 61 LINE",
"349 58 OFFCURVE",
"330 57 OFFCURVE",
"317 57 CURVE SMOOTH",
"201 57 OFFCURVE",
"198 169 OFFCURVE",
"198 378 CURVE SMOOTH",
"198 657 OFFCURVE",
"228 706 OFFCURVE",
"251 706 CURVE SMOOTH",
"276 706 OFFCURVE",
"283 674 OFFCURVE",
"283 574 CURVE SMOOTH",
"283 352 OFFCURVE",
"162 137 OFFCURVE",
"15 54 CURVE",
"41 0 LINE"
);
}
);
width = 396;
}
);
unicode = 105B6;
script = vithkuqi;
category = Letter;
subCategory = Lowercase;
},
{
glyphname = "u-vit";
lastChange = "2021-11-04 06:35:00 +0000";
layers = (
{
anchors = (
{
name = top;
position = "{315, 536}";
}
);
layerId = "58AAA307-6DE9-4107-B80A-C255AE991657";
paths = (
{
closed = 1;
nodes = (
"314 0 LINE",
"397 110 OFFCURVE",
"460 306 OFFCURVE",
"482 459 CURVE",
"432 421 LINE",
"528 404 OFFCURVE",
"594 429 OFFCURVE",
"594 504 CURVE SMOOTH",
"594 517 OFFCURVE",
"589 532 OFFCURVE",
"579 549 CURVE",
"554 533 OFFCURVE",
"525 527 OFFCURVE",
"498 527 CURVE SMOOTH",
"472 527 OFFCURVE",
"438 532 OFFCURVE",
"420 541 CURVE",
"415 346 OFFCURVE",
"359 193 OFFCURVE",
"292 61 CURVE",
"336 57 LINE",
"284 516 OFFCURVE",
"235 546 OFFCURVE",
"137 546 CURVE SMOOTH",
"89 546 OFFCURVE",
"38 520 OFFCURVE",
"5 494 CURVE",
"32 451 LINE",
"44 459 OFFCURVE",
"59 465 OFFCURVE",
"70 465 CURVE SMOOTH",
"114 465 OFFCURVE",
"141 413 OFFCURVE",
"218 0 CURVE"
);
}
);
width = 599;
},
{
anchors = (
{
name = top;
position = "{292, 536}";
}
);
layerId = UUID0;
paths = (
{
closed = 1;
nodes = (
"292 0 LINE",
"364 115 OFFCURVE",
"428 318 OFFCURVE",
"449 473 CURVE",
"437 436 LINE",
"517 436 OFFCURVE",
"559 464 OFFCURVE",
"559 504 CURVE SMOOTH",
"559 517 OFFCURVE",
"554 532 OFFCURVE",
"544 549 CURVE",
"519 533 OFFCURVE",
"490 527 OFFCURVE",
"463 527 CURVE SMOOTH",
"437 527 OFFCURVE",
"413 532 OFFCURVE",
"395 541 CURVE",
"371 347 OFFCURVE",
"331 181 OFFCURVE",
"271 76 CURVE",
"308 36 LINE",
"245 451 OFFCURVE",
"200 545 OFFCURVE",
"98 545 CURVE SMOOTH",
"55 545 OFFCURVE",
"33 525 OFFCURVE",
"5 494 CURVE",
"29 465 LINE",
"41 476 OFFCURVE",
"59 482 OFFCURVE",
"70 482 CURVE SMOOTH",
"125 482 OFFCURVE",
"158 383 OFFCURVE",
"241 0 CURVE"
);
}
);
width = 564;
}
);
leftKerningGroup = "u-vit";
rightKerningGroup = "u-vit";
unicode = 105B7;
script = vithkuqi;
category = Letter;
subCategory = Lowercase;
},
{
glyphname = "ve-vit";
lastChange = "2021-11-04 06:35:00 +0000";
layers = (
{
layerId = UUID0;
paths = (
{
closed = 1;
nodes = (
"642 -256 OFFCURVE",
"676 -220 OFFCURVE",
"676 -173 CURVE SMOOTH",
"676 -89 OFFCURVE",
"608 -34 OFFCURVE",
"396 -34 CURVE SMOOTH",
"176 -34 OFFCURVE",
"97 -127 OFFCURVE",
"97 -196 CURVE SMOOTH",
"97 -218 OFFCURVE",
"106 -250 OFFCURVE",
"147 -252 CURVE",
"162 -137 OFFCURVE",
"216 -87 OFFCURVE",
"396 -87 CURVE SMOOTH",
"568 -87 OFFCURVE",
"616 -133 OFFCURVE",
"616 -173 CURVE SMOOTH",
"616 -186 OFFCURVE",
"609 -203 OFFCURVE",
"578 -203 CURVE SMOOTH",
"540 -203 OFFCURVE",
"532 -162 OFFCURVE",
"532 -114 CURVE SMOOTH",
"532 536 LINE",
"438 536 LINE",
"438 193 LINE",
"445 168 LINE",
"440 124 OFFCURVE",
"438 90 OFFCURVE",
"438 61 CURVE SMOOTH",
"438 -122 LINE SMOOTH",
"438 -226 OFFCURVE",
"508 -256 OFFCURVE",
"571 -256 CURVE SMOOTH"
);
},
{
closed = 1;
nodes = (
"354 29 OFFCURVE",
"403 72 OFFCURVE",
"432 130 CURVE",
"518 130 LINE",
"438 314 LINE",
"438 141 OFFCURVE",
"367 92 OFFCURVE",
"298 92 CURVE SMOOTH",
"201 92 OFFCURVE",
"169 179 OFFCURVE",
"169 285 CURVE SMOOTH",
"169 536 LINE",
"75 536 LINE",
"75 277 LINE SMOOTH",
"75 142 OFFCURVE",
"126 29 OFFCURVE",
"271 29 CURVE SMOOTH"
);
}
);
width = 611;
},
{
layerId = "58AAA307-6DE9-4107-B80A-C255AE991657";
paths = (
{
closed = 1;
nodes = (
"637 -254 OFFCURVE",
"678 -210 OFFCURVE",
"678 -157 CURVE SMOOTH",
"678 -83 OFFCURVE",
"611 -29 OFFCURVE",
"372 -29 CURVE SMOOTH",
"127 -29 OFFCURVE",
"50 -125 OFFCURVE",
"50 -197 CURVE SMOOTH",
"50 -231 OFFCURVE",
"75 -250 OFFCURVE",
"116 -252 CURVE",
"131 -137 OFFCURVE",
"185 -93 OFFCURVE",
"376 -93 CURVE SMOOTH",
"580 -93 OFFCURVE",
"608 -119 OFFCURVE",
"608 -161 CURVE SMOOTH",
"608 -183 OFFCURVE",
"596 -194 OFFCURVE",
"581 -194 CURVE SMOOTH",
"562 -194 OFFCURVE",
"553 -172 OFFCURVE",
"553 -144 CURVE SMOOTH",
"553 536 LINE",
"401 536 LINE",
"401 135 LINE",
"408 88 LINE",
"404 68 OFFCURVE",
"401 33 OFFCURVE",
"401 -19 CURVE SMOOTH",
"401 -137 LINE SMOOTH",
"401 -216 OFFCURVE",
"454 -255 OFFCURVE",
"553 -254 CURVE SMOOTH"
);
},
{
closed = 1;
nodes = (
"328 4 OFFCURVE",
"384 49 OFFCURVE",
"400 90 CURVE",
"410 90 LINE",
"401 275 LINE",
"401 184 OFFCURVE",
"377 79 OFFCURVE",
"299 79 CURVE SMOOTH",
"238 79 OFFCURVE",
"221 145 OFFCURVE",
"221 221 CURVE SMOOTH",
"221 536 LINE",
"66 536 LINE",
"66 220 LINE SMOOTH",
"66 63 OFFCURVE",
"148 4 OFFCURVE",
"236 4 CURVE SMOOTH"
);
}
);
width = 663;
}
);
unicode = 105B8;
script = vithkuqi;
category = Letter;
subCategory = Lowercase;
},
{
glyphname = "xe-vit";
lastChange = "2021-11-04 06:35:00 +0000";
layers = (
{
layerId = UUID0;
paths = (
{
closed = 1;
nodes = (
"330 -256 OFFCURVE",
"389 -169 OFFCURVE",
"389 -67 CURVE SMOOTH",
"389 68 OFFCURVE",
"313 134 OFFCURVE",
"254 204 CURVE SMOOTH",
"207 260 OFFCURVE",
"165 303 OFFCURVE",
"165 385 CURVE SMOOTH",
"165 462 OFFCURVE",
"200 505 OFFCURVE",
"239 526 CURVE",
"178 492 LINE",
"247 448 OFFCURVE",
"287 434 OFFCURVE",
"345 434 CURVE SMOOTH",
"411 434 OFFCURVE",
"446 458 OFFCURVE",
"446 512 CURVE SMOOTH",
"446 527 OFFCURVE",
"443 541 OFFCURVE",
"440 545 CURVE",
"420 523 OFFCURVE",
"394 511 OFFCURVE",
"359 511 CURVE SMOOTH",
"323 511 OFFCURVE",
"279 523 OFFCURVE",
"252 547 CURVE",
"130 546 OFFCURVE",
"68 468 OFFCURVE",
"68 379 CURVE SMOOTH",
"68 271 OFFCURVE",
"127 205 OFFCURVE",
"176 153 CURVE SMOOTH",
"245 79 OFFCURVE",
"292 7 OFFCURVE",
"292 -67 CURVE SMOOTH",
"292 -149 OFFCURVE",
"265 -202 OFFCURVE",
"213 -202 CURVE SMOOTH",
"165 -202 OFFCURVE",
"125 -154 OFFCURVE",
"125 -48 CURVE SMOOTH",
"125 128 OFFCURVE",
"231 229 OFFCURVE",
"341 264 CURVE",
"264 257 LINE",
"296 230 OFFCURVE",
"331 191 OFFCURVE",
"386 191 CURVE SMOOTH",
"434 191 OFFCURVE",
"477 235 OFFCURVE",
"471 272 CURVE",
"456 264 OFFCURVE",
"440 260 OFFCURVE",
"423 260 CURVE SMOOTH",
"387 260 OFFCURVE",
"369 279 OFFCURVE",
"332 311 CURVE",
"193 275 OFFCURVE",
"65 134 OFFCURVE",
"65 -50 CURVE SMOOTH",
"65 -205 OFFCURVE",
"137 -256 OFFCURVE",
"221 -256 CURVE SMOOTH"
);
}
);
width = 507;
},
{
layerId = "58AAA307-6DE9-4107-B80A-C255AE991657";
paths = (
{
closed = 1;
nodes = (
"341 -252 OFFCURVE",
"406 -179 OFFCURVE",
"406 -69 CURVE SMOOTH",
"406 46 OFFCURVE",
"342 129 OFFCURVE",
"271 232 CURVE SMOOTH",
"249 264 OFFCURVE",
"215 318 OFFCURVE",
"215 380 CURVE SMOOTH",
"215 434 OFFCURVE",
"232 484 OFFCURVE",
"267 484 CURVE",
"185 492 LINE",
"252 430 OFFCURVE",
"292 416 OFFCURVE",
"352 416 CURVE SMOOTH",
"418 416 OFFCURVE",
"465 446 OFFCURVE",
"465 522 CURVE SMOOTH",
"465 537 OFFCURVE",
"464 541 OFFCURVE",
"463 545 CURVE",
"431 523 OFFCURVE",
"393 519 OFFCURVE",
"358 519 CURVE SMOOTH",
"322 519 OFFCURVE",
"259 528 OFFCURVE",
"232 550 CURVE",
"129 536 OFFCURVE",
"60 476 OFFCURVE",
"60 380 CURVE SMOOTH",
"60 273 OFFCURVE",
"108 200 OFFCURVE",
"155 134 CURVE SMOOTH",
"203 68 OFFCURVE",
"251 9 OFFCURVE",
"251 -69 CURVE SMOOTH",
"251 -142 OFFCURVE",
"222 -185 OFFCURVE",
"185 -185 CURVE SMOOTH",
"137 -185 OFFCURVE",
"105 -147 OFFCURVE",
"105 -49 CURVE SMOOTH",
"105 135 OFFCURVE",
"260 225 OFFCURVE",
"370 274 CURVE",
"293 242 LINE",
"325 215 OFFCURVE",
"360 187 OFFCURVE",
"415 187 CURVE SMOOTH",
"458 187 OFFCURVE",
"499 223 OFFCURVE",
"495 292 CURVE",
"480 284 OFFCURVE",
"464 280 OFFCURVE",
"447 280 CURVE SMOOTH",
"411 280 OFFCURVE",
"385 303 OFFCURVE",
"357 323 CURVE",
"228 287 OFFCURVE",
"35 141 OFFCURVE",
"35 -51 CURVE SMOOTH",
"35 -198 OFFCURVE",
"98 -249 OFFCURVE",
"205 -250 CURVE SMOOTH"
);
}
);
width = 500;
}
);
unicode = 105B9;
script = vithkuqi;
category = Letter;
subCategory = Lowercase;
},
{
glyphname = "y-vit";
lastChange = "2021-11-04 06:35:00 +0000";
layers = (
{
anchors = (
{
name = _top;
position = "{272, 536}";
},
{
name = top;
position = "{272, 771}";
}
);
components = (
{
name = "u-vit";
}
);
layerId = UUID0;
paths = (
{
closed = 1;
nodes = (
"354 695 OFFCURVE",
"323 673 OFFCURVE",
"292 673 CURVE SMOOTH",
"225 673 OFFCURVE",
"258 771 OFFCURVE",
"186 771 CURVE SMOOTH",
"151 771 OFFCURVE",
"127 741 OFFCURVE",
"127 701 CURVE SMOOTH",
"127 638 OFFCURVE",
"195 618 OFFCURVE",
"248 618 CURVE SMOOTH",
"313 618 OFFCURVE",
"375 650 OFFCURVE",
"416 719 CURVE",
"385 743 LINE"
);
}
);
width = 564;
},
{
anchors = (
{
name = _top;
position = "{315, 536}";
},
{
name = top;
position = "{315, 770}";
}
);
components = (
{
name = "u-vit";
}
);
layerId = "58AAA307-6DE9-4107-B80A-C255AE991657";
paths = (
{
closed = 1;
nodes = (
"392 700 OFFCURVE",
"363 681 OFFCURVE",
"332 681 CURVE SMOOTH",
"280 681 OFFCURVE",
"322 770 OFFCURVE",
"235 770 CURVE SMOOTH",
"202 770 OFFCURVE",
"168 746 OFFCURVE",
"168 700 CURVE SMOOTH",
"168 643 OFFCURVE",
"224 609 OFFCURVE",
"297 609 CURVE SMOOTH",
"362 609 OFFCURVE",
"421 641 OFFCURVE",
"461 718 CURVE",
"421 751 LINE"
);
}
);
width = 599;
}
);
leftKerningGroup = "u-vit";
leftMetricsKey = "se-vit";
rightKerningGroup = "u-vit";
rightMetricsKey = "=u-vit";
unicode = 105BB;
script = vithkuqi;
category = Letter;
subCategory = Lowercase;
},
{
glyphname = "ze-vit";
lastChange = "2021-11-04 06:35:00 +0000";
layers = (
{
anchors = (
{
name = top;
position = "{400, 536}";
}
);
layerId = "58AAA307-6DE9-4107-B80A-C255AE991657";
paths = (
{
closed = 1;
nodes = (
"404 -10 OFFCURVE",
"456 55 OFFCURVE",
"463 203 CURVE",
"503 220 OFFCURVE",
"529 257 OFFCURVE",
"546 279 CURVE",
"514 335 LINE",
"500 313 OFFCURVE",
"484 293 OFFCURVE",
"461 288 CURVE",
"455 313 OFFCURVE",
"434 344 OFFCURVE",
"393 344 CURVE",
"401 265 LINE",
"401 414 OFFCURVE",
"427 471 OFFCURVE",
"509 471 CURVE SMOOTH",
"579 471 OFFCURVE",
"599 410 OFFCURVE",
"599 270 CURVE SMOOTH",
"599 123 OFFCURVE",
"581 49 OFFCURVE",
"518 40 CURVE",
"518 -10 LINE",
"627 -6 OFFCURVE",
"754 76 OFFCURVE",
"754 269 CURVE SMOOTH",
"754 486 OFFCURVE",
"674 546 OFFCURVE",
"536 546 CURVE SMOOTH",
"366 546 OFFCURVE",
"343 426 OFFCURVE",
"335 330 CURVE",
"298 285 OFFCURVE",
"311 192 OFFCURVE",
"405 192 CURVE",
"400 250 LINE",
"390 112 OFFCURVE",
"380 65 OFFCURVE",
"302 65 CURVE SMOOTH",
"232 65 OFFCURVE",
"200 123 OFFCURVE",
"200 266 CURVE SMOOTH",
"200 413 OFFCURVE",
"218 486 OFFCURVE",
"281 495 CURVE",
"281 546 LINE",
"140 545 OFFCURVE",
"45 460 OFFCURVE",
"45 267 CURVE SMOOTH",
"45 66 OFFCURVE",
"127 -10 OFFCURVE",
"280 -10 CURVE SMOOTH"
);
}
);
width = 799;
},
{
anchors = (
{
name = top;
position = "{386, 536}";
}
);
layerId = UUID0;
paths = (
{
closed = 1;
nodes = (
"371 -10 OFFCURVE",
"433 76 OFFCURVE",
"445 211 CURVE",
"485 228 OFFCURVE",
"516 262 OFFCURVE",
"533 306 CURVE",
"501 333 LINE",
"487 311 OFFCURVE",
"466 291 OFFCURVE",
"443 286 CURVE",
"435 318 OFFCURVE",
"403 347 OFFCURVE",
"345 328 CURVE",
"383 294 LINE",
"386 404 OFFCURVE",
"416 482 OFFCURVE",
"502 482 CURVE SMOOTH",
"573 482 OFFCURVE",
"610 412 OFFCURVE",
"610 270 CURVE SMOOTH",
"610 123 OFFCURVE",
"573 42 OFFCURVE",
"510 33 CURVE",
"510 -10 LINE",
"619 -6 OFFCURVE",
"707 76 OFFCURVE",
"707 269 CURVE SMOOTH",
"707 461 OFFCURVE",
"640 546 OFFCURVE",
"512 546 CURVE SMOOTH",
"352 546 OFFCURVE",
"327 371 OFFCURVE",
"327 320 CURVE",
"291 280 OFFCURVE",
"306 165 OFFCURVE",
"436 210 CURVE",
"390 228 LINE",
"386 159 OFFCURVE",
"353 54 OFFCURVE",
"279 54 CURVE SMOOTH",
"199 54 OFFCURVE",
"162 124 OFFCURVE",
"162 266 CURVE SMOOTH",
"162 413 OFFCURVE",
"199 494 OFFCURVE",
"262 503 CURVE",
"262 546 LINE",
"153 542 OFFCURVE",
"65 460 OFFCURVE",
"65 267 CURVE SMOOTH",
"65 75 OFFCURVE",
"129 -10 OFFCURVE",
"277 -10 CURVE SMOOTH"
);
}
);
visible = 1;
width = 772;
}
);
leftKerningGroup = "ka-vit";
leftMetricsKey = "ka-vit";
rightKerningGroup = "o-vit";
rightMetricsKey = "=|";
unicode = 105BC;
script = vithkuqi;
category = Letter;
subCategory = Lowercase;
},
{
glyphname = zero;
lastChange = "2021-11-04 06:35:00 +0000";
layers = (
{
layerId = UUID0;
paths = (
{
closed = 1;
nodes = (
"437 -10 OFFCURVE",
"514 137 OFFCURVE",
"514 358 CURVE SMOOTH",
"514 580 OFFCURVE",
"437 724 OFFCURVE",
"281 724 CURVE SMOOTH",
"115 724 OFFCURVE",
"45 580 OFFCURVE",
"45 359 CURVE SMOOTH",
"45 137 OFFCURVE",
"115 -10 OFFCURVE",
"280 -10 CURVE SMOOTH"
);
},
{
closed = 1;
nodes = (
"183 44 OFFCURVE",
"149 160 OFFCURVE",
"149 358 CURVE SMOOTH",
"149 556 OFFCURVE",
"183 670 OFFCURVE",
"281 670 CURVE SMOOTH",
"377 670 OFFCURVE",
"410 556 OFFCURVE",
"410 358 CURVE SMOOTH",
"410 160 OFFCURVE",
"377 44 OFFCURVE",
"280 44 CURVE SMOOTH"
);
}
);
width = 559;
},
{
layerId = "58AAA307-6DE9-4107-B80A-C255AE991657";
paths = (
{
closed = 1;
nodes = (
"454 -10 OFFCURVE",
"525 137 OFFCURVE",
"525 358 CURVE SMOOTH",
"525 580 OFFCURVE",
"454 724 OFFCURVE",
"281 724 CURVE SMOOTH",
"97 724 OFFCURVE",
"34 580 OFFCURVE",
"34 359 CURVE SMOOTH",
"34 137 OFFCURVE",
"97 -10 OFFCURVE",
"280 -10 CURVE SMOOTH"
);
},
{
closed = 1;
nodes = (
"206 55 OFFCURVE",
"189 167 OFFCURVE",
"189 358 CURVE SMOOTH",
"189 549 OFFCURVE",
"206 659 OFFCURVE",
"281 659 CURVE SMOOTH",
"354 659 OFFCURVE",
"370 549 OFFCURVE",
"370 358 CURVE SMOOTH",
"370 167 OFFCURVE",
"354 55 OFFCURVE",
"280 55 CURVE SMOOTH"
);
}
);
width = 559;
}
);
unicode = 0030;
script = "";
category = Number;
subCategory = "Decimal Digit";
},
{
glyphname = one;
lastChange = "2021-11-04 06:35:00 +0000";
layers = (
{
layerId = UUID0;
paths = (
{
closed = 1;
nodes = (
"477 0 LINE",
"477 42 LINE",
"428 42 LINE SMOOTH",
"383 42 OFFCURVE",
"346 51 OFFCURVE",
"346 114 CURVE SMOOTH",
"346 718 LINE",
"282 718 LINE",
"212 666 LINE SMOOTH",
"146 617 OFFCURVE",
"106 599 OFFCURVE",
"66 589 CURVE",
"66 557 OFFCURVE",
"87 535 OFFCURVE",
"116 535 CURVE SMOOTH",
"156 535 OFFCURVE",
"194 577 OFFCURVE",
"245 639 CURVE",
"245 114 LINE SMOOTH",
"245 51 OFFCURVE",
"208 42 OFFCURVE",
"163 42 CURVE SMOOTH",
"96 42 LINE",
"96 0 LINE"
);
}
);
width = 559;
},
{
layerId = "58AAA307-6DE9-4107-B80A-C255AE991657";
paths = (
{
closed = 1;
nodes = (
"510 0 LINE",
"510 53 LINE",
"429 53 LINE SMOOTH",
"387 53 OFFCURVE",
"378 76 OFFCURVE",
"378 118 CURVE SMOOTH",
"378 718 LINE",
"266 718 LINE",
"196 666 LINE SMOOTH",
"130 617 OFFCURVE",
"82 599 OFFCURVE",
"42 589 CURVE",
"42 544 OFFCURVE",
"68 515 OFFCURVE",
"100 515 CURVE SMOOTH",
"140 515 OFFCURVE",
"178 557 OFFCURVE",
"229 619 CURVE",
"229 118 LINE SMOOTH",
"229 68 OFFCURVE",
"213 53 OFFCURVE",
"179 53 CURVE SMOOTH",
"97 53 LINE",
"97 0 LINE"
);
}
);
width = 559;
}
);
unicode = 0031;
script = "";
category = Number;
subCategory = "Decimal Digit";
},
{
glyphname = two;
lastChange = "2021-11-04 06:35:00 +0000";
layers = (
{
layerId = UUID0;
paths = (
{
closed = 1;
nodes = (
"491 0 LINE",
"496 173 LINE",
"454 173 LINE",
"450 155 LINE SMOOTH",
"441 116 OFFCURVE",
"426 80 OFFCURVE",
"366 80 CURVE SMOOTH",
"135 80 LINE",
"304 267 LINE SMOOTH",
"409 383 OFFCURVE",
"471 464 OFFCURVE",
"471 557 CURVE SMOOTH",
"471 658 OFFCURVE",
"394 724 OFFCURVE",
"268 724 CURVE SMOOTH",
"139 724 OFFCURVE",
"72 667 OFFCURVE",
"72 590 CURVE SMOOTH",
"72 539 OFFCURVE",
"110 525 OFFCURVE",
"158 525 CURVE",
"158 604 OFFCURVE",
"177 674 OFFCURVE",
"268 674 CURVE SMOOTH",
"338 674 OFFCURVE",
"370 623 OFFCURVE",
"370 547 CURVE SMOOTH",
"370 455 OFFCURVE",
"334 389 OFFCURVE",
"228 266 CURVE SMOOTH",
"61 73 LINE",
"61 0 LINE"
);
}
);
width = 559;
},
{
layerId = "58AAA307-6DE9-4107-B80A-C255AE991657";
paths = (
{
closed = 1;
nodes = (
"508 0 LINE",
"513 210 LINE",
"454 210 LINE",
"446 179 LINE",
"434 135 OFFCURVE",
"404 110 OFFCURVE",
"363 110 CURVE SMOOTH",
"130 110 LINE",
"230 205 LINE",
"430 395 OFFCURVE",
"488 465 OFFCURVE",
"488 558 CURVE SMOOTH",
"488 661 OFFCURVE",
"408 724 OFFCURVE",
"259 724 CURVE SMOOTH",
"113 724 OFFCURVE",
"39 661 OFFCURVE",
"39 589 CURVE SMOOTH",
"39 517 OFFCURVE",
"91 490 OFFCURVE",
"167 490 CURVE",
"167 604 OFFCURVE",
"191 663 OFFCURVE",
"259 663 CURVE SMOOTH",
"307 663 OFFCURVE",
"337 629 OFFCURVE",
"337 553 CURVE SMOOTH",
"337 450 OFFCURVE",
"306 380 OFFCURVE",
"183 254 CURVE SMOOTH",
"35 103 LINE",
"35 0 LINE"
);
}
);
width = 559;
}
);
unicode = 0032;
script = "";
category = Number;
subCategory = "Decimal Digit";
},
{
glyphname = three;
lastChange = "2021-11-04 06:35:00 +0000";
layers = (
{
layerId = UUID0;
paths = (
{
closed = 1;
nodes = (
"362 -10 OFFCURVE",
"501 43 OFFCURVE",
"501 204 CURVE SMOOTH",
"501 336 OFFCURVE",
"390 373 OFFCURVE",
"316 381 CURVE",
"408 403 OFFCURVE",
"476 475 OFFCURVE",
"476 565 CURVE SMOOTH",
"476 666 OFFCURVE",
"392 724 OFFCURVE",
"266 724 CURVE SMOOTH",
"137 724 OFFCURVE",
"70 667 OFFCURVE",
"70 590 CURVE SMOOTH",
"70 539 OFFCURVE",
"108 525 OFFCURVE",
"156 525 CURVE",
"156 604 OFFCURVE",
"175 674 OFFCURVE",
"266 674 CURVE SMOOTH",
"343 674 OFFCURVE",
"373 628 OFFCURVE",
"373 550 CURVE SMOOTH",
"373 455 OFFCURVE",
"304 395 OFFCURVE",
"216 395 CURVE",
"184 395 LINE",
"184 344 LINE",
"216 344 LINE SMOOTH",
"328 344 OFFCURVE",
"397 289 OFFCURVE",
"397 205 CURVE SMOOTH",
"397 85 OFFCURVE",
"327 44 OFFCURVE",
"248 44 CURVE SMOOTH",
"167 44 OFFCURVE",
"121 95 OFFCURVE",
"121 165 CURVE",
"83 165 OFFCURVE",
"58 141 OFFCURVE",
"58 101 CURVE SMOOTH",
"58 42 OFFCURVE",
"115 -10 OFFCURVE",
"247 -10 CURVE"
);
}
);
width = 559;
},
{
layerId = "58AAA307-6DE9-4107-B80A-C255AE991657";
paths = (
{
closed = 1;
nodes = (
"381 -10 OFFCURVE",
"513 43 OFFCURVE",
"513 206 CURVE SMOOTH",
"513 321 OFFCURVE",
"415 366 OFFCURVE",
"335 381 CURVE",
"422 410 OFFCURVE",
"488 471 OFFCURVE",
"488 561 CURVE SMOOTH",
"488 665 OFFCURVE",
"399 724 OFFCURVE",
"257 724 CURVE SMOOTH",
"111 724 OFFCURVE",
"36 668 OFFCURVE",
"36 597 CURVE SMOOTH",
"36 536 OFFCURVE",
"83 508 OFFCURVE",
"166 508 CURVE",
"166 586 OFFCURVE",
"180 663 OFFCURVE",
"252 663 CURVE SMOOTH",
"306 663 OFFCURVE",
"335 619 OFFCURVE",
"335 547 CURVE SMOOTH",
"335 459 OFFCURVE",
"294 400 OFFCURVE",
"208 400 CURVE SMOOTH",
"142 400 LINE",
"142 338 LINE",
"204 338 LINE SMOOTH",
"304 338 OFFCURVE",
"359 283 OFFCURVE",
"359 207 CURVE SMOOTH",
"359 92 OFFCURVE",
"301 60 OFFCURVE",
"236 60 CURVE SMOOTH",
"163 60 OFFCURVE",
"113 103 OFFCURVE",
"113 188 CURVE",
"67 188 OFFCURVE",
"28 161 OFFCURVE",
"28 110 CURVE SMOOTH",
"28 47 OFFCURVE",
"92 -10 OFFCURVE",
"243 -10 CURVE SMOOTH"
);
}
);
width = 559;
}
);
unicode = 0033;
script = "";
category = Number;
subCategory = "Decimal Digit";
},
{
glyphname = four;
lastChange = "2021-11-04 06:35:00 +0000";
layers = (
{
layerId = UUID0;
paths = (
{
closed = 1;
nodes = (
"516 0 LINE",
"516 42 LINE",
"503 42 LINE SMOOTH",
"458 42 OFFCURVE",
"421 51 OFFCURVE",
"421 114 CURVE SMOOTH",
"421 196 LINE",
"545 196 LINE",
"545 252 LINE",
"421 252 LINE",
"421 714 LINE",
"326 714 LINE",
"17 237 LINE",
"17 196 LINE",
"325 196 LINE",
"325 114 LINE SMOOTH",
"325 51 OFFCURVE",
"288 42 OFFCURVE",
"243 42 CURVE SMOOTH",
"215 42 LINE",
"215 0 LINE"
);
},
{
closed = 1;
nodes = (
"242 490 LINE SMOOTH",
"265 526 OFFCURVE",
"319 617 OFFCURVE",
"332 644 CURVE",
"327 582 OFFCURVE",
"325 495 OFFCURVE",
"325 437 CURVE SMOOTH",
"325 252 LINE",
"89 252 LINE"
);
}
);
width = 559;
},
{
layerId = "58AAA307-6DE9-4107-B80A-C255AE991657";
paths = (
{
closed = 1;
nodes = (
"531 0 LINE",
"531 53 LINE",
"518 53 LINE SMOOTH",
"473 53 OFFCURVE",
"436 62 OFFCURVE",
"436 125 CURVE SMOOTH",
"436 186 LINE",
"540 186 LINE",
"540 252 LINE",
"436 252 LINE",
"436 714 LINE",
"297 714 LINE",
"13 247 LINE",
"13 186 LINE",
"290 186 LINE",
"290 125 LINE SMOOTH",
"290 62 OFFCURVE",
"253 53 OFFCURVE",
"208 53 CURVE SMOOTH",
"180 53 LINE",
"180 0 LINE"
);
},
{
closed = 1;
nodes = (
"218 475 LINE SMOOTH",
"233 500 OFFCURVE",
"284 588 OFFCURVE",
"297 619 CURVE",
"292 557 OFFCURVE",
"290 485 OFFCURVE",
"290 427 CURVE SMOOTH",
"290 252 LINE",
"83 252 LINE"
);
}
);
width = 559;
}
);
unicode = 0034;
script = "";
category = Number;
subCategory = "Decimal Digit";
},
{
glyphname = five;
lastChange = "2021-11-04 06:35:00 +0000";
layers = (
{
layerId = UUID0;
paths = (
{
closed = 1;
nodes = (
"397 -10 OFFCURVE",
"486 82 OFFCURVE",
"486 218 CURVE SMOOTH",
"486 359 OFFCURVE",
"387 429 OFFCURVE",
"258 429 CURVE SMOOTH",
"199 429 OFFCURVE",
"161 420 OFFCURVE",
"141 413 CURVE",
"160 634 LINE",
"354 634 LINE SMOOTH",
"396 634 OFFCURVE",
"404 621 OFFCURVE",
"408 593 CURVE SMOOTH",
"412 563 LINE",
"454 563 LINE",
"449 714 LINE",
"115 714 LINE",
"83 359 LINE",
"107 352 LINE",
"132 363 OFFCURVE",
"161 374 OFFCURVE",
"230 374 CURVE SMOOTH",
"322 374 OFFCURVE",
"382 323 OFFCURVE",
"382 218 CURVE SMOOTH",
"382 91 OFFCURVE",
"321 49 OFFCURVE",
"239 49 CURVE SMOOTH",
"158 49 OFFCURVE",
"118 93 OFFCURVE",
"118 150 CURVE",
"75 150 OFFCURVE",
"55 128 OFFCURVE",
"55 91 CURVE SMOOTH",
"55 46 OFFCURVE",
"96 -10 OFFCURVE",
"244 -10 CURVE SMOOTH"
);
}
);
width = 559;
},
{
layerId = "58AAA307-6DE9-4107-B80A-C255AE991657";
paths = (
{
closed = 1;
nodes = (
"366 -10 OFFCURVE",
"506 47 OFFCURVE",
"506 220 CURVE SMOOTH",
"506 363 OFFCURVE",
"405 434 OFFCURVE",
"250 434 CURVE SMOOTH",
"209 434 OFFCURVE",
"161 427 OFFCURVE",
"140 419 CURVE",
"156 604 LINE",
"364 604 LINE SMOOTH",
"396 604 OFFCURVE",
"404 590 OFFCURVE",
"410 566 CURVE SMOOTH",
"418 532 LINE",
"475 532 LINE",
"470 714 LINE",
"92 714 LINE",
"60 368 LINE",
"106 350 LINE",
"136 359 OFFCURVE",
"166 368 OFFCURVE",
"217 368 CURVE SMOOTH",
"303 368 OFFCURVE",
"353 320 OFFCURVE",
"353 220 CURVE SMOOTH",
"353 97 OFFCURVE",
"296 60 OFFCURVE",
"230 60 CURVE SMOOTH",
"148 60 OFFCURVE",
"120 123 OFFCURVE",
"120 180 CURVE",
"72 180 OFFCURVE",
"40 157 OFFCURVE",
"40 111 CURVE SMOOTH",
"40 49 OFFCURVE",
"95 -10 OFFCURVE",
"245 -10 CURVE SMOOTH"
);
}
);
width = 559;
}
);
unicode = 0035;
script = "";
category = Number;
subCategory = "Decimal Digit";
},
{
glyphname = six;
lastChange = "2021-11-04 06:35:00 +0000";
layers = (
{
layerId = UUID0;
paths = (
{
closed = 1;
nodes = (
"429 -10 OFFCURVE",
"508 88 OFFCURVE",
"508 229 CURVE SMOOTH",
"508 357 OFFCURVE",
"429 434 OFFCURVE",
"307 434 CURVE SMOOTH",
"242 434 OFFCURVE",
"197 409 OFFCURVE",
"164 382 CURVE",
"171 575 OFFCURVE",
"222 676 OFFCURVE",
"322 676 CURVE SMOOTH",
"386 676 OFFCURVE",
"410 624 OFFCURVE",
"410 559 CURVE",
"460 559 OFFCURVE",
"487 581 OFFCURVE",
"487 619 CURVE SMOOTH",
"487 673 OFFCURVE",
"433 724 OFFCURVE",
"322 724 CURVE SMOOTH",
"145 724 OFFCURVE",
"61 550 OFFCURVE",
"61 360 CURVE SMOOTH",
"61 97 OFFCURVE",
"160 -10 OFFCURVE",
"293 -10 CURVE SMOOTH"
);
},
{
closed = 1;
nodes = (
"216 45 OFFCURVE",
"165 125 OFFCURVE",
"163 325 CURVE",
"190 353 OFFCURVE",
"235 383 OFFCURVE",
"287 383 CURVE SMOOTH",
"364 383 OFFCURVE",
"406 333 OFFCURVE",
"406 219 CURVE SMOOTH",
"406 98 OFFCURVE",
"367 45 OFFCURVE",
"296 45 CURVE SMOOTH"
);
}
);
width = 559;
},
{
layerId = "58AAA307-6DE9-4107-B80A-C255AE991657";
paths = (
{
closed = 1;
nodes = (
"445 -10 OFFCURVE",
"524 88 OFFCURVE",
"524 231 CURVE SMOOTH",
"524 361 OFFCURVE",
"445 438 OFFCURVE",
"324 438 CURVE SMOOTH",
"256 438 OFFCURVE",
"213 419 OFFCURVE",
"186 401 CURVE",
"194 570 OFFCURVE",
"242 665 OFFCURVE",
"321 665 CURVE SMOOTH",
"374 665 OFFCURVE",
"387 596 OFFCURVE",
"387 536 CURVE",
"475 536 OFFCURVE",
"507 573 OFFCURVE",
"507 614 CURVE SMOOTH",
"507 671 OFFCURVE",
"459 724 OFFCURVE",
"330 724 CURVE SMOOTH",
"137 724 OFFCURVE",
"45 550 OFFCURVE",
"45 330 CURVE SMOOTH",
"45 97 OFFCURVE",
"145 -10 OFFCURVE",
"293 -10 CURVE SMOOTH"
);
},
{
closed = 1;
nodes = (
"235 56 OFFCURVE",
"187 137 OFFCURVE",
"186 329 CURVE",
"203 352 OFFCURVE",
"251 377 OFFCURVE",
"287 377 CURVE",
"344 377 OFFCURVE",
"379 329 OFFCURVE",
"379 221 CURVE SMOOTH",
"379 106 OFFCURVE",
"347 56 OFFCURVE",
"296 56 CURVE SMOOTH"
);
}
);
width = 559;
}
);
unicode = 0036;
script = "";
category = Number;
subCategory = "Decimal Digit";
},
{
glyphname = seven;
lastChange = "2021-11-04 06:35:00 +0000";
layers = (
{
guideLines = (
{
angle = 340.3847;
position = "{327, 271}";
},
{
angle = 270;
position = "{264, 679}";
}
);
layerId = UUID0;
paths = (
{
closed = 1;
nodes = (
"265 0 LINE",
"511 685 LINE",
"511 714 LINE",
"64 714 LINE",
"59 533 LINE",
"101 533 LINE",
"105 583 LINE",
"108 616 OFFCURVE",
"127 634 OFFCURVE",
"163 634 CURVE",
"412 634 LINE",
"176 0 LINE"
);
}
);
width = 559;
},
{
guideLines = (
{
angle = 340.3847;
position = "{327, 271}";
},
{
angle = 270;
position = "{264, 679}";
}
);
layerId = "58AAA307-6DE9-4107-B80A-C255AE991657";
paths = (
{
closed = 1;
nodes = (
"250 0 LINE",
"526 665 LINE",
"526 714 LINE",
"49 714 LINE",
"44 504 LINE",
"104 504 LINE",
"110 554 LINE SMOOTH",
"114 587 OFFCURVE",
"132 605 OFFCURVE",
"168 605 CURVE",
"391 605 LINE",
"125 0 LINE"
);
}
);
width = 559;
}
);
unicode = 0037;
script = "";
category = Number;
subCategory = "Decimal Digit";
},
{
glyphname = eight;
lastChange = "2021-11-04 06:35:00 +0000";
layers = (
{
layerId = UUID0;
paths = (
{
closed = 1;
nodes = (
"419 -10 OFFCURVE",
"513 64 OFFCURVE",
"513 191 CURVE SMOOTH",
"513 278 OFFCURVE",
"446 336 OFFCURVE",
"347 383 CURVE",
"428 423 OFFCURVE",
"482 464 OFFCURVE",
"482 552 CURVE SMOOTH",
"482 652 OFFCURVE",
"410 724 OFFCURVE",
"285 724 CURVE SMOOTH",
"131 724 OFFCURVE",
"69 637 OFFCURVE",
"69 545 CURVE SMOOTH",
"69 461 OFFCURVE",
"122 405 OFFCURVE",
"198 362 CURVE",
"111 320 OFFCURVE",
"46 275 OFFCURVE",
"46 179 CURVE SMOOTH",
"46 74 OFFCURVE",
"123 -10 OFFCURVE",
"273 -10 CURVE SMOOTH"
);
},
{
closed = 1;
nodes = (
"189 36 OFFCURVE",
"143 92 OFFCURVE",
"143 175 CURVE SMOOTH",
"143 250 OFFCURVE",
"183 304 OFFCURVE",
"246 338 CURVE",
"375 282 OFFCURVE",
"422 237 OFFCURVE",
"422 169 CURVE SMOOTH",
"422 92 OFFCURVE",
"365 36 OFFCURVE",
"278 36 CURVE SMOOTH"
);
},
{
closed = 1;
nodes = (
"209 447 OFFCURVE",
"163 485 OFFCURVE",
"163 557 CURVE SMOOTH",
"163 626 OFFCURVE",
"204 677 OFFCURVE",
"279 677 CURVE SMOOTH",
"363 677 OFFCURVE",
"393 615 OFFCURVE",
"393 554 CURVE SMOOTH",
"393 484 OFFCURVE",
"373 443 OFFCURVE",
"298 406 CURVE"
);
}
);
width = 559;
},
{
layerId = "58AAA307-6DE9-4107-B80A-C255AE991657";
paths = (
{
closed = 1;
nodes = (
"434 -10 OFFCURVE",
"529 63 OFFCURVE",
"529 189 CURVE SMOOTH",
"529 270 OFFCURVE",
"483 329 OFFCURVE",
"363 387 CURVE",
"446 430 OFFCURVE",
"498 469 OFFCURVE",
"498 549 CURVE SMOOTH",
"498 650 OFFCURVE",
"426 724 OFFCURVE",
"285 724 CURVE SMOOTH",
"113 724 OFFCURVE",
"53 635 OFFCURVE",
"53 542 CURVE SMOOTH",
"53 464 OFFCURVE",
"97 407 OFFCURVE",
"177 361 CURVE",
"89 317 OFFCURVE",
"30 268 OFFCURVE",
"30 182 CURVE",
"30 76 OFFCURVE",
"106 -10 OFFCURVE",
"273 -10 CURVE SMOOTH"
);
},
{
closed = 1;
nodes = (
"210 47 OFFCURVE",
"165 100 OFFCURVE",
"165 178 CURVE SMOOTH",
"165 248 OFFCURVE",
"199 292 OFFCURVE",
"244 321 CURVE",
"347 274 OFFCURVE",
"390 237 OFFCURVE",
"390 172 CURVE SMOOTH",
"390 99 OFFCURVE",
"346 47 OFFCURVE",
"278 47 CURVE"
);
},
{
closed = 1;
nodes = (
"232 453 OFFCURVE",
"194 485 OFFCURVE",
"194 554 CURVE SMOOTH",
"194 618 OFFCURVE",
"224 666 OFFCURVE",
"279 666 CURVE SMOOTH",
"340 666 OFFCURVE",
"372 608 OFFCURVE",
"372 551 CURVE",
"372 485 OFFCURVE",
"351 449 OFFCURVE",
"302 421 CURVE"
);
}
);
width = 559;
}
);
unicode = 0038;
script = "";
category = Number;
subCategory = "Decimal Digit";
},
{
glyphname = nine;
lastChange = "2021-11-04 06:35:00 +0000";
layers = (
{
layerId = UUID0;
paths = (
{
closed = 1;
nodes = (
"421 -11 OFFCURVE",
"498 178 OFFCURVE",
"498 388 CURVE",
"498 623 OFFCURVE",
"400 724 OFFCURVE",
"265 724 CURVE SMOOTH",
"131 724 OFFCURVE",
"51 622 OFFCURVE",
"51 478 CURVE SMOOTH",
"51 343 OFFCURVE",
"132 275 OFFCURVE",
"248 275 CURVE SMOOTH",
"318 275 OFFCURVE",
"366 308 OFFCURVE",
"395 343 CURVE",
"388 142 OFFCURVE",
"339 44 OFFCURVE",
"228 44 CURVE SMOOTH",
"165 44 OFFCURVE",
"130 81 OFFCURVE",
"112 123 CURVE",
"97 118 OFFCURVE",
"82 100 OFFCURVE",
"82 75 CURVE SMOOTH",
"82 33 OFFCURVE",
"114 -11 OFFCURVE",
"227 -11 CURVE"
);
},
{
closed = 1;
nodes = (
"193 334 OFFCURVE",
"154 378 OFFCURVE",
"154 488 CURVE SMOOTH",
"154 605 OFFCURVE",
"195 669 OFFCURVE",
"265 669 CURVE SMOOTH",
"342 669 OFFCURVE",
"393 593 OFFCURVE",
"396 415 CURVE",
"378 372 OFFCURVE",
"335 334 OFFCURVE",
"270 334 CURVE SMOOTH"
);
}
);
width = 559;
},
{
layerId = "58AAA307-6DE9-4107-B80A-C255AE991657";
paths = (
{
closed = 1;
nodes = (
"432 -10 OFFCURVE",
"514 168 OFFCURVE",
"514 388 CURVE SMOOTH",
"514 623 OFFCURVE",
"409 724 OFFCURVE",
"264 724 CURVE SMOOTH",
"121 724 OFFCURVE",
"35 626 OFFCURVE",
"35 482 CURVE SMOOTH",
"35 347 OFFCURVE",
"116 275 OFFCURVE",
"231 275 CURVE SMOOTH",
"298 275 OFFCURVE",
"343 304 OFFCURVE",
"373 343 CURVE",
"366 151 OFFCURVE",
"320 53 OFFCURVE",
"232 53 CURVE SMOOTH",
"165 53 OFFCURVE",
"131 100 OFFCURVE",
"112 160 CURVE",
"78 153 OFFCURVE",
"63 132 OFFCURVE",
"63 103 CURVE SMOOTH",
"63 46 OFFCURVE",
"106 -10 OFFCURVE",
"227 -10 CURVE SMOOTH"
);
},
{
closed = 1;
nodes = (
"212 347 OFFCURVE",
"180 396 OFFCURVE",
"180 488 CURVE SMOOTH",
"180 600 OFFCURVE",
"213 657 OFFCURVE",
"270 657 CURVE SMOOTH",
"331 657 OFFCURVE",
"371 584 OFFCURVE",
"373 414 CURVE",
"354 374 OFFCURVE",
"320 347 OFFCURVE",
"274 347 CURVE SMOOTH"
);
}
);
width = 559;
}
);
unicode = 0039;
script = "";
category = Number;
subCategory = "Decimal Digit";
},
{
glyphname = .notdef;
lastChange = "2021-11-04 06:35:00 +0000";
layers = (
{
layerId = "58AAA307-6DE9-4107-B80A-C255AE991657";
paths = (
{
closed = 1;
nodes = (
"496 0 LINE",
"496 714 LINE",
"85 714 LINE",
"85 0 LINE"
);
},
{
closed = 1;
nodes = (
"136 663 LINE",
"445 663 LINE",
"445 51 LINE",
"136 51 LINE"
);
}
);
width = 582;
},
{
layerId = UUID0;
paths = (
{
closed = 1;
nodes = (
"505 0 LINE",
"505 714 LINE",
"94 714 LINE",
"94 0 LINE"
);
},
{
closed = 1;
nodes = (
"145 663 LINE",
"454 663 LINE",
"454 51 LINE",
"145 51 LINE"
);
}
);
width = 600;
}
);
script = "";
category = Separator;
subCategory = Other;
},
{
glyphname = hyphen;
lastChange = "2021-11-04 06:35:00 +0000";
layers = (
{
layerId = UUID0;
paths = (
{
closed = 1;
nodes = (
"285 235 LINE",
"285 310 LINE",
"25 310 LINE",
"25 235 LINE"
);
}
);
width = 310;
},
{
layerId = "58AAA307-6DE9-4107-B80A-C255AE991657";
paths = (
{
closed = 1;
nodes = (
"285 220 LINE",
"285 325 LINE",
"25 325 LINE",
"25 220 LINE"
);
}
);
width = 310;
}
);
leftKerningGroup = hyphen;
rightKerningGroup = hyphen;
unicode = 002D;
script = "";
category = Punctuation;
subCategory = Dash;
},
{
glyphname = parenleft;
lastChange = "2021-11-04 06:35:00 +0000";
layers = (
{
layerId = UUID0;
paths = (
{
closed = 1;
nodes = (
"314 -82 LINE",
"177 1 OFFCURVE",
"161 158 OFFCURVE",
"161 317 CURVE SMOOTH",
"161 476 OFFCURVE",
"177 632 OFFCURVE",
"314 715 CURVE",
"314 760 LINE",
"130 687 OFFCURVE",
"57 557 OFFCURVE",
"57 317 CURVE SMOOTH",
"57 76 OFFCURVE",
"130 -55 OFFCURVE",
"314 -128 CURVE"
);
}
);
width = 346;
},
{
layerId = "58AAA307-6DE9-4107-B80A-C255AE991657";
paths = (
{
closed = 1;
nodes = (
"368 -75 LINE",
"244 7 OFFCURVE",
"218 159 OFFCURVE",
"218 318 CURVE",
"218 476 OFFCURVE",
"244 627 OFFCURVE",
"368 709 CURVE",
"368 772 LINE",
"145 683 OFFCURVE",
"57 533 OFFCURVE",
"57 318 CURVE SMOOTH",
"57 102 OFFCURVE",
"145 -50 OFFCURVE",
"368 -139 CURVE"
);
}
);
width = 400;
}
);
rightKerningGroup = parenleft;
unicode = 0028;
script = "";
category = Punctuation;
subCategory = Parenthesis;
},
{
glyphname = parenright;
lastChange = "2021-11-04 06:35:00 +0000";
layers = (
{
layerId = UUID0;
paths = (
{
closed = 1;
nodes = (
"32 -128 LINE",
"216 -55 OFFCURVE",
"289 76 OFFCURVE",
"289 317 CURVE SMOOTH",
"289 557 OFFCURVE",
"216 687 OFFCURVE",
"32 760 CURVE",
"32 715 LINE",
"169 632 OFFCURVE",
"185 476 OFFCURVE",
"185 317 CURVE SMOOTH",
"185 158 OFFCURVE",
"169 1 OFFCURVE",
"32 -82 CURVE"
);
}
);
width = 346;
},
{
layerId = "58AAA307-6DE9-4107-B80A-C255AE991657";
paths = (
{
closed = 1;
nodes = (
"32 -139 LINE",
"255 -50 OFFCURVE",
"343 102 OFFCURVE",
"343 318 CURVE SMOOTH",
"343 533 OFFCURVE",
"255 683 OFFCURVE",
"32 772 CURVE",
"32 709 LINE",
"156 627 OFFCURVE",
"182 476 OFFCURVE",
"182 318 CURVE",
"182 159 OFFCURVE",
"156 7 OFFCURVE",
"32 -75 CURVE"
);
}
);
width = 400;
}
);
leftKerningGroup = parenright;
unicode = 0029;
script = "";
category = Punctuation;
subCategory = Parenthesis;
},
{
glyphname = period;
lastChange = "2021-11-04 06:35:00 +0000";
layers = (
{
layerId = UUID0;
paths = (
{
closed = 1;
nodes = (
"159 -7 OFFCURVE",
"188 10 OFFCURVE",
"188 61 CURVE SMOOTH",
"188 113 OFFCURVE",
"159 129 OFFCURVE",
"125 129 CURVE SMOOTH",
"90 129 OFFCURVE",
"62 113 OFFCURVE",
"62 61 CURVE SMOOTH",
"62 10 OFFCURVE",
"90 -7 OFFCURVE",
"125 -7 CURVE SMOOTH"
);
}
);
width = 250;
},
{
layerId = "58AAA307-6DE9-4107-B80A-C255AE991657";
paths = (
{
closed = 1;
nodes = (
"191 -8 OFFCURVE",
"229 12 OFFCURVE",
"229 72 CURVE SMOOTH",
"229 133 OFFCURVE",
"191 152 OFFCURVE",
"147 152 CURVE SMOOTH",
"101 152 OFFCURVE",
"65 133 OFFCURVE",
"65 72 CURVE SMOOTH",
"65 12 OFFCURVE",
"101 -8 OFFCURVE",
"147 -8 CURVE SMOOTH"
);
}
);
width = 294;
}
);
leftKerningGroup = period;
rightKerningGroup = comma;
unicode = 002E;
script = "";
category = Punctuation;
subCategory = Other;
},
{
glyphname = comma;
lastChange = "2021-11-04 06:35:00 +0000";
layers = (
{
layerId = UUID0;
paths = (
{
closed = 1;
nodes = (
"30 -154 LINE",
"149 -119 OFFCURVE",
"194 -43 OFFCURVE",
"194 42 CURVE SMOOTH",
"194 98 OFFCURVE",
"158 129 OFFCURVE",
"117 129 CURVE SMOOTH",
"80 129 OFFCURVE",
"52 108 OFFCURVE",
"52 70 CURVE SMOOTH",
"52 9 OFFCURVE",
"125 18 OFFCURVE",
"125 -22 CURVE",
"125 -61 OFFCURVE",
"95 -91 OFFCURVE",
"30 -112 CURVE"
);
}
);
width = 250;
},
{
layerId = "58AAA307-6DE9-4107-B80A-C255AE991657";
paths = (
{
closed = 1;
nodes = (
"45 -154 LINE",
"175 -119 OFFCURVE",
"224 -43 OFFCURVE",
"224 42 CURVE SMOOTH",
"224 110 OFFCURVE",
"188 152 OFFCURVE",
"132 152 CURVE SMOOTH",
"91 152 OFFCURVE",
"60 128 OFFCURVE",
"60 83 CURVE SMOOTH",
"60 3 OFFCURVE",
"133 14 OFFCURVE",
"133 -24 CURVE SMOOTH",
"133 -63 OFFCURVE",
"103 -81 OFFCURVE",
"45 -102 CURVE"
);
}
);
width = 294;
}
);
leftKerningGroup = period;
rightKerningGroup = comma;
unicode = 002C;
script = "";
category = Punctuation;
subCategory = Other;
},
{
glyphname = colon;
lastChange = "2021-11-04 06:35:00 +0000";
layers = (
{
layerId = UUID0;
paths = (
{
closed = 1;
nodes = (
"178 405 OFFCURVE",
"207 422 OFFCURVE",
"207 473 CURVE SMOOTH",
"207 525 OFFCURVE",
"178 541 OFFCURVE",
"144 541 CURVE SMOOTH",
"109 541 OFFCURVE",
"81 525 OFFCURVE",
"81 473 CURVE SMOOTH",
"81 422 OFFCURVE",
"109 405 OFFCURVE",
"144 405 CURVE SMOOTH"
);
},
{
closed = 1;
nodes = (
"178 -7 OFFCURVE",
"207 10 OFFCURVE",
"207 61 CURVE SMOOTH",
"207 113 OFFCURVE",
"178 129 OFFCURVE",
"144 129 CURVE SMOOTH",
"109 129 OFFCURVE",
"81 113 OFFCURVE",
"81 61 CURVE SMOOTH",
"81 10 OFFCURVE",
"109 -7 OFFCURVE",
"144 -7 CURVE SMOOTH"
);
}
);
width = 286;
},
{
layerId = "58AAA307-6DE9-4107-B80A-C255AE991657";
paths = (
{
closed = 1;
nodes = (
"196 385 OFFCURVE",
"234 405 OFFCURVE",
"234 465 CURVE SMOOTH",
"234 526 OFFCURVE",
"196 545 OFFCURVE",
"152 545 CURVE SMOOTH",
"106 545 OFFCURVE",
"70 526 OFFCURVE",
"70 465 CURVE SMOOTH",
"70 405 OFFCURVE",
"106 385 OFFCURVE",
"152 385 CURVE SMOOTH"
);
},
{
closed = 1;
nodes = (
"196 -8 OFFCURVE",
"234 12 OFFCURVE",
"234 72 CURVE SMOOTH",
"234 133 OFFCURVE",
"196 152 OFFCURVE",
"152 152 CURVE SMOOTH",
"106 152 OFFCURVE",
"70 133 OFFCURVE",
"70 72 CURVE SMOOTH",
"70 12 OFFCURVE",
"106 -8 OFFCURVE",
"152 -8 CURVE SMOOTH"
);
}
);
width = 304;
}
);
leftKerningGroup = colon;
rightKerningGroup = colon;
unicode = 003A;
script = "";
category = Punctuation;
subCategory = Other;
},
{
glyphname = semicolon;
lastChange = "2021-11-04 06:35:00 +0000";
layers = (
{
layerId = UUID0;
paths = (
{
closed = 1;
nodes = (
"48 -154 LINE",
"167 -119 OFFCURVE",
"212 -43 OFFCURVE",
"212 42 CURVE SMOOTH",
"212 98 OFFCURVE",
"176 129 OFFCURVE",
"135 129 CURVE SMOOTH",
"98 129 OFFCURVE",
"70 108 OFFCURVE",
"70 70 CURVE SMOOTH",
"70 9 OFFCURVE",
"143 18 OFFCURVE",
"143 -22 CURVE",
"143 -61 OFFCURVE",
"113 -91 OFFCURVE",
"48 -112 CURVE"
);
},
{
closed = 1;
nodes = (
"178 405 OFFCURVE",
"207 422 OFFCURVE",
"207 473 CURVE SMOOTH",
"207 525 OFFCURVE",
"178 541 OFFCURVE",
"144 541 CURVE SMOOTH",
"109 541 OFFCURVE",
"81 525 OFFCURVE",
"81 473 CURVE SMOOTH",
"81 422 OFFCURVE",
"109 405 OFFCURVE",
"144 405 CURVE SMOOTH"
);
}
);
width = 286;
},
{
layerId = "58AAA307-6DE9-4107-B80A-C255AE991657";
paths = (
{
closed = 1;
nodes = (
"55 -154 LINE",
"185 -119 OFFCURVE",
"234 -43 OFFCURVE",
"234 42 CURVE SMOOTH",
"234 110 OFFCURVE",
"198 152 OFFCURVE",
"142 152 CURVE SMOOTH",
"101 152 OFFCURVE",
"70 128 OFFCURVE",
"70 83 CURVE SMOOTH",
"70 3 OFFCURVE",
"143 14 OFFCURVE",
"143 -24 CURVE",
"143 -63 OFFCURVE",
"113 -81 OFFCURVE",
"55 -102 CURVE"
);
},
{
closed = 1;
nodes = (
"196 385 OFFCURVE",
"234 405 OFFCURVE",
"234 465 CURVE SMOOTH",
"234 526 OFFCURVE",
"196 545 OFFCURVE",
"152 545 CURVE SMOOTH",
"106 545 OFFCURVE",
"70 526 OFFCURVE",
"70 465 CURVE SMOOTH",
"70 405 OFFCURVE",
"106 385 OFFCURVE",
"152 385 CURVE SMOOTH"
);
}
);
width = 304;
}
);
leftKerningGroup = colon;
rightKerningGroup = colon;
unicode = 003B;
script = "";
category = Punctuation;
subCategory = Other;
},
{
glyphname = exclam;
lastChange = "2021-11-04 06:35:00 +0000";
layers = (
{
layerId = UUID0;
paths = (
{
closed = 1;
nodes = (
"193 201 LINE",
"224 714 LINE",
"108 714 LINE",
"139 201 LINE"
);
},
{
closed = 1;
nodes = (
"200 -7 OFFCURVE",
"229 10 OFFCURVE",
"229 61 CURVE SMOOTH",
"229 113 OFFCURVE",
"200 129 OFFCURVE",
"166 129 CURVE SMOOTH",
"131 129 OFFCURVE",
"103 113 OFFCURVE",
"103 61 CURVE SMOOTH",
"103 10 OFFCURVE",
"131 -7 OFFCURVE",
"166 -7 CURVE SMOOTH"
);
}
);
width = 332;
},
{
layerId = "58AAA307-6DE9-4107-B80A-C255AE991657";
paths = (
{
closed = 1;
nodes = (
"226 228 LINE",
"278 714 LINE",
"104 714 LINE",
"157 228 LINE"
);
},
{
closed = 1;
nodes = (
"236 -8 OFFCURVE",
"274 12 OFFCURVE",
"274 72 CURVE SMOOTH",
"274 133 OFFCURVE",
"236 152 OFFCURVE",
"192 152 CURVE SMOOTH",
"146 152 OFFCURVE",
"110 133 OFFCURVE",
"110 72 CURVE SMOOTH",
"110 12 OFFCURVE",
"146 -8 OFFCURVE",
"192 -8 CURVE SMOOTH"
);
}
);
width = 382;
}
);
unicode = 0021;
script = "";
category = Punctuation;
subCategory = Other;
},
{
glyphname = question;
lastChange = "2021-11-04 06:35:00 +0000";
layers = (
{
layerId = UUID0;
paths = (
{
closed = 1;
nodes = (
"188 201 LINE",
"242 201 LINE",
"245 314 LINE",
"364 365 OFFCURVE",
"436 433 OFFCURVE",
"436 543 CURVE SMOOTH",
"436 657 OFFCURVE",
"346 724 OFFCURVE",
"220 724 CURVE SMOOTH",
"93 724 OFFCURVE",
"33 674 OFFCURVE",
"33 609 CURVE SMOOTH",
"33 568 OFFCURVE",
"68 546 OFFCURVE",
"116 546 CURVE",
"116 615 OFFCURVE",
"145 675 OFFCURVE",
"228 675 CURVE SMOOTH",
"306 675 OFFCURVE",
"339 629 OFFCURVE",
"339 560 CURVE SMOOTH",
"339 480 OFFCURVE",
"303 401 OFFCURVE",
"184 353 CURVE"
);
},
{
closed = 1;
nodes = (
"247 -7 OFFCURVE",
"276 10 OFFCURVE",
"276 61 CURVE SMOOTH",
"276 113 OFFCURVE",
"247 129 OFFCURVE",
"213 129 CURVE SMOOTH",
"178 129 OFFCURVE",
"150 113 OFFCURVE",
"150 61 CURVE SMOOTH",
"150 10 OFFCURVE",
"178 -7 OFFCURVE",
"213 -7 CURVE SMOOTH"
);
}
);
width = 474;
},
{
layerId = "58AAA307-6DE9-4107-B80A-C255AE991657";
paths = (
{
closed = 1;
nodes = (
"208 228 LINE",
"283 228 LINE",
"296 319 LINE",
"429 374 OFFCURVE",
"495 433 OFFCURVE",
"495 540 CURVE SMOOTH",
"495 656 OFFCURVE",
"391 724 OFFCURVE",
"250 724 CURVE SMOOTH",
"103 724 OFFCURVE",
"37 673 OFFCURVE",
"37 608 CURVE SMOOTH",
"37 561 OFFCURVE",
"96 538 OFFCURVE",
"178 538 CURVE",
"178 606 OFFCURVE",
"198 664 OFFCURVE",
"258 664 CURVE SMOOTH",
"313 664 OFFCURVE",
"336 620 OFFCURVE",
"336 556 CURVE SMOOTH",
"336 477 OFFCURVE",
"309 397 OFFCURVE",
"195 351 CURVE"
);
},
{
closed = 1;
nodes = (
"288 -8 OFFCURVE",
"326 12 OFFCURVE",
"326 72 CURVE SMOOTH",
"326 133 OFFCURVE",
"288 152 OFFCURVE",
"244 152 CURVE SMOOTH",
"198 152 OFFCURVE",
"162 133 OFFCURVE",
"162 72 CURVE SMOOTH",
"162 12 OFFCURVE",
"198 -8 OFFCURVE",
"244 -8 CURVE SMOOTH"
);
}
);
width = 550;
}
);
leftKerningGroup = T;
unicode = 003F;
script = "";
category = Punctuation;
subCategory = Other;
},
{
glyphname = asterisk;
lastChange = "2021-11-04 06:35:00 +0000";
layers = (
{
layerId = UUID0;
paths = (
{
closed = 1;
nodes = (
"291 378 LINE",
"263 536 LINE",
"418 443 LINE",
"453 520 LINE",
"284 569 LINE",
"453 618 LINE",
"418 696 LINE",
"263 602 LINE",
"291 760 LINE",
"204 760 LINE",
"230 601 LINE",
"76 698 LINE",
"41 619 LINE",
"209 569 LINE",
"41 519 LINE",
"76 441 LINE",
"229 536 LINE",
"204 378 LINE"
);
}
);
width = 500;
},
{
layerId = "58AAA307-6DE9-4107-B80A-C255AE991657";
paths = (
{
closed = 1;
nodes = (
"308 367 LINE",
"272 528 LINE",
"422 424 LINE",
"467 524 LINE",
"311 563 LINE",
"467 603 LINE",
"422 703 LINE",
"272 598 LINE",
"308 760 LINE",
"196 760 LINE",
"228 597 LINE",
"80 703 LINE",
"35 604 LINE",
"191 563 LINE",
"35 523 LINE",
"80 424 LINE",
"228 529 LINE",
"196 367 LINE"
);
}
);
width = 502;
}
);
leftKerningGroup = quoteright;
rightKerningGroup = P;
unicode = 002A;
script = "";
category = Punctuation;
subCategory = Other;
},
{
glyphname = slash;
lastChange = "2021-11-04 06:35:00 +0000";
layers = (
{
layerId = UUID0;
paths = (
{
closed = 1;
nodes = (
"59 -121 LINE",
"288 760 LINE",
"230 760 LINE",
"0 -121 LINE"
);
}
);
width = 288;
},
{
layerId = "58AAA307-6DE9-4107-B80A-C255AE991657";
paths = (
{
closed = 1;
nodes = (
"72 -122 LINE",
"288 760 LINE",
"218 760 LINE",
"0 -121 LINE"
);
}
);
width = 288;
}
);
unicode = 002F;
script = "";
category = Punctuation;
subCategory = Other;
},
{
glyphname = quotedbl;
lastChange = "2021-11-04 06:35:00 +0000";
layers = (
{
layerId = UUID0;
paths = (
{
closed = 1;
nodes = (
"321 479 LINE",
"351 714 LINE",
"245 714 LINE",
"275 479 LINE"
);
},
{
closed = 1;
nodes = (
"133 479 LINE",
"163 714 LINE",
"57 714 LINE",
"87 479 LINE"
);
}
);
width = 408;
},
{
layerId = "58AAA307-6DE9-4107-B80A-C255AE991657";
paths = (
{
closed = 1;
nodes = (
"396 439 LINE",
"441 714 LINE",
"285 714 LINE",
"330 439 LINE"
);
},
{
closed = 1;
nodes = (
"178 439 LINE",
"223 714 LINE",
"67 714 LINE",
"112 439 LINE"
);
}
);
width = 508;
}
);
leftKerningGroup = quotesingle;
rightKerningGroup = quotesingle;
unicode = 0022;
script = "";
category = Punctuation;
subCategory = Other;
},
{
glyphname = quotesingle;
lastChange = "2021-11-04 06:35:00 +0000";
layers = (
{
layerId = UUID0;
paths = (
{
closed = 1;
nodes = (
"133 479 LINE",
"163 714 LINE",
"57 714 LINE",
"87 479 LINE"
);
}
);
width = 220;
},
{
layerId = "58AAA307-6DE9-4107-B80A-C255AE991657";
paths = (
{
closed = 1;
nodes = (
"178 439 LINE",
"223 714 LINE",
"67 714 LINE",
"112 439 LINE"
);
}
);
width = 290;
}
);
leftKerningGroup = quotesingle;
rightKerningGroup = quotesingle;
unicode = 0027;
script = "";
category = Punctuation;
subCategory = Other;
},
{
glyphname = plus;
lastChange = "2021-11-04 06:35:00 +0000";
layers = (
{
layerId = UUID0;
paths = (
{
closed = 1;
nodes = (
"309 143 LINE",
"309 328 LINE",
"494 328 LINE",
"494 387 LINE",
"309 387 LINE",
"309 572 LINE",
"249 572 LINE",
"249 387 LINE",
"65 387 LINE",
"65 328 LINE",
"249 328 LINE",
"249 143 LINE"
);
}
);
width = 559;
},
{
layerId = "58AAA307-6DE9-4107-B80A-C255AE991657";
paths = (
{
closed = 1;
nodes = (
"315 143 LINE",
"315 322 LINE",
"494 322 LINE",
"494 393 LINE",
"315 393 LINE",
"315 572 LINE",
"243 572 LINE",
"243 393 LINE",
"65 393 LINE",
"65 322 LINE",
"243 322 LINE",
"243 143 LINE"
);
}
);
width = 559;
}
);
unicode = 002B;
script = "";
category = Symbol;
subCategory = Math;
},
{
glyphname = equal;
lastChange = "2021-11-04 06:35:00 +0000";
layers = (
{
layerId = UUID0;
paths = (
{
closed = 1;
nodes = (
"494 426 LINE",
"494 485 LINE",
"65 485 LINE",
"65 426 LINE"
);
},
{
closed = 1;
nodes = (
"494 229 LINE",
"494 288 LINE",
"65 288 LINE",
"65 229 LINE"
);
}
);
width = 559;
},
{
layerId = "58AAA307-6DE9-4107-B80A-C255AE991657";
paths = (
{
closed = 1;
nodes = (
"496 419 LINE",
"496 489 LINE",
"63 489 LINE",
"63 419 LINE"
);
},
{
closed = 1;
nodes = (
"496 225 LINE",
"496 295 LINE",
"63 295 LINE",
"63 225 LINE"
);
}
);
width = 559;
}
);
unicode = 003D;
script = "";
category = Symbol;
subCategory = Math;
},
{
glyphname = greater;
lastChange = "2021-11-04 06:35:00 +0000";
layers = (
{
layerId = UUID0;
paths = (
{
closed = 1;
nodes = (
"494 340 LINE",
"494 375 LINE",
"65 606 LINE",
"65 539 LINE",
"401 357 LINE",
"65 177 LINE",
"65 110 LINE"
);
}
);
width = 559;
},
{
layerId = "58AAA307-6DE9-4107-B80A-C255AE991657";
paths = (
{
closed = 1;
nodes = (
"494 337 LINE",
"494 378 LINE",
"65 612 LINE",
"65 533 LINE",
"387 357 LINE",
"65 183 LINE",
"65 104 LINE"
);
}
);
width = 559;
}
);
unicode = 003E;
script = "";
category = Symbol;
subCategory = Math;
},
{
glyphname = less;
lastChange = "2021-11-04 06:35:00 +0000";
layers = (
{
layerId = UUID0;
paths = (
{
closed = 1;
nodes = (
"494 177 LINE",
"158 357 LINE",
"494 539 LINE",
"494 606 LINE",
"65 375 LINE",
"65 340 LINE",
"494 110 LINE"
);
}
);
width = 559;
},
{
layerId = "58AAA307-6DE9-4107-B80A-C255AE991657";
paths = (
{
closed = 1;
nodes = (
"494 183 LINE",
"172 357 LINE",
"494 533 LINE",
"494 612 LINE",
"65 378 LINE",
"65 337 LINE",
"494 104 LINE"
);
}
);
width = 559;
}
);
unicode = 003C;
script = "";
category = Symbol;
subCategory = Math;
},
{
glyphname = asciicircum;
lastChange = "2021-11-04 06:35:00 +0000";
layers = (
{
layerId = UUID0;
paths = (
{
closed = 1;
nodes = (
"118 266 LINE",
"278 622 LINE",
"440 266 LINE",
"507 266 LINE",
"296 714 LINE",
"261 714 LINE",
"51 266 LINE"
);
}
